<?xml version="1.0" encoding="utf-8"?>
<!-- Generator: Adobe Illustrator 24.1.1, SVG Export Plug-In . SVG Version: 6.00 Build 0)  -->
<svg version="1.1" id="Layer_1" xmlns="http://www.w3.org/2000/svg" xmlns:xlink="http://www.w3.org/1999/xlink" x="0px" y="0px"
	 viewBox="0 0 1000 1000" style="enable-background:new 0 0 1000 1000;" xml:space="preserve">
<style type="text/css">
	.st0{fill:#FFFEFE;}
	.st1{fill:#4F98D3;}
	.st2{fill:#FFFFFF;}
	.st3{fill:#345A2B;}
	.st4{fill:#C53D27;}
	.st5{fill:#EFBA1E;}
	.st6{fill:#B33B25;}
	.st7{fill:#B73D26;}
	.st8{fill:#C53C27;}
	.st9{fill:#5395D0;}
	.st10{fill:#BC4027;}
	.st11{fill:#9E3A24;}
	.st12{fill:#B63D27;}
	.st13{fill:#FDFAF7;}
	.st14{fill:#C33D28;}
	.st15{fill:#A23925;}
	.st16{fill:#B23F26;}
	.st17{fill:#993C26;}
	.st18{fill:#A94027;}
	.st19{fill:#A23C27;}
	.st20{fill:#923C23;}
	.st21{fill:#AF492F;}
	.st22{fill:#973B26;}
	.st23{fill:#A7462A;}
	.st24{fill:#9D452C;}
	.st25{fill:#ECCBB0;}
	.st26{fill:#A43F28;}
	.st27{fill:#B3634B;}
	.st28{fill:#98472B;}
	.st29{fill:#993F2A;}
	.st30{fill:#974931;}
	.st31{fill:#974A31;}
	.st32{fill:#A64832;}
	.st33{fill:#DD9172;}
	.st34{fill:#C0896F;}
	.st35{fill:#D3C452;}
	.st36{fill:#AC775E;}
	.st37{fill:#DF9F83;}
	.st38{fill:#C49271;}
	.st39{fill:#B07561;}
	.st40{fill:#9A7970;}
	.st41{fill:#ADC198;}
	.st42{fill:#A4786D;}
	.st43{fill:#FFFFFE;}
	.st44{fill:#924026;}
	.st45{fill:#9C4A2F;}
	.st46{fill:#C7A796;}
	.st47{fill:#B08D77;}
	.st48{fill:#FDFAF8;}
	.st49{fill:#FBFBFA;}
	.st50{fill:#FCFCFB;}
	.st51{fill:#FEFEFD;}
	.st52{fill:#EFD6C8;}
	.st53{fill:#F0D9C1;}
	.st54{fill:#99452D;}
	.st55{fill:#FFFEFD;}
	.st56{fill:#F0D9B0;}
	.st57{fill:#9A4328;}
	.st58{fill:#B27C65;}
	.st59{fill:#EEC1A5;}
	.st60{fill:#C79388;}
	.st61{fill:#CEBBB3;}
	.st62{fill:#9D5A40;}
	.st63{fill:#EFD5BB;}
	.st64{fill:#E4986A;}
	.st65{fill:#E7B79C;}
	.st66{fill:#EAB79B;}
	.st67{fill:#9F3723;}
	.st68{fill:#A1472E;}
	.st69{fill:#9C4228;}
	.st70{fill:#FFFDFD;}
	.st71{fill:#9F4629;}
</style>
<g>
	<path class="st0" d="M891.41,475.1c0,132.3-0.02,264.61,0.09,396.91c0,3.74-0.84,4.59-4.59,4.59c-257.94-0.1-515.88-0.1-773.83,0
		c-3.74,0-4.59-0.84-4.59-4.59c0.1-264.61,0.1-529.22,0-793.83c0-3.74,0.84-4.59,4.59-4.59c257.94,0.1,515.88,0.1,773.83,0
		c3.74,0,4.59,0.84,4.59,4.59C891.39,210.49,891.41,342.79,891.41,475.1z"/>
	<path class="st1" d="M841.48,478.08c0,194.86-157.9,352.56-352.95,352.49c-194.65-0.07-352.1-158.18-351.98-353.46
		c0.12-194.23,158.4-351.62,353.45-351.49C683.79,125.75,841.48,283.88,841.48,478.08z"/>
	<path class="st2" d="M786.77,649.85c-7.17,14.12-16.38,26.94-26.11,39.32c-24.41,31.09-53.09,57.58-86.46,78.88
		c-40.27,25.7-83.97,42.26-131.19,49.77c-25.26,4.02-50.66,5.12-76.05,3.48c-68.54-4.42-130.56-27.2-185.32-68.78
		c-46.77-35.51-82.49-80.08-106.64-133.72c-13.44-29.85-22.1-61.05-26.68-93.48c-3.25-23-3.94-46.11-2.5-69.16
		c3.51-56.49,20.03-109.06,49.58-157.45c14.18-23.22,30.92-44.46,50.15-63.63c34.91-34.8,75.35-61.2,121.52-78.77
		c46.54-17.72,94.77-24.6,144.24-21.42c68.87,4.43,131.16,27.44,186.01,69.58c57.5,44.16,97.63,100.72,119.73,169.88
		c7.81,24.43,12.63,49.47,14.61,75.06c3.77,48.66-1.8,96.1-17.83,142.29c-6.55,18.88-15.14,36.79-24.32,54.47
		c-2.57,0.49-4.4-0.99-6.29-2.34c-12.27-8.8-23.35-18.97-34.24-29.37c-3.59-3.43-7.09-6.97-10.53-10.55
		c-2.42-2.52-4.7-5.17-5.09-8.89c0.22-19.77-0.65-39.54-1.41-59.27c-0.54-13.93-0.32-27.89-1.34-41.83
		c-0.76-10.39-0.25-20.92-0.45-31.38c-0.36-19.09-0.5-38.2-1.81-57.26c-0.44-6.48,0.56-7.84,5.38-7.69
		c-12.17-9.66-24.12-19.83-36.15-29.91c-8.9-7.47-17.27-15.64-27.57-21.3c-1.16-0.74-2.13-1.66-2.7-2.94
		c-0.3-1.68,0.29-3.3,0.57-4.89c2.46-14.1-0.08-19.67-12.25-26.36c-7.21-4.12-7.21-4.12-8.37-8.61c-0.34,5.22,4.71,6.33,8.37,8.71
		c3.92,1.93,7.47,4.33,9.75,8.15c1.01,1.7,2.03,3.82,0.55,5.57c-1.72,2.02-3.75,0.48-5.32-0.55c-3.51-2.28-7.29-2.9-11.37-2.78
		c-4.3,0.13-8.61,0.08-12.91,0.02c-4.92-0.07-9.53,0.89-13.71,3.63c-1.11,0.72-2.3,1.33-3.53,1.81c-1.36,0.54-2.84,1.4-4.17,0.16
		c-1.33-1.24-0.5-2.77-0.13-4.18c0.21-0.81,0.53-1.56,1.05-2.22c2.9-4.11,6.71-7.09,11.32-9.03c-4.48,1.76-8.1,4.67-11.02,8.5
		c-2.67,4.48-3.89,9.05-0.81,14.47c4.22-9.44,12.05-11.43,21.13-12.04c5.99-0.41,11.89-1.02,17.74,0.49
		c6.41,1.66,11.72,4.69,13.15,11.93c0.39,1.98,1.06,4.34-0.46,5.69c-1.87,1.66-3.52-0.67-5.23-1.4c-2.32-1.39-4.89-2.24-7.3-3.44
		c-3.1-1.78-6.24-1.49-9.57-0.58c-18.62,5.1-36.1,12.69-52.04,23.67c-2.96,1.45-5.41,3.6-7.97,5.62
		c-8.41,5.88-18.27,8.68-27.44,12.96c-1.95,0.91-4.13,1.27-6.24,2.36c6.97-2.53,14.07-3.9,21.05-5.61
		c23.76-5.8,47.19-12.72,70.58-19.8c5.17-1.57,7.38-0.06,7.41,5.28c0.13,27.29,0.09,54.58,0.05,81.86
		c-0.01,3.81-1.63,6.35-5.27,7.54c-4.1,1.33-7.76,3.92-12.2,4.26c-19.6,6.84-39.19,13.7-58.83,20.43
		c-3.77,1.29-7.46,3.89-11.87,2.33c-2.14-2.4-1.62-5.33-1.46-8.09c1.16-19.4,1.95-38.8,1.86-58.24c-0.03-5.49,0.12-10.95,0.87-16.41
		c0.22-1.64,0.77-4.08-1.81-4.46c-2.82-0.42-3.73,1.71-3.91,4.06c-0.59,8.1-1.76,16.14-0.5,24.34c1.12,7.25-0.94,14.53-0.72,21.87
		c0.48,15.6-1.15,31.17-0.86,46.78c0.05,2.59-1.17,6.79,2.67,6.96c3.86,0.17,1.8-4.11,2.55-6.33c0.9-2.66,0.42-5.63,1.51-8.3
		c5.12-3.35,11.18-3.9,16.89-5.28c19.72-4.75,39.14-10.5,58.55-16.36c2.38-0.72,4.76-1.48,7.25-1.81c2.99-0.05,4.04,1.79,4.3,4.4
		c0.18,1.82,0.17,3.65,0.14,5.48c-0.29,23.24,0.63,46.49-0.51,69.72c-0.03,0.66-0.02-0.17-0.01,0.5c0.1,8.99,4.39,11.61,12.68,7.85
		c1.55-0.7,2.28-1.79,2.49-3.4c0.24-1.82,0.2-3.65,0.2-5.47c0.01-22.92-0.01-45.83,0.02-68.75c0-2.64-0.32-5.33,0.87-7.85
		c1.83-2.2,3.94-1.24,5.88-0.34c17.19,7.98,34.79,15.01,52.12,22.66c3.4,1.5,4.77,3.9,4.75,7.38c-0.06,11.14,1.47,22.21,1.3,33.35
		c-0.33,21.6,1.45,43.17,1.21,64.78c-0.02,1.5,0.25,3-0.82,4.28c-1.71,1.53-3.5,0.92-4.94-0.2c-3.61-2.81-7.37-5.56-9.02-10.14
		c-0.67-16.28-0.08-32.56-0.32-48.84c-0.18-12.53-4.03-23.82-11.81-33.7c-5.08-6.45-14.07-6.12-18.77,0.73
		c-1.6,2.33-3.02,4.93-3.2,7.77c-0.61,9.26,0.04,18.56-0.81,27.82c0.69-6.07,0.65-12.17,0.66-18.26c0.01-3.49-0.01-6.96,0.85-10.4
		c0.97-3.9,3.15-6.93,6.28-9.31c4.89-3.72,10.36-3.26,14.08,1.56c7.62,9.86,12.1,21.08,12.49,33.55
		c0.41,12.78,0.13,25.59,0.07,38.39c-0.01,2.46,0.19,5.09-2.41,6.65c-3,0.8-5.56-0.31-7.89-2.01c-4.85-3.54-10.12-6.3-15.64-8.6
		c-2.34-0.97-4.55-2.08-5.37-4.77c-0.72-4.46-0.35-8.97-0.32-13.45c0.02-3.24-0.86-3.69-3.74-2.21c-9.59,4.92-19.74,8.16-30.6,7.98
		c-24.52-0.4-41.93-12.13-52.52-34.06c-2.68-5.54-4.89-11.35-5.6-17.53c-0.43-3.75-1.69-4.24-5.13-2.75
		c-14.86,6.43-29.72,6.59-44.24-1.09c-7.98-4.22-14.15-10.39-18.41-18.39c-1.1-2.06-2.14-4.14-3.15-6.24
		c-1.26-2.6-3.08-3.81-6.02-2.95c-3.69,1.08-7.55,1.22-11.3,1.96c-1.69,0.11-3.28-0.06-4.36-1.61c-0.87-2-1.69-3.98-4.45-3.97
		c-2.98,0.01-4.02-1.99-4.13-4.58c-0.23-5.3-0.23-10.62,0-15.92c0.12-2.82,1.42-4.7,4.46-5.04c1.12-0.12,2.37,0.02,3.11-1.11
		c0.06-0.62-0.28-1.07-0.75-1.14c-4.94-0.79-7.12-3.73-7.02-8.64c0.02-1.07,0.04-2.66-1.52-2.67c-1.55-0.01-1.63,1.61-1.56,2.66
		c0.34,5.08-1.65,8.58-7.02,10.06c6.88,3.7,6.87,3.7,6.89,11.6c0.01,2.82,0.04,5.63,0.32,8.45c0.44,4.47-1.12,6.02-5.65,5.95
		c-5.1-0.08-5.08-0.08-3.89,4.74c0.32,1.29,0.49,2.61,0.67,3.93c0.08,0.8-0.02,1.56-0.34,2.3c-1.36,2.02-3.58,2.39-5.68,2.73
		c-9.7,1.59-18.96,5.1-28.68,6.55c-3.11,0.46-4.45,2.65-5.34,5.29c-1.59,4.73-3.2,9.46-5.2,14.04c-2.97,6.8-7.23,12.62-13.28,17.03
		c-4.39-0.91-4.42-1.09-0.92-6.48c3.08-13.39,3.85-26.52-4.47-38.58c-1.72-2.5-3.62-5.16-7.19-4.06c-3.67,1.13-6.65,3.48-7.03,7.57
		c-0.87,9.4-1.59,18.81-1.23,28.28c0.08,2.04,0.87,3.32,2.52,4.48c2.01,1.41,4.63,1.98,6.01,4.28c0.61,0.98,1.16,2.01,2.32,2.48
		c3.77,1.53,4.61,4.42,3.72,8.09c-2.46,3.98-6.5,6.05-10.37,8.2c-7.77,4.32-16.28,6.6-24.97,7.95c-3.47,0.54-4.65,2.11-5.41,5.24
		c-2.7,11.03-7.25,21.32-13.38,30.88c-1.06,1.65-1.98,3.49-3.96,4.33c-1.52,0.37-3.08,0.12-4.24-0.74
		c-5.24-3.87-11.42-4.65-17.56-5.58c-1.49-0.22-2.91-0.58-3.65-2.11c-1.17-10.77,0.35-20.79,8.67-28.61
		c4.78-4.49,10.32-6.41,16.75-3.41c2.45,2.29,5.43,4.08,7.05,7.19c0.87,3.91,0.83,7.79-0.12,11.6c0.94-5.45,2.16-10.92-0.37-16.35
		c-3.64-7.83-12.2-10.99-19.95-7.08c-10.91,5.51-15.95,14.91-16.94,26.79c-0.32,3.89,0.87,8.01-1.73,11.57
		c-3.43,2.19-6.89,4.16-11.08,1.93c-2.27-5.41-0.04-10.78,0.37-16.12c0.61-8.05,1.53-16.09,2.55-24.12c0.83-6.59,0.8-6.73,7.38-8.68
		c15.31-1.98,30.39-5.23,45.48-8.48c7.99-1.72,9.64-0.05,8.64,7.98c-0.33,2.62-1.95,5.89,2.84,6.31c4.82,0.42,6.48-0.88,6.8-5.54
		c0.06-0.83,0-1.67,0.09-2.49c0.45-4.06,1.64-4.81,5.64-3.55c1.59,0.5,3.06,1.3,4.57,1.99c1.64,0.75,3.29,1.53,5.62,0.81
		c-1.19-2.6-3.55-3.07-5.52-3.96c-6.41-2.92-10.12-6.94-9.55-14.9c1.03-14.56,1.19-29.19,2.96-43.71c0.3-2.49,0.06-4.99,0.28-7.47
		c0.41-4.53,2.12-5.26,6.3-2.71c7.37,4.51,14.47,9.46,21.85,13.96c2.41,1.47,4.98,2.63,6.94,3.86c-10.08-7.32-19.36-16.42-29.4-24.6
		c-1.18-0.96-2.18-2.06-2.4-3.66c0-4.04,1.83-8.03,0.4-12.13c-0.6-1.71-1.3-3.36-2.68-4.63c-2.38-2.99-6.01-4.21-8.96-6.39
		c2.98,2.26,6.69,3.52,9.06,6.62c0.95,1.19,2.05,2.56,0.94,3.99c-1.21,1.55-3.01,0.96-4.61,0.37c-8.1-2.97-16.18-3.02-24.25,0.11
		c-2.23,0.86-4.49,1.85-5.29-1.85c0.17,2.06-0.69,4.04,0.25,5.99c9.07-7.2,18.99-6.64,29.04-3.09c4.91,1.74,6.32,4.91,5.27,9.62
		c-1.53,0.99-2.95,0.31-4.38-0.27c-5.03-4.38-10.82-3.61-16.4-1.88c-10.26,3.2-20.13,7.44-29.54,12.68
		c-2.94,1.67-6.08,3.1-7.53,6.51c-1.95,1.92-4.34,3.01-6.89,3.84c12.15-3.25,24.7-5.04,36.37-10.09c3.82-1.65,7.96-2.38,11.95-3.51
		c3.69-1.04,4.73,0.18,4.76,3.94c0.12,18.28-3.24,36.36-3.19,54.64c0.01,3.81-1.87,6.16-5.38,7.52c-3.45,1.33-7.11,1.65-10.65,2.53
		c-13.22,3.27-26.3,7.06-39.28,11.16c-5.78,0.98-6.94,0.07-6.5-5.75c1.11-14.73,2.54-29.43,4.48-44.08c0.27-2.05,1.16-4.2-0.67-6.5
		c-2.7,1.81-3.26,4.56-3.21,7.3c0.16,8.64-1.48,17.14-1.97,25.74c-0.77,13.23-1.52,26.49-2.42,39.72
		c-0.78,11.44-2.83,22.72-3.39,34.16c-0.5,2.73-2.39,4.13-4.75,5.33c-11.87,6.03-21.75,14.6-30.48,24.52
		c-3.96,4.5-8.3,8.63-12.13,13.24c-12.02,14.45-23.8,29.07-34.43,44.6c-2.24,3.27-1.96,4.86,1.44,7.01
		c10.77,6.79,16.91,16.66,18.38,29.39c0.18,1.54-0.35,3.38,1.6,4.69c3.59-3.49,5.85-7.95,8.59-12.01
		c12.46-18.48,25.19-36.76,39.88-53.55c6.44-7.36,12.62-15.06,20.68-20.84c8.05-5.78,16.64-4.85,25.04-1.28
		c9.01,3.84,13.98,11.87,19.16,19.69c6.63,10.01,10.95,21.27,17.51,31.33c8.89,13.63,19.55,25.57,32.32,35.65
		c7.72,6.1,15.76,11.77,24.77,15.7c17.56,7.66,35.43,13.82,55.05,14.32c10.92,0.28,21.55-0.35,32.1-2.67
		c16.98-3.73,32.52-10.65,45.79-22.07c7.73-6.65,13.5-14.93,18.31-23.78c-17.4,16.2-38.02,26.85-61.57,28.72
		c-19.55,1.55-39.68,1.74-58.26-7.29c-0.75-0.36-1.56-0.61-2.19-1.17c-0.74-0.65-1.61-1.34-1.13-2.47c0.37-0.88,1.32-0.98,2.14-0.93
		c2.49,0.17,4.95,0.6,7.41,1.05c18.73,3.47,37.28,1.8,55.09-4.2c24.3-8.18,44.44-23.1,61.26-42.3
		c11.82-13.5,22.03-28.39,34.52-41.31c7.13-7.38,14.47-14.85,23.95-19.28c15.45-7.22,30.19-5.23,43.49,5.24
		c11.9,9.37,22.37,20.26,32.58,31.48c8.02,8.81,16.51,17.32,26.62,23.95c4.58,3,8.55,6.84,13.13,9.9c2.36,1.57,3.41,1.59,4.05-1.3
		c1.78-8.03,6.82-13.94,12.75-19.22C782.72,650.66,784.23,648.84,786.77,649.85z"/>
	<path class="st3" d="M684.57,560.93c1.29,3.63,4.95,3.52,7.69,4.54c7.04,2.62,12.23,8.59,19.6,10.51c1.78,1.35,3.2,3.06,4.68,4.71
		c3.43,4.27,6.66,8.78,12.4,10.25c2.61,0.69,3.27,3.75,5.69,4.66c1.81,6.88,7.83,10.5,12.32,15.1
		c10.86,11.14,22.65,21.32,35.12,30.67c2.35,1.77,4.96,3.2,7.44,4.79c1.3,2.89-2.27,2.13-2.75,3.68
		c-10.83,5.69-16.12,15.26-18.47,27.33c-11.72-9.16-23.47-17.26-33.98-27.16c-12.31-11.6-22.85-24.93-35.88-35.79
		c-5.98-4.98-11.87-10.3-19.15-13c-10.78-3.99-21.74-3.26-31.71,2.73c-14.64,8.79-25.76,21.36-36.2,34.67
		c-8.43,10.75-16.69,21.76-26.24,31.47c-10.22,10.39-21.62,19.78-34.65,26.66c-12.11,6.39-24.83,10.98-38.46,13.56
		c-15.17,2.87-29.94,1.34-44.84-0.96c-0.78-0.12-1.56-0.21-3.76-0.49c22.38,11.41,44.9,12.28,67.56,9.05
		c22.69-3.23,41.77-14.61,58.7-29.86c-6.97,16.46-18.3,29.34-33.58,37.88c-14.22,7.96-29.72,12.87-46.23,14.64
		c-16.56,1.78-32.86,0.38-48.58-4.1c-21.71-6.18-41.44-16.54-58.27-32.15c-11.15-10.34-20.7-21.87-28.49-34.76
		c-3.82-6.31-6.57-13.31-10.34-19.72c-4.55-7.73-8.92-15.65-15.81-21.62c-4.79-4.15-10.3-6.49-16.94-6.55
		c-7.37-0.06-13.19,2.2-18.4,7.53c-11.18,11.44-21.36,23.57-30.93,36.43c-11.03,14.81-22.01,29.6-31.67,45.33
		c-0.64,1.05-1.29,2.74-2.82,2.36c-1.54-0.38-2.12-1.89-2.25-3.52c-0.23-2.98-0.27-6.02-0.92-8.91c-2.38-10.67-8.5-18.7-18.06-23.91
		c-3.25-1.77-4.41-2.76-1.82-6.58c15.09-22.26,32.01-43.08,50.34-62.67c8.26-8.83,17.55-16.98,29.04-21.78
		c1.72-0.72,2.51-2.07,3.63-3.24c1.25-1.47,2.47-2.98,4.75-2.36c3.9,0.56,7.36-0.66,10.61-2.68c0.71-0.49,1.49-0.76,2.35-0.8
		c1.03-0.08,2.04-0.31,3.05-0.54c0.65-0.08,1.25,0.03,1.73,0.53c4.24,2.35,9.13,1.39,13.68,2.64c4.15,1.14,6.58,5.57,11.25,5.07
		c1.56,0.62,2.65,1.87,3.88,2.92c14.71,15.16,24.91,33.43,35.75,51.3c4.9,8.08,9.63,16.3,15.3,23.9c0.81,1.13,2.04,1.89,2.79,3.07
		c6.82,10.18,14.92,19.16,24.88,26.38c1.27,1.15,2.46,2.41,3.94,3.32c11.08,4.47,22.22,4.08,33.42,0.52
		c7.84-0.18,15.32-2.39,22.87-4.14c9.36-4.29,19.03-8.04,26.72-15.28c0.58-0.44,1.24-0.71,1.93-0.91c4.05-1.4,7.21-3.99,9.84-7.31
		c0.67-1.03,1.42-1.96,2.61-2.42c2.53-0.6,4.43-2.26,6.28-3.92c15.21-13.68,29.27-28.42,42.28-44.23
		c10.22-12.42,19.78-25.38,31.06-36.95c9.78-10.04,21.23-16.99,34.53-20.9c8.76-2.58,17.78-1.31,26.72-0.96
		C681.48,559.4,683.23,559.66,684.57,560.93z"/>
	<path class="st1" d="M493.91,274.4c-11.29,2.44-23.94,2.92-36.16,6.36c-5.02,1.41-10.34,1.85-15.42,3.35
		c-10.86,3.21-21.46,7.16-31.95,11.36c-18.28,7.32-34.62,18.19-50.83,29.12c-6.32,4.26-11.25,10.58-17.53,14.94
		c-9.01,6.24-15.2,15.14-22.85,22.62c-5.86,5.73-10.57,12.68-15.5,19.3c-9.4,12.62-17.28,26.23-24.42,40.19
		c-4.42,8.64-7.61,17.96-10.81,27.16c-1.16,3.34-1.75,3.31-3.96,1.11c-5.22-5.23-11.69-8.24-18.86-9.5
		c-2.82-0.5-3.33-1.41-2.35-3.85c2.76-6.85,4.99-13.96,8.3-20.53c3.95-7.83,6.83-16.19,11.57-23.63
		c4.14-6.51,8.08-13.14,12.33-19.57c5.07-7.67,11.17-14.6,16.4-22.19c3.22-4.68,7.52-8.76,11.53-12.85
		c9.06-9.26,18.26-18.4,28.43-26.55c11.68-9.36,23.58-18.26,36.54-25.84c14-8.2,28.51-15.2,43.61-21.03
		c9.81-3.79,20.07-6.08,30.11-9.13c8.97-2.72,18.16-4.31,27.27-6.31c4.01-0.88,8.21-0.69,12.32-1.22c4.23-0.54,8.54-0.54,12.78-1.36
		c3.5-0.68,5.29,0.37,4.24,4.56c-1.61,6.45-1.08,12.97,1.44,19.1c1.57,3.83,0.98,5.15-3.19,4.41
		C496.32,274.3,495.64,274.4,493.91,274.4z"/>
	<path class="st4" d="M631.93,453.58c4.48-1.54,8.98-3.01,13.43-4.64c2.23-0.82,3.17-2.49,3.17-5.01
		c0.01-28.08,0.08-56.15,0.23-84.23c0.02-3.59-1.41-4.5-4.57-3.34c-10.14,3.72-20.52,6.6-30.99,9.29
		c-10.2,2.62-20.19,6.08-30.38,8.76c-11.95,3.14-24.01,5.84-36.74,8.91c2.13-2.76,4.7-3.83,6.93-4.54
		c7.75-2.46,14.74-6.67,22.44-9.16c3.53-1.14,6.43-3.32,9.41-5.41c3.65-0.7,6.93-2.37,10.24-3.96
		c15.01-5.36,30.09-10.53,45.31-15.28c3.49-1.09,6.78-2.73,10.33-3.65c1.73-0.45,2.88-1.61,3.03-3.53c0.19-0.76,0.48-1.45,1.25-1.8
		c2.24,1.11,4.49,2.21,6.73,3.32c1.62,2,3.24,3.99,6.23,3.62c0.66,0.74,1.31,1.47,1.97,2.21c0.36,1.01,1.11,1.7,2.07,2.02
		c3.11,1.03,3.62,3.08,2.47,5.86c-0.83,2.01-2.12,3.54-4.5,3.02c-3.32-0.72-3.27-3.24-2.81-5.88c0.09-0.5-0.05-0.99-0.33-1.53
		c-0.71,3.25,1.12,6.29,0.48,9.46c-0.04,30.3,0.1,60.59-0.05,90.88c-0.24,3.19,0.67,6.56-1.41,9.47c-0.07,26.9-0.28,53.8-0.07,80.69
		c0.04,5.23-1.66,6.79-6.66,7.26c-14.38,1.35-11.66,2.37-11.78-10.81c-0.23-24.56,0.22-49.13,0.32-73.7
		c0.01-2.35,0.99-5.87-3.71-4.64c-2.6-0.41-5.08,1.54-7.65,0.56C634.33,457.03,632.43,455.97,631.93,453.58z"/>
	<path class="st3" d="M384.03,232.59c3.17,7.97,6.28,15.97,9.53,23.91c1.61,3.94,0.89,6.24-3.48,7.83
		c-10.58,3.86-10.28,3.97-14.02-6.92c-2.47-7.2-5.82-14.09-8.58-21.2c-3.35-8.63-6.5-17.33-9.74-26c-1.42-3.8-0.59-6.1,3.63-7.56
		c4.36-1.51,8.61-3.49,12.87-5.3c3.42-1.45,5.62-0.39,7.34,1.92c4.12,5.56,8.7,10.86,11.63,17.19c0.88,1.9,2.57,2.36,4.46,4.38
		c-0.27-8.52-1.56-16.08-2.78-23.62c-1.2-7.41-0.61-8.44,6.43-10.89c3.74-1.3,7.3-3.1,10.98-4.57c3.67-1.46,6.09,0,7.44,3.51
		c5.62,14.67,11.18,29.37,16.85,44.03c1.31,3.38,3.24,6.49,4.31,10.02c0.79,2.62,0.08,4.16-2.35,5.1c-0.15,0.06-0.3,0.15-0.46,0.2
		c-11.9,4.42-10.2,6.71-15.56-5.85c-3.4-7.98-5.2-16.65-10.41-24.68c0.35,11.18,1.89,21.47,3.58,31.76
		c1.27,7.69,0.02,9.34-7.43,10.84c-2.04,0.41-3.16-0.09-4.54-1.85c-6.46-8.3-11.26-17.8-18.43-25.58c-1.03-0.65-1.91-1.43-2.13-2.11
		C384.69,228.37,383.01,230.71,384.03,232.59z"/>
	<path class="st3" d="M467.55,168.19c9.15-0.08,16.5,5.89,18.42,15.46c2.38,11.83,4.85,23.66,6.15,35.69
		c0.37,3.41,2.3,6.59,1.89,10.2c-0.09,0.79,0.47,1.97,0.09,2.37c-3.57,3.77-8.53,2.74-12.95,3.33c-3.12,0.42-3.47-2.42-3.87-4.74
		c-1.5-8.61-2.83-9.17-11.46-5.98c-2.65,0.98-3.14,2.15-2.77,4.73c1.39,9.73,1.31,9.74-8.46,11.6c-5.64,1.08-6.63,0.37-7.59-5.3
		c-2.34-13.89-4.84-27.75-7.01-41.66c-2.01-12.89,3.21-20.69,15.74-24.07C459.59,168.78,463.54,168.19,467.55,168.19z"/>
	<path class="st5" d="M575.87,324.38c-8.94-4.16-17.89-8.43-27.71-9.93c-16.41-2.51-32.66-2.2-48.61,3.35
		c-24.18,8.42-41.15,24.77-52.34,47.36c-9.37,18.93-12.27,38.7-7.95,59.7c1.59,7.71,3.89,15.12,6.87,23.4
		c-3.95-1.98-4.4-5.28-5.61-7.62c-3.63-7.03-7.3-14.18-9.17-21.93c-3.5-14.48-4.2-29.09-0.84-43.75
		c3.55-15.51,10.03-29.37,20.5-41.66c8.18-9.6,17.8-16.54,28.9-22.24c16.59-8.52,34-11.16,52.31-9.59
		c5.69,0.49,10.88,2.76,16.22,4.49c10.41,3.39,20.39,7.59,28.44,15.36c1,0.68,1.91,1.5,1.13,2.8
		C577.54,324.91,576.66,324.89,575.87,324.38z"/>
	<path class="st3" d="M226.38,325.78c6.04,0.71,11.06,3.34,15.84,7.14c5.25,4.18,11.12,7.59,16.76,11.27
		c5.18,3.39,10.5,6.58,15.58,10.1c1.44,1,2.04,2.84,1.16,4.85c-1.49,3.41-4.07,6.12-6.56,8.58c-2.36,2.33-5.51-0.19-7.16-1.94
		c-3.54-3.74-5.81-3.19-8.44,0.8c-1.09,1.65-2.24,3.25-3.22,4.98c-1.22,2.18-0.73,4.16,1.43,4.87c2.54,0.85,3.53,3.38,5.92,4.39
		c1.44,0.61,2.49,3.17,1.18,4.22c-2.83,2.26-3.34,6.08-6.29,8.16c-1.64,1.15-2.96,1.85-4.87,0.59c-9.9-6.51-19.42-13.56-29.51-19.83
		c-5.26-3.27-10.96-6.59-14.25-12.79c-4.74-8.95-1.43-16.41,3.33-23.56c2.97-4.45,6.61-8.57,11.95-10.68
		C221.59,326,223.89,325.52,226.38,325.78z"/>
	<path class="st3" d="M368.27,268.5c-0.23,3.77-2.11,7.03-4.13,9.92c-5.19,7.44-16.64,15.1-26.67,12.68
		c-5.47-1.32-9.71-4.48-12.73-8.88c-5.67-8.24-11.73-16.38-16.04-25.33c-5.57-11.57-5.43-18.69,7.61-28.7
		c8.31-6.39,17.29-8.52,27.14-2.46c3.22,1.98,4.91,4.82,6.69,7.64c5.61,8.88,12.95,16.7,16.57,26.81
		C367.68,262.85,368.25,265.6,368.27,268.5z"/>
	<path class="st6" d="M358.06,587.66c-1.6-0.44-2.92-1.17-3.07-3.06c8.17-11.4,14.02-23.85,16.7-37.66
		c0.44-2.29,1.55-2.86,3.65-3.09c13.64-1.47,26.13-5.88,36.84-14.73c1.45-3.16,3.87-5.38,6.85-7.06c9.99-7.98,13.92-19.45,17.53-31
		c1.22-3.92,3.4-5.14,7.27-5.95c11.12-2.34,22.09-5.37,33.13-8.13c7.21-3.15,14.58-5.67,22.61-5.41c1.13,0.04,2.29,0.31,3.34-0.37
		c4.5-1.03,9.01-2.01,13.49-3.11c1.81-0.45,2.68,0.22,3.44,1.83c1.62,3.44,3.28,6.89,5.21,10.16c12.72,21.57,39.55,28.36,62.1,16.79
		c3.73-1.91,4.5-1.82,5.08,2.74c4.23,33.66,33.48,58.39,67.92,51.09c7.84-1.66,15.4-3.88,22-8.57c2.86-2.03,2.94-0.27,2.88,1.9
		c-0.15,5.64-0.3,11.28-0.45,16.92c-1.7,0.07-3.44,0.26-4.79-1.14c-0.48-0.48-0.88-1-1.03-1.67c-1.34-5.79-1.25-5.52-6.73-3.71
		c-23.64,7.82-45.71,5.31-65.06-11.2c-9.45-8.06-15.13-18.88-19.21-30.48c-2.36-6.71-2.28-7.09-9.3-4.9
		c-23.22,7.25-46.92-4.75-57.59-20.69c-1.21-1.8-2.34-3.62-3.3-5.57c-2.41-4.92-3.92-5.87-9.01-4.66
		c-20.38,4.85-40.71,9.89-61.15,14.49c-2.87,0.65-3.94,2.67-4.92,5.08c-3.25,8.02-6.62,15.92-11.9,22.96
		c-11.49,15.29-26.29,25.39-45.13,28.78c-6.01,1.08-8.92,3.67-10.32,9.41c-2.31,9.48-7.13,17.88-12.34,26.05
		C361.62,585.46,360.65,587.53,358.06,587.66z"/>
	<path class="st7" d="M665.87,458.42c-0.04-3.11-0.07-6.22-0.11-9.33c5.3,0.4,9.72,3.26,14.04,5.78
		c13.08,7.65,26.92,13.87,39.96,21.57c3.71,2.19,4.69,1.67,4.5-2.76c-0.96-22.58-1.02-45.2-1.47-67.79
		c-0.19-9.43-3.78-14-11.36-18.55c-13.81-8.29-27.33-17.13-40.52-26.43c-1.69-1.19-4.03-1.89-4.23-4.51
		c-1.11-2.77-0.28-5.97-1.92-8.6c-0.54-0.87-0.53-1.57,0.39-2.05c0.92-0.49,1.66,0.06,2.1,0.77c0.86,1.4,1.87,2.8,1.05,4.62
		c-0.81,1.81-0.53,3.32,1.57,3.93c2.14,0.62,3.12-0.83,3.6-2.51c0.45-1.57,1.82-3.55-1.23-4.31c-1.46-0.37-3.28-0.84-2.28-3.15
		c7.7,3.01,13.64,8.65,19.82,13.79c15.62,12.99,31.01,26.27,46.48,39.44c0.75,0.64,1.37,1.42,2.09,2.18
		c-0.35,0.18-0.62,0.44-0.81,0.4c-2.36-0.59-4.15-4.12-6.53-2.64c-2.47,1.53-0.99,4.88-0.94,7.4c0.57,25.24,1.56,50.47,1.81,75.73
		c0.26,26.78,1.51,53.55,2.22,80.33c0.3,11.29,0.36,22.58,0.53,33.87c-3.95,0.95-3.99-2.87-5.69-4.67
		c-0.7-16.07-0.52-32.15-1.21-48.23c-0.79-18.4-0.33-36.84-1.41-55.24c-0.17-2.87-1.19-4.17-3.5-5.15
		c-15.96-6.77-31.9-13.59-47.88-20.32C671.94,460.75,669.52,457.99,665.87,458.42z"/>
	<path class="st8" d="M388.35,443.13c1.21,0.27,2.41,0.54,3.62,0.82c1.23-0.52,1.61,0.43,2.1,1.21c0.09,1.48,1.15,2,2.21,2.89
		c10.72,9.03,21.28,18.24,31.87,27.42c0.3,0.26,0.38,0.77,0.79,1.64c-8.71-3.39-15.85-8.59-23.24-13.33
		c-3.76-2.4-7.38-5.02-11.12-7.46c-3.58-2.35-3.48,0.89-3.59,2.73c-0.42,7.29-0.75,14.57-1.45,21.85
		c-1.08,11.23-1.18,22.55-1.74,33.84c-0.11,2.17,0.68,3.44,2.51,4.87c4.46,3.49,10.18,4.87,14.37,9.23
		c-1.89,2.04-3.97,2.95-6.76,1.46c-1.31-0.71-2.75-1.17-4.09-1.83c-6.68-3.27-6.67-3.28-6.92,4.18c-0.16,4.75-7.69,8.85-11.94,6.52
		c-1.39-0.76-1-2-0.92-3.06c0.22-2.81,0.54-5.61,0.96-8.39c0.5-3.28-0.4-4.68-4-3.82c-8.12,1.95-16.25,3.93-24.45,5.47
		c-7.71,1.45-15.51,2.36-23.27,3.51c-1.16-0.6-2.1-1.28-0.98-2.7c10.89-4.73,22.58-6.81,33.91-10.06
		c5.34-1.53,10.81-2.59,16.21-3.92c2.61-0.64,3.78-2.36,3.75-5.09c-0.17-17.41,3.17-34.65,2.56-52.08
		c-0.08-2.33,2.81-5.14,0.15-6.71c-2.06-1.22-4.63,1.16-6.93,1.95c-14.53,4.97-29.32,8.97-44.28,12.37
		c-1.76,0.4-3.47,1.07-5.72,0.28c3.88-3.17,8.97-3.55,12.47-6.74c2-2.59,5.31-2.61,7.9-4.06c11.77-5.06,23.73-9.51,36.36-11.93
		c1.67,0.31,3.31,1.23,4.83-0.61C384.85,441.89,386.65,442.4,388.35,443.13z"/>
	<path class="st3" d="M331.72,300.3c0.34,1.65-1.05,2-1.85,2.72c-9.1,8.28-18.29,16.46-27.28,24.86c-2.11,1.97-3.36,1.53-4.84-0.35
		c-9.47-12.06-21.02-22.29-30.31-34.53c-2.63-3.47-6.35-6.07-8.87-9.79c-1.46-2.16-1.51-3.53,0.07-5.68
		c1.94-2.65,4.7-4.14,7.02-6.23c1.82-1.64,3.21-0.33,4.29,0.79c4.56,4.74,8.99,9.6,13.44,14.45c5.2,5.67,10.27,11.46,15.55,17.05
		c2.94,3.11,5.71,0.97,7.7-1.21c3.7-4.05,8.02-7.36,12.06-11c1.2-1.08,2.3-1.91,3.92-1.58C324.61,290.2,331.63,298.44,331.72,300.3z
		"/>
	<path class="st3" d="M229.46,437.46c-4.82-0.03-8.7-3.3-12.99-5.09c-14.36-6.02-28.35-12.94-42.43-19.62
		c-2.06-0.98-3.22-2.53-1.87-5.24c6.65-13.38,3.74-12.13,15.87-6.27c10.01,4.83,20,9.64,30.4,13.59c3.69,1.4,5.81,1.79,7.44-2.86
		c1.91-5.43,5.16-10.36,7.19-15.83c1.16-3.13,3.37-4.39,6.55-2.12c0.67,0.48,1.5,0.71,2.24,1.09c9.83,5.05,8.3,2.99,3.76,12.43
		c-4.03,8.38-8.06,16.71-11.06,25.52C233.78,435.34,233.13,438.06,229.46,437.46z"/>
	<path class="st9" d="M273.5,463.28c-1.71-3.87-1.05-5.9-0.34-7.97c7.02-20.45,16.26-39.73,28-57.99
		c9.59-14.9,20.5-28.65,32.94-41.03c18.1-18.01,38.21-33.42,61.06-45.39c13.2-6.92,26.76-12.79,40.61-17.98
		c10.45-3.91,21.5-6.03,32.57-7.98c10.47-1.85,21-2.22,31.5-3.16c2.98-0.27,6.25-1.14,9.74,2.94
		c-54.49,2.96-103.88,17.44-146.92,50.6C319.81,368.34,290.62,410.72,273.5,463.28z"/>
	<path class="st10" d="M563.06,479.26c-0.28,4.29-0.51,8.59-0.87,12.88c-0.16,1.86,1.34,4.88-2.36,4.77
		c-3.06-0.09-6.08-0.64-5.86-4.98c0.19-3.81,0.04-7.63,0.13-11.44c0.45-18.58,1.03-37.16,1.35-55.74
		c0.18-10.45-0.54-20.9,0.44-31.34c0.37-3.9,4.32-6.85,7.86-5.71c1.79,0.58,1.01,2.2,0.98,3.36c-0.4,15.6-0.93,31.19-1.28,46.78
		c-0.3,13.23-1.9,26.45-0.67,39.7C562.87,478.11,562.84,478.71,563.06,479.26z"/>
	<path class="st11" d="M635.78,415.6c0,5.98-0.05,11.97,0.02,17.95c0.02,1.99-0.15,3.44-2.48,4.15
		c-16.66,5.05-33.3,10.18-49.91,15.39c-3.44,1.08-4.93,0.96-4.74-3.47c0.39-9.13,0.42-18.3-0.01-27.42
		c-0.73-15.39,6.38-27.06,16.97-37.06c3.98-3.76,7.51-8.11,13.67-9.24c15.12-2.78,25.86,10.47,26.43,21.76
		C636.03,403.62,635.78,409.61,635.78,415.6z"/>
	<path class="st12" d="M322.29,530.16c0.33,0.9,0.65,1.8,0.98,2.7c-5.29,0.44-7.12,3-7.39,8.58c-0.63,13.01-2.3,25.97-3.54,38.94
		c-1.78,0.39-2.7,2.51-4.75,2.36c-0.22-5.82,0.34-11.6,1.08-17.36c2.21-17.31,2.93-34.73,3.89-52.14
		c0.61-11.06,1.44-22.12,2.29-33.16c0.13-1.76,0.76-3.51,1.36-5.19c0.7-1.97,2.62-2.8,4.34-2.66c2.05,0.16,1.56,2.27,1.45,3.63
		c-0.55,6.6-1.22,13.2-1.87,19.8c-1.05,10.7-2.14,21.39-3.18,32.09C316.38,533.65,320.54,529.26,322.29,530.16z"/>
	<path class="st13" d="M419.02,522.05c-2.28,2.35-4.57,4.71-6.85,7.06c0.33-3.67-0.08-6.81-4.65-7.54c-0.97-0.16-1.31-1.35-1.4-2.37
		c1.9-1.02,3.29,0.88,5.05,0.89c-3.54-1.48-6.52-3.82-9.71-5.83c-1.71-1.08-3.29-2.64-3.19-4.8c0.44-9.11,0.26-18.25,1.51-27.31
		c0.07-0.48,0.41-0.91,0.65-1.35c2.24-3.81,5.02-4.6,8.49-1.53c4.77,5.36,6.11,11.97,6.42,18.8c0.24,5.24-0.44,10.49-0.25,15.14
		c0.36-0.84-0.34-2.55,0.61-3.93c1.01-0.92,1.8-0.32,2.58,0.36c1.14,2.41-0.31,5.11,0.84,7.52c-0.03,1.13-0.94,1.66-1.55,2.42
		C415.96,521.56,417.03,522.11,419.02,522.05z"/>
	<path class="st14" d="M476.98,475.17c-2.17-2.29,0.18-6.62-3.8-8.25c-0.62-0.25,0.05-1.89,1.13-2.27c0.6-0.21,1.31-0.08,1.97-0.14
		c3.05-0.27,7.04,2.13,8.89-0.53c1.38-1.98,0.15-5.76,0.11-8.73c-0.03-2.16-0.13-4.33,0.01-6.49c0.26-3.85-0.32-6.69-5.29-5.92
		c-1.92,0.3-2.61-1.19-2.71-2.81c-0.11-1.86,1.18-2.03,2.66-2.06c4.34-0.07,5.68-2.62,5.33-6.58c-0.12-1.32-0.04-2.66,0.07-3.99
		c0.2-2.27,2-2.31,3.67-2.5c2.08-0.24,1.91,1.38,2.15,2.61c0.16,0.81,0.35,1.67,0.23,2.47c-0.72,4.74,0.1,7.99,6.06,6.97
		c1.99-0.34,2.7,1.01,2.42,2.78c-0.28,1.79-1.34,3.45-3.26,2.86c-5.27-1.61-5.42,1.29-5.25,5.18c0.2,4.64,0.37,9.33-0.13,13.92
		c-0.35,3.25,0.43,4.27,3.56,3.84c3.54-0.49,4.94,1.11,4.21,4.59c-2.88,3.13-7.08,2.27-10.61,3.26
		C484.77,474.42,481.03,476.22,476.98,475.17z"/>
	<path class="st15" d="M716.53,580.69c-2.98-0.16-3.89-2.38-4.68-4.71c2.46-1.64,1.61-4.25,1.62-6.41
		c0.07-12.8,0.02-25.6-0.14-38.39c-0.15-12.21-4.55-22.95-11.85-32.59c-2.13-2.8-4.71-4.81-8.49-3.45c-4.61,1.65-8.06,4.57-9.2,9.55
		c-1.99,8.68-0.76,17.53-1.22,26.29c-0.07,1.33,0.02,2.66,0.01,3.99c-0.01,1.5,0.11,3.51-1.77,3.55c-2.19,0.04-1.52-2.26-1.52-3.48
		c0.07-9.78-0.23-19.62,0.71-29.32c0.46-4.74,2.9-9.34,7.86-12.04c7.03-3.82,11.75-3.1,16.64,3.12
		c8.44,10.73,12.34,22.98,12.3,36.54C716.74,549.12,716.62,564.91,716.53,580.69z"/>
	<path class="st16" d="M563.06,479.26c-1.03-0.42-0.64-1.07-0.28-1.72c9.36-3.2,18.74-6.37,28.08-9.62
		c13.7-4.75,27.38-9.56,41.06-14.35c3.14,4.09,7.88,2.9,12.03,3.65c-14.3,5.29-29.13,8.82-43.76,12.99
		C587.94,473.71,575.62,476.98,563.06,479.26z"/>
	<path class="st17" d="M328.39,511.59c0.42-6.8,0.09-13.76,1.44-20.37c1.81-8.82,7.37-15.63,14.46-21.22
		c5.67-4.46,11.41-5.68,17.84-1.67c6.12,3.81,7.87,9.56,7.31,16.26c-0.56,6.62-1.2,13.23-0.96,19.88c0.12,3.53-1.39,5.08-5.08,5.86
		c-10.19,2.14-20.34,4.58-30.33,7.52c-4.9,1.44-5.48-0.24-4.76-4.26c0.12-0.65,0.08-1.33,0.11-1.99
		C328.41,511.59,328.4,511.59,328.39,511.59z"/>
	<path class="st18" d="M668,342.91c-4.04,2.17-5.15-0.7-6.23-3.62c1.6,0.79,3.19,1.59,4.78,2.38c0.29-9.37-4.3-14.86-13.44-16.38
		c-7.82-1.29-15.62-0.7-23.31,0.53c-6.05,0.97-11.52,3.49-13.07,10.52c-0.2,0.92-0.91,1.73-1.42,2.66
		c-4.39-5.69-4.13-12.43,0.57-18.64c0.9-0.17,1.38,0.09,1.08,1.1c-1.03,2.06-1.77,4.17-1.54,6.43c1.42,0.55,2.13-0.33,2.88-0.87
		c6-4.28,12.71-6.09,20.03-5.97c4.46,0.07,8.93,0.08,13.39,0.01c4.02-0.06,7.31,1.63,10.5,3.83c0.84,0.58,2.1,1.6,3.13,0.77
		c1.41-1.14,0.14-2.53-0.43-3.55c-2.39-4.25-6.37-6.85-10.3-9.48c-0.34-1.16,0.14-1.63,1.3-1.52
		C670.28,318.96,673.02,326.18,668,342.91z"/>
	<path class="st19" d="M593.08,487.83c2.4-1.68,4.31-3.25,6.43-4.46c13.53-7.73,32.01,1.24,34.24,16.81
		c1.94,13.54,0.48,27.19,0.62,40.79c0.01,1.13,0.43,3.12-1.59,2.92c-1.84-0.18-1.92-1.92-1.89-3.5c0.17-7.3,0.38-14.6,0.42-21.9
		c0.03-6.13,0.15-12.26-1.45-18.29c-3.44-13.03-17.63-19.73-29.75-13.98C598.07,487.19,596.08,488.64,593.08,487.83z"/>
	<path class="st20" d="M401.15,481.08c-0.61,9.42-1.21,18.84-1.84,28.25c-0.15,2.24,1.38,3.23,3,4.15
		c3.73,2.13,7.47,4.24,11.22,6.33c0.75,0.42,1.6,0.8,1.26,1.8c-0.44,1.32-1.52,1.04-2.45,0.61c-2.09-0.97-4.15-2.02-6.22-3.03
		c-0.42-0.51-0.74-1.33-1.26-1.47c-7.43-2.02-8.66-7.15-7.86-14.02c0.85-7.24,0.79-14.58,1.26-21.86c0.29-4.51,4.01-9.08,7.92-9.8
		c4.52-0.83,6.91,2.07,9.21,5.35c8.12,11.6,6.67,24.58,5.5,37.51c-0.07,0.8-1.16,1.51-1.78,2.26c-4.97-1.74,0.09-4.8-0.94-7.07
		c-1.36-4.03-0.12-8.12-0.28-12.19c-0.25-6.28-1.83-12.04-5.31-17.27C408.65,474.68,405.09,474.82,401.15,481.08z"/>
	<path class="st21" d="M640.06,280.49c0-4.15-0.02-8.3,0.01-12.46c0.02-2.52-0.91-3.24-3.37-2.28c-3.97,1.55-8.04,2.86-12.06,4.31
		c-1.17,0.42-2.65,1.82-3.41,0.13c-0.75-1.67,1.39-2.03,2.39-2.5c4.02-1.84,8.09-3.6,12.25-5.08c3.72-1.32,5.03-3.52,4.47-7.5
		c-0.47-3.4-0.11-6.92-0.05-10.38c0.02-1.18-0.84-3.03,1.28-3.11c2.48-0.1,1.62,2.14,1.71,3.36c0.23,3.46,0.36,6.95,0.14,10.4
		c-0.23,3.57,1.3,4.04,4.15,2.96c3.86-1.46,7.72-2.95,11.59-4.39c0.86-0.32,1.99-1.23,2.64-0.11c0.81,1.39-0.56,2.18-1.56,2.59
		c-3.96,1.62-7.94,3.27-12.01,4.56c-3.64,1.16-5.34,3.06-5.18,7.15c0.31,8.13,0.16,16.27,0.13,24.41c-0.01,1.37,0.55,3.61-1.53,3.54
		c-1.9-0.06-1.45-2.26-1.47-3.67c-0.05-3.98-0.02-7.96-0.02-11.94C640.14,280.49,640.1,280.49,640.06,280.49z"/>
	<path class="st22" d="M325.34,577.51c-0.8,0.07-1.6,0.13-2.41,0.19c0.67-8.36-0.58-17.02,4.06-24.74
		c4.38-7.28,9.68-13.6,18.5-15.27c10.22-1.93,19.35,6.18,18.74,16.48c-0.22,3.65,0.15,7.57-2.67,11.82
		c-0.58-5.34,0.81-9.73-0.3-14.01c-0.58-0.62-0.88-1.41-1.26-2.14c-5.84-11.13-14.62-10.53-22.87-3.37
		c-6.19,5.38-9.77,12.02-9.64,20.47C327.55,570.58,327.25,574.24,325.34,577.51z"/>
	<path class="st23" d="M394.06,445.15c-0.7-0.4-1.4-0.8-2.1-1.21c0.78-4.71-2.21-6.88-5.84-8.5c-6.53-2.91-13.3-1.63-20.03-0.98
		c-4.17,0.41-5.96,3.65-7.87,6.82c-3.41-4.9-2.73-9.17,2.34-13.53c0.15,2.27-2.22,3.51-1.43,6.17c6.4-4.07,13.44-3.59,20.5-3.41
		c2.89,0.07,5.54,0.22,8.02,1.83c1.08,0.7,2.61,1.71,3.58,0.49c0.94-1.2-0.67-2.33-1.22-3.48c-0.21-1.08,0.23-1.52,1.31-1.32
		C397.03,432.97,396.05,438.98,394.06,445.15z"/>
	<path class="st24" d="M655.03,335.98c-0.15,0.83-0.3,1.66-0.45,2.49c-18.66,0.99-34.83,9.17-50.87,17.7
		c-3.36,1.78-6.71,3.54-10.38,4.63c-0.84-0.08-1.48-0.38-1.51-1.36c16.3-11.91,34.74-19.15,53.93-24.75
		C649.05,333.73,652.23,333.46,655.03,335.98z"/>
	<path class="st25" d="M325.34,577.51c1.14-7.49-0.18-15.31,3.44-22.47c3.38-6.68,8.62-11.36,15.19-14.51
		c6.69-3.2,17.59,3.58,17.29,11.46c-2.01-1.81-4.54-3.06-6.04-5.44c-3.87-5.12-12.88-1.94-17.23,1.86
		c-6.83,5.96-8.48,13.83-8.77,22.32c-0.07,2.1,0.57,4.33-0.9,6.23C327.54,578.26,326.5,578.16,325.34,577.51z"/>
	<path class="st26" d="M388.35,443.13c-1.54,0.16-3.5-0.59-4.28,1.41c-1.46,3.73-3.38,1.45-5.22,0.54
		c-3.93-1.94-7.06,1.13-10.54,1.83c-9.05,1.82-17.26,6.33-26.16,8.75c-0.75-0.27-1.3-0.67-1.03-1.59
		c12.13-6.85,24.71-12.52,38.62-14.74C383.5,438.72,385.9,440.92,388.35,443.13z"/>
	<path class="st27" d="M377.38,413.52c0-4.47-0.36-8.97,0.08-13.4c0.74-7.51,0.57-7.78-6.72-5.81c-1.66,0.45-3.17,2.11-5.34,0.78
		c2.16-2.62,5.41-2.97,8.2-3.7c3.61-0.95,4.6-2.86,4.58-6.34c-0.01-2.51-0.08-5.24,1.49-8.26c1.74,2.95,0.88,5.56,0.57,7.92
		c-0.45,3.45,0.89,3.72,3.85,3.47c2.9-0.25,5.31-2.36,8.35-1.86c-2.77,2.31-6.05,3.29-9.39,4.16c-2.22,0.58-3.49,1.37-3.46,4.36
		c0.06,6.24-0.73,12.5-1.17,18.75C378.07,413.56,377.73,413.54,377.38,413.52z"/>
	<path class="st28" d="M328.33,576.96c-0.42-5.29-0.24-10.55,0.81-15.78c1.74-8.66,6.97-14.46,14.99-17.59
		c4.12-1.61,8.38-1.68,11.1,2.96c-8.18-5.24-17.76,1.64-21.96,10.85c-2.82,6.17-2.43,12.94-3.2,19.49
		C329.49,576.91,328.91,576.94,328.33,576.96z"/>
	<path class="st29" d="M622.73,540.14c-8.98-7.23-13.95-16.98-16.94-27.81c-2.04-7.39-1.8-7.45-7.64-11.92
		c5.31,1.06,8.43,2.65,9.53,8.49c2.17,11.56,8.41,21.38,16.06,30.25C623.88,539.96,623.69,540.45,622.73,540.14z"/>
	<path class="st30" d="M551.05,497.79c-6.09-4.14-11.21-9.07-14.15-16c-1.57-3.69-2.69-7.84-8.51-9.53
		c4.84-0.28,7.45,0.61,8.74,4.21C540.08,484.67,545.88,491.01,551.05,497.79z"/>
	<path class="st31" d="M618.55,492.28c-6.34-2.33-12.02-1.01-17.33,2.93c-0.87,0.65-2.15,2.34-3.22,0.33
		c-0.79-1.49,0.51-2.37,1.67-3.14c6.43-4.32,13.05-5.61,20.03-1.3C619.96,492.11,619.73,492.65,618.55,492.28z"/>
	<path class="st32" d="M428.88,500.69c-0.42-5.78,0.65-11.44,0.02-17.33C434.82,485.9,434.82,490.62,428.88,500.69z"/>
	<path class="st33" d="M476.98,475.17c7.35-1.68,14.7-3.36,22.04-5.04c0.98,1.52,2.53,0.91,3.88,1.05
		c-8.65,1.93-17.3,3.86-25.95,5.79C476.96,476.37,476.97,475.77,476.98,475.17z"/>
	<path class="st34" d="M616.95,321.47c-0.36-0.37-0.72-0.73-1.08-1.1c3.23-5.42,8.56-7.6,14.27-9.24
		C625.99,314.91,620.61,317.09,616.95,321.47z"/>
	<path class="st35" d="M575.87,324.38c2.48-0.3,1.61-1.73,1.02-3.06c4.05,2.58,7.46,5.85,10.42,9.68
		C582.74,330.04,579.67,326.57,575.87,324.38z"/>
	<path class="st36" d="M655.92,311.13c-0.43,0.51-0.87,1.01-1.3,1.52c-6-1.91-8.73-6.07-8.1-12.63
		C647.57,305.6,650.76,309.25,655.92,311.13z"/>
	<path class="st37" d="M591.82,359.44c0.41,0.35,0.82,0.69,1.24,1.04c0.67,0.24,1.57,0.01,1.91,0.93c-3.18,1.61-6.1,4.14-10.1,2.8
		C586.93,362.25,588.95,360.22,591.82,359.44z"/>
	<path class="st38" d="M341.13,454.06c0.37,0.35,0.75,0.7,1.12,1.05c0.89,0.68-2.05,1.63,0.16,2.21c-2.67,0.94-5.34,1.89-8.01,2.83
		C335,456.31,338.35,455.5,341.13,454.06z"/>
	<path class="st39" d="M391.32,428.04c-0.44,0.44-0.87,0.88-1.31,1.32c-2.79-2.87-7.01-4.19-8.78-8.21
		C384.31,423.9,388.67,424.71,391.32,428.04z"/>
	<path class="st40" d="M618.55,492.28c0.39-0.4,0.77-0.79,1.16-1.19c3.17,0.91,5.39,2.86,7.31,6.81
		C623.6,495.64,621.08,493.96,618.55,492.28z"/>
	<path class="st41" d="M384.03,232.59c-1.05-2.81-2.1-5.62-3.14-8.42c2.28,1.23,3.65,2.93,4.41,5.09
		C383.65,229.9,384.36,231.44,384.03,232.59z"/>
	<path class="st42" d="M622.73,540.14c0.34-0.33,0.67-0.66,1.01-0.99c2.34,1.03,3.68,3.11,5.18,5.11
		C626.14,543.98,624.2,542.43,622.73,540.14z"/>
	<path class="st2" d="M437.14,693.02c-10.08-6.16-16.74-15.79-24.52-24.29c-0.54-0.59-0.33-1.87-0.47-2.83
		c-0.98-1.35-0.46-2.86-0.49-4.33c-0.26-14.72,0.47-29.41,1.06-44.1c-0.24-8.26,1.46-16.29,3.05-24.32
		c5.57-24.01,17.76-44.33,35.33-61.31c10.71-10.35,23.77-15.93,39.03-16.24c25.2-0.52,40.01,13.45,48,33.43
		c2.91,7.27,4.25,14.86,4.3,22.86c0.12,19.47-1.35,38.82-2.96,58.18c-0.55,6.63-0.06,13.31-0.24,19.96
		c-0.16,6.29-0.72,12.57-2.05,18.75c-2.55,3.87-5.8,6.8-10.47,7.84c-2.2-6.48-1.06-13.09-0.64-19.64c0.1-1.63,0.53-3.26,0.5-4.93
		c-0.36-21.56,1.84-43.02,2.45-64.55c0.23-8.05,0.73-15.99-1.79-24.02c-4.75-15.14-14.87-24.6-29.15-30.3
		c-10.74-4.16-20.53-1.38-29.97,4.06c-5.92,2.87-10.24,7.59-14.37,12.54c4.15-5,8.6-9.66,14.55-12.58
		c8.11-4.77,16.66-7.24,26.12-5.15c18.48,5.53,30.04,17.8,34.19,36.49c1.68,7.57,0.45,15.53,0.24,23.31
		c-0.05,1.78-1.09,2.66-2.87,2.78c-2.32,0.17-4.61,0.61-6.86,1.16c-4.72,0.32-9.23,1.65-13.77,2.88c-0.82,0.17-1.63,0.19-2.45,0
		c-0.55-0.17-0.99-0.5-1.33-0.97c-0.34-0.82-0.31-1.64-0.07-2.47c0.66-1.89,1.1-3.83,1.03-5.85c-0.37-11.79,1.65-23.52,1.04-35.32
		c-0.14-2.67,0.59-5.28,0.78-7.93c0.18-2.67-0.86-3.88-3.54-2.61c-4.06,1.92-8.25,3.51-12.42,5.16c-2.37,0.94-3.67,2.72-3.87,5.31
		c-1.15,15.05-1.48,30.14-2.54,45.2c0.06,0.85-0.02,1.68-0.3,2.49c-0.59,1.33-1.55,2.29-2.9,2.84c-9.98,1.66-20.03,3.04-29.68,6.34
		c-1.09,0.15-2.14,0.04-3.09-0.58c-2.52-5.41-0.3-10.73,0.71-15.89c3.53-18.07,12.96-32.61,27.53-43.83
		c6.04-4.46,13.12-6.67,19.23-9.29c-6.44,2.45-13.6,5.06-19.84,9.64c-14.16,11.28-23.41,25.63-27.07,43.43
		c-1.67,8.14-2.26,16.41-2.53,24.7c-0.35,10.78-0.8,21.57-2.12,32.26c-0.86,6.98,0.24,13.97-0.96,20.89
		c-1.27,5.61,0.28,11.45-1.48,17.03C439.04,690.73,439.29,692.6,437.14,693.02z"/>
	<path class="st2" d="M358.06,587.66c8.11-9.93,13.43-21.33,16.84-33.54c1.3-4.65,3.75-6.01,8.14-6.76
		c25.7-4.37,43.41-19.23,54.56-42.43c0.29-0.6,0.62-1.21,0.72-1.85c1.78-10.39,8.78-13.72,18.42-15.55
		c17.05-3.23,33.87-7.7,50.76-11.76c7.03-1.69,8.31-1.23,11.14,5.03c8.54,18.84,33.89,31.58,54.03,27.16
		c1.29-0.28,2.61-0.42,3.89-0.71c3.32-0.75,6.88-3.99,9.74-2.17c2.72,1.72,2.15,6.35,3.41,9.59c8.89,23.04,24.55,38.37,49.56,42.11
		c12.3,1.84,24.66,0.53,36.04-5c4.4-2.14,4.7-0.67,4.39,3.03c-0.14,1.65,0.04,3.32,0.08,4.98c-6.46,0.59-12.91-0.89-19.38,0.13
		c-17.89,2.83-31.92,11.83-44.05,25.16c-8.93,9.82-17.01,20.26-25.39,30.49c-9.25,11.29-19.03,22.08-29.2,32.51
		c-6.11,6.27-12.74,12.04-19.12,18.04c-1.1,1.04-2.37,1.06-3.72,0.71c-1.59-1.89-1.08-4.17-0.89-6.23
		c1.54-16.86,1.04-33.84,2.99-50.66c1.23-10.6,0.69-21.24,1.38-31.85c1.14-17.6-3.42-33.64-15.12-47.13
		c-10.18-11.74-23.54-16.02-38.75-15.25c-23.65,1.2-39.02,15.29-51.98,33.26c-9.44,13.08-16.35,27.3-20.07,43.03
		c-1.63,6.04-2.25,12.24-3.14,18.41c-0.28,16.12-1.73,32.19-1.28,48.33c0.05,1.88,1.34,4.91-2.48,5.17
		c-6.87-9.54-12.68-19.75-18.91-29.7c-9.53-15.22-18.03-31.25-31.09-44.02C358.89,589.53,358.56,588.51,358.06,587.66z"/>
	<path class="st2" d="M475.07,696.51c-0.66,1.9-2.29,2.19-3.97,2.36c-8.8,0.93-17.62,2.15-26.36-0.25c-1.83-0.5-3.91-0.97-4.93-2.98
		c-1.2-3.19-0.89-6.39-0.1-9.6c0.75-3.06,0.24-6.18,0.39-9.26c1.06-14.83,2.14-29.65,3.16-44.48c0.12-1.75,0.16-3.69,1.45-5.18
		c4.04,0.52,2.18,3.78,2.75,5.91c-0.45,4.12,1.38,5.02,5.26,4.33c8.22-1.47,16.33-3.45,24.51-5.17c0.27,0.08,0.53,0.16,0.81,0.24
		c0.24,0.16,0.47,0.33,0.7,0.49c0.64,0.66,0.98,1.45,1.05,2.37c-2.35,12.78-0.6,25.8-2.24,38.63
		C476.59,681.43,477.04,689.1,475.07,696.51z"/>
	<path class="st4" d="M475.07,696.51c-0.85-6.46,0.49-12.84,0.73-19.26c0.48-12.88,1.35-25.74,2-38.61
		c0.07-1.41,0.58-2.56,1.32-3.67c7.32-2.31,14.53-5.26,22.5-4c2.68,3.54,1.88,7.59,1.63,11.52c-0.88,14.23-1.69,28.46-2.7,42.68
		c-0.18,2.48,0.08,5-1.32,7.24C491.36,694.89,483.61,698.04,475.07,696.51z"/>
	<path class="st43" d="M499.23,692.43c-0.95-9.29,0.71-18.48,1.16-27.72c0.47-9.56,1.12-19.1,1.86-28.64
		c0.15-1.98-1.33-3.34-1.27-5.17c-0.33-0.36-0.5-0.78-0.47-1.27c0.19-0.74,0.67-1.27,1.29-1.69c0.87-0.54,1.82-0.83,2.82-0.96
		c4.9-0.62,9.79-1.33,14.65-2.31c0.99-0.17,1.99-0.19,2.98-0.29c5.13-0.52,5.4-0.23,4.83,4.79c-0.26,2.31-0.16,4.65-0.1,6.97
		c0.31,12.61-0.58,25.18-1.03,37.77c-0.04,1.01-0.16,1.98-0.73,2.85c-1.91,5.81-7.85,6.89-12.15,9.37
		C508.78,688.59,504.3,691.37,499.23,692.43z"/>
	<path class="st44" d="M415.98,591.77c3.09-16.32,10.57-30.6,20.19-43.93c7.74-10.73,16.43-20.4,28.36-26.68
		c26.29-13.84,59.84-7.26,73.34,24.05c4.11,9.52,6.18,19.29,5.71,29.49c-1.4,30.72-3.09,61.42-4.66,92.13
		c-0.58,0.65-1.15,1.3-1.73,1.95c0.72-22.41,1.44-44.81,2.97-67.18c0.86-12.6,2.07-25.37,0.37-37.81
		c-2.92-21.3-14.33-40.73-38.03-45.91c-14.94-3.26-29.82-0.57-42.53,8.7c-17.92,13.07-29.86,30.8-37.91,51.25
		c-1.94,4.92-3.32,10.06-4.96,15.1C416.14,593.12,415.64,592.86,415.98,591.77z"/>
	<path class="st45" d="M525.2,676.75c0.34-15.24,0.66-30.49,1.05-45.73c0.15-5.98,0.23-5.98-5.57-5.29
		c-0.82,0.1-1.65,0.11-2.48,0.16c-0.44-2.9,1.89-3.27,3.68-3.48c3.93-0.44,4.82-2.74,4.72-6.18c-0.12-4.14-0.2-8.3,0.02-12.44
		c0.22-4.05-0.91-6.81-5.31-7.47c-0.97-0.15-1.9-0.62-2.45-1.55c2.63-1.98,7.23,0.53,8.65-2.66c1.26-2.84,0.53-6.54,0.71-9.86
		c1.26-23.05-10.7-42.22-34.18-49.27c0.7-2.66,2.51-1.26,3.98-1.08c21.54,8.16,33.34,25.74,32.51,48.83
		c-0.72,20.21-1.67,40.41-2.48,60.61c-0.47,11.76-0.89,23.52-1.33,35.28C526.22,676.66,525.71,676.7,525.2,676.75z"/>
	<path class="st46" d="M409.57,663.91c2.28-1.02,1.52-3.11,1.51-4.78c-0.11-14.53,0.42-29.04,1.05-43.55
		c0.08-1.95-0.37-3.99,0.88-5.77c1.46,2.14-0.1,4.71,0.98,6.9c-0.72,16.39-0.18,32.83-1.83,49.19
		C411.29,665.24,410.43,664.57,409.57,663.91z"/>
	<path class="st47" d="M441.01,676.75c0.66,6.37-1.42,12.56-1.2,18.89c-1.19-0.57-2.1-1.43-2.67-2.63
		c1.96-4.87,1.53-10.04,1.9-15.11c0.15-2.09-0.56-4.33,0.84-6.26C441.46,673.08,439.84,675.23,441.01,676.75z"/>
	<path class="st0" d="M666.68,356.42c17.46,12.01,35.09,23.74,53.3,34.58c2.74,1.63,3.84,3.34,3.91,6.65
		c0.55,25.77,1.35,51.53,2.1,77.3c0.17,6.02-0.2,6.31-5.45,3.5c-18.27-9.77-36.52-19.56-54.79-29.35
		c-0.07-29.32-0.15-58.64-0.16-87.95C665.61,359.57,665.49,357.8,666.68,356.42z"/>
	<path class="st48" d="M594.96,361.41c-0.64-0.31-1.27-0.62-1.91-0.93c15.4-9.46,31.75-16.84,49.08-21.9
		c3.94-1.15,8.29-2.95,12.45-0.11c1.31,2.88-0.78,3.27-2.76,3.91c-11.07,3.58-22.13,7.17-33.17,10.85
		C610.73,355.88,602.85,358.67,594.96,361.41z"/>
	<path class="st49" d="M472.21,202.52c-0.52,5.23-5.58,3.66-8.65,4.87c-2.58,1.01-4.29-0.62-4.68-3.54
		c-0.44-3.25-1.14-6.48-1.78-9.7c-1.02-5.15,2.57-5.98,6.28-7.02c4.47-1.26,7.02,1.38,7.33,4.79
		C471.02,195.36,471.95,198.7,472.21,202.52z"/>
	<path class="st50" d="M226.95,344.17c4.24,0.45,7.14,2.79,9.77,5.25c1.64,1.54,5.57,1.49,4.62,4.98c-0.91,3.31-2.59,6.57-5.17,8.82
		c-2.65,2.3-4.94-0.76-6.96-1.91c-1.94-1.11-3.61-2.78-5.74-3.8c-2.5-1.2-4-3.41-2.82-6.12
		C221.99,348.31,223.12,344.73,226.95,344.17z"/>
	<path class="st51" d="M342.36,274.19c-2.56,0.59-3.85-1.72-4.94-3.25c-4.69-6.57-9.28-13.24-13.38-20.17
		c-2.15-3.63-1.34-7.22,2.62-9.83c3.77-2.49,7.19-2.75,9.78,1.21c4.67,7.13,10.14,13.82,13.44,21.75
		C352.06,269.12,348.21,274.19,342.36,274.19z"/>
	<path class="st52" d="M342.4,457.32c-3.04-0.53-0.33-1.46-0.16-2.21c11.66-5.18,23.75-9.09,36.11-12.17
		c0.86-0.21,2.17-1.03,2.51,0.36c0.29,1.18-1.45,1.01-2.02,1.77C366.37,448.17,354.29,452.47,342.4,457.32z"/>
	<path class="st43" d="M632.66,414.22c0,5.48-0.07,10.97,0.03,16.45c0.05,2.47-0.64,4.12-3.17,4.89
		c-14.4,4.39-28.79,8.8-43.15,13.29c-3.81,1.19-4.91,0.1-4.68-3.88c0.35-6.13,0.56-12.33,0.01-18.43
		c-1.71-18.85,6.95-32.35,21.1-43.51c5.71-4.5,11.46-6.15,17.87-2.52c6.63,3.76,11.46,9.17,11.85,17.26
		c0.27,5.47,0.05,10.97,0.05,16.45C632.6,414.22,632.63,414.22,632.66,414.22z"/>
	<path class="st53" d="M401.15,481.08c0.3-4.11,3.82-5.47,6.68-6.42c2.82-0.93,3.86,2.48,5.27,4.42c6.9,9.48,6.96,20.08,5.08,31
		c-0.64-0.34-1.28-0.69-1.92-1.03c-2.5-2.76-1.1-6-0.84-8.96c0.64-7.29-1.75-13.58-5.59-19.51c-0.39-0.6-0.97-0.84-1.69-0.58
		C405.29,476.92,403.18,478.71,401.15,481.08z"/>
	<path class="st54" d="M408.15,480c0.03-3.2,1.46-1.23,2.07-0.43c4.34,5.63,6.93,11.9,6.57,19.15c-0.17,3.45-0.35,6.89-0.52,10.34
		c-0.42,2.56-0.23,5.26-1.77,7.96c-1.21-7.82-0.27-15.38-0.88-22.87C413.19,488.87,411.3,484.2,408.15,480z"/>
	<path class="st55" d="M341.95,475.93c1.49-1.3,2.97-2.61,4.46-3.91c4.01-3.52,8.42-4.51,13.26-1.89c4.37,2.38,7.13,6.15,7.06,11.11
		c-0.11,7.78-0.86,15.56-1.23,23.34c-0.09,1.9-1.17,2.56-2.71,2.97c-9.26,2.44-18.52,4.91-27.79,7.3c-2.29,0.59-4.56,0.63-4.35-2.74
		c0.42-6.77,0.95-13.54,1.46-20.31c0.12-1.56,0.79-2.86,1.99-3.87c1.99-0.18,1.99,1.39,2.34,2.65c-0.49,4.06,0.27,8.21-0.79,12.05
		c1.5-4-0.31-8.59,1.72-12.78c2.11-4.34,4.2-8.62,7.92-11.85c3.68-3.2,7.88-4.64,12.78-3.66c-4.47-0.83-8.52,0.07-12.15,2.84
		c-0.81,0.62-1.81,0.77-2.84,0.51C342.31,477.36,341.8,476.85,341.95,475.93z"/>
	<path class="st56" d="M335.43,491.08c-0.4-1.07,0.11-2.52-1.33-3.14c1.53-4.71,3.95-8.84,7.85-12.01c0.51,0.48,1.03,0.95,1.54,1.42
		C341.06,482.08,338.81,486.91,335.43,491.08z"/>
	<path class="st4" d="M481.12,599.88c-1.19-1.86-0.6-3.89-0.5-5.84c0.71-13.41,1.56-26.81,2.19-40.22c0.17-3.69,1.62-5.64,5.25-6.75
		c4.57-1.4,8.99-3.36,13.34-5.37c3.25-1.51,4.66-1.8,4.4,2.78c-0.92,15.92-1.44,31.86-2.1,47.79c-0.06,1.5,0.06,3.04-1.6,3.87
		c-0.89,1.02-1.9,1.77-3.31,2.01c-4.23,0.71-8.49,1.24-12.57,2.7C484.48,601.48,482.62,601.3,481.12,599.88z"/>
	<path class="st4" d="M476.82,632.67c-6.17,3.57-13.29,3.54-19.96,5.25c-1.6,0.41-3.28,0.54-4.85,1.05
		c-4.69,1.51-6.46-0.26-5.81-4.95c1.39-5.43-1.19-10.73-0.54-16.17c0.36-3,0.49-5.95,3.17-7.96c9.79-3.34,19.73-5.87,30.15-6.09
		c0.7,0.7,0.84,1.58,0.78,2.52c-0.49,6.77-1.72,13.49-1.4,20.33C478.47,628.75,478.79,631.04,476.82,632.67z"/>
	<path class="st4" d="M479.05,605.37c-0.02-0.52-0.04-1.05-0.05-1.57c0.71-0.62,1.42-1.24,2.13-1.85
		c6.71-2.74,13.73-3.88,20.92-4.18c0.23,0.13,0.47,0.25,0.71,0.35c2.78,3.11,1.66,6.92,1.5,10.37c-0.24,5.39-1.12,10.76-0.94,16.19
		c0.05,1.53-0.47,2.91-1.44,4.1c-0.28,0.38-0.57,0.76-0.85,1.14c-6.09,1.82-12.45,2.34-18.63,3.79c-1.44,0.34-2.94,0.15-4.16-0.91
		l-0.17-0.14c-1.04-3.71-0.42-7.43-0.13-11.16C478.36,616.12,478.3,610.72,479.05,605.37z"/>
	<path class="st4" d="M518.86,594.78c0.99,0.11,1.97,0.26,2.96,0.32c4.97,0.29,6.69,2.81,6.23,7.78c-0.46,4.92-0.14,9.92-0.12,14.89
		c0.01,3.29,0.01,6.25-4.86,5.75c-1.5-0.15-4.23-0.39-4.86,2.37c-4.63,1.17-9.2,2.86-14.12,1.8c-2.06-3.02-1.2-6.46-0.97-9.61
		c0.47-6.68,0.21-13.45,1.85-20.03C509.22,595.37,514,594.9,518.86,594.78z"/>
	<path class="st57" d="M441.01,676.75c-1.55-1.44-0.49-3.46-1.12-5.11c0.43-22.89,2.08-45.73,4.15-68.5
		c1.99-21.86,11.51-40.25,30-53.2c1.03-0.36,1.23,0.1,0.96,0.99c-14.45,11.26-23.48,25.95-27.25,43.78
		c-1.05,4.96-2.07,10.04-1.55,15.21c0.96,5.75,0.11,11.38-1.11,16.99C443.73,643.54,442.37,660.15,441.01,676.75z"/>
	<path class="st58" d="M498.02,531.9c-1.26,0.61-3.04-0.69-3.98,1.08c-9.29-1.45-17.87,0.54-25.9,5.27
		c-1.01,0.12-1.38-0.35-1.21-1.32C476.54,530.63,486.82,528.4,498.02,531.9z"/>
	<path class="st59" d="M504.96,598.05c-0.29,9.88-0.58,19.76-0.88,29.64c-0.73,0.36-1.47,0.72-2.2,1.08
		c0.29-10.22,0.59-20.44,0.88-30.66C503.5,598.1,504.23,598.07,504.96,598.05z"/>
	<path class="st60" d="M474.99,550.95c-0.32-0.33-0.64-0.66-0.96-0.99c5.72-5.4,13.27-6.82,20.61-8.79
		C488.09,544.42,481.54,547.68,474.99,550.95z"/>
	<path class="st61" d="M466.93,536.94c0.07,0.75,0.56,1.11,1.21,1.32c-6.41,3.55-11.1,9.04-16.12,14.19
		C455.12,545.48,460.25,540.47,466.93,536.94z"/>
	<path class="st62" d="M413.98,616.71c-1.38-2.15-0.16-4.67-0.98-6.9c-0.27-6.22,1-12.19,2.98-18.04c0.37,0.39,0.75,0.78,1.12,1.17
		C415.93,600.85,413.92,608.64,413.98,616.71z"/>
	<path class="st63" d="M445.09,626.93c-0.43-5.72,0.72-11.33,1.11-16.99c0.88-0.02,1.77-0.03,2.65-0.05
		c-2.37,5.46-1.38,11.25-1.73,16.91c-0.15,2.42,0.27,4.92-0.9,7.22C445.23,631.75,447.24,629.01,445.09,626.93z"/>
	<path class="st64" d="M502.05,597.77c-6.97,1.39-13.95,2.79-20.92,4.18c0-0.69,0-1.38-0.01-2.07c7.21-0.02,13.87-3.16,20.99-3.74
		C502.09,596.68,502.07,597.23,502.05,597.77z"/>
	<path class="st2" d="M406.38,649.43c-7.8-10.45-13.29-20.29-18.76-30.22c-5.73-10.39-13.46-19.51-20.68-28.92
		c-1.61-2.1-1.49-3.31-0.31-5.62c4.36-8.53,9.61-16.66,11.73-26.25c0.92-4.15,3.98-7.08,8.48-7.1c10.03-0.04,17.84-5.7,26.17-9.96
		c2.14-1.09,3.13-1.91,4.17,0.99c0.49,1.37,2.22,2.27,3.75,1.04c1.51-1.21,1.86-3,0.15-4.22c-2.98-2.14-1.14-3.59,0.49-5.06
		c2.21-1.99,4.58-3.82,6.78-5.82c1.32-1.2,2.19-0.8,3.38,0.21c0.94,0.8,2.33,0.79,3.01-0.45c0.59-1.08,0.48-2.3-0.92-2.9
		c-2.82-1.2-0.97-2.98-0.14-3.93c5.7-6.53,8.16-14.68,11.55-22.36c1.31-2.97,2.93-4.82,6.63-4.9c3.41-0.07,6.99-0.74,10.17-1.99
		c8.06-3.16,16.84-3.07,24.94-6.19c7.37-2.84,15.59-2.76,23.1-5.48c2.1-0.76,3.37,0.62,4.25,2.47c8.8,18.43,24.64,27.14,43.68,31.06
		c7.12,1.47,14.18-0.4,21.04-2.38c3.01-0.87,4.46-0.06,5.54,2.92c5.99,16.51,15.57,30.47,30.9,39.48
		c6.78,3.98,14.04,7.85,22.66,7.59c-8.07,4.35-15.54,9.24-21.25,16.1c-8.03,9.64-16.91,18.53-24.37,28.71
		c-5.85,7.99-12.72,15.25-19.3,22.67c-8.88,10.02-17.88,19.94-29.03,28.57c1.5-15.88,1.57-31.37,3.5-46.77
		c0.72-5.74,0.4-11.64,0.17-17.45c-0.13-3.15,2.04-6.08,0.6-9.3c-0.78-1.75-0.81-3.65-2.43-5.26c-2.18-2.17-2.07-6.17-0.48-7.83
		c5.19-5.4,2.53-11.03,0.96-16.23c-2.86-9.48-6.88-18.46-13.25-26.37c-3.65-4.53-8.45-7.37-12.63-11.09
		c-0.92-0.82-2.75-1.17-0.55-3.08c2.04-1.77,0.91-4.2-1.19-5.39c-2.66-1.51-4.27,0.45-4.69,2.66c-0.62,3.23-2.08,2.65-4.2,1.68
		c-12.76-5.84-25.25-4.76-38.34-0.1c-10.97,3.91-20.29,9.84-27.91,18.13c-16.01,17.41-27.83,37.12-33.07,60.71
		c-1.61,7.26-0.3,14.81-3.31,21.81c-0.66,1.53,0.33,3.88,0.81,5.79C410.66,629.24,405.45,638.36,406.38,649.43z"/>
	<path class="st65" d="M478.24,632.8c7.6-0.96,15.19-1.92,22.79-2.88c-0.02,0.32-0.04,0.65-0.06,0.97
		c-7.25,1.55-14.39,3.66-21.86,4.08C478.83,634.25,478.54,633.52,478.24,632.8z"/>
	<path class="st66" d="M479.05,605.37c0.67,9.13-0.69,18.19-0.97,27.28c-0.42,0-0.83,0.01-1.25,0.01
		c0.33-7.87,0.61-15.75,1.03-23.62C477.92,607.81,478.63,606.6,479.05,605.37z"/>
	<path class="st67" d="M714.61,459.27c-11.77-6.22-22.94-12.14-34.13-18.01c-1.72-0.9-2.06-2.17-2.05-4.05
		c0.08-14.46-0.09-28.91,0.07-43.37c0.06-5.95,3.39-10.38,8.3-13.34c5.15-3.1,8.81-2.16,12.97,2.31
		c10.07,10.82,15.16,23.48,14.89,38.37C714.43,433.65,714.61,446.11,714.61,459.27z"/>
	<path class="st68" d="M587.68,436.19c-1.84-15.76-2.07-31.04,10.59-43.4c8.84-8.63,16.91-10.74,27.01-2.99
		c-2.35,0.68-3.75-0.99-5.44-1.53c-6.81-2.18-12.28,0.33-17.12,4.93c-8.29,7.88-13.15,17.36-13.27,28.98
		c-0.05,4.72-0.01,9.44-0.01,14.16C588.85,436.29,588.27,436.24,587.68,436.19z"/>
	<path class="st69" d="M335.43,491.08c1.69-5.16,3.97-9.98,8.06-13.73c7.62-5.7,12.14-6.1,18.22-1.63
		c-13.11-1.8-23.06,6.51-24.33,20.24c-0.3,3.22-0.8,6.42-1.96,9.57C335.43,500.72,335.43,495.9,335.43,491.08z"/>
	<path class="st70" d="M710.36,452.65c-9.04-4.01-17.76-8.56-26.36-13.36c-1.56-0.87-2.2-2.24-2.18-4.13
		c0.09-13.1,0.35-26.21-0.03-39.3c-0.19-6.4,3.39-9.67,8.13-12.21c2.07-1.1,4.49-1.33,6.72,1.05c8.73,9.34,13.9,20.15,14.26,33
		c0.27,9.62,0.25,19.25,0.3,28.88C711.21,448.53,711.5,450.56,710.36,452.65z"/>
	<path class="st71" d="M707.24,445.15c-2.83-2.17-2.54-4.88-2.73-7.41c-0.37-5.14-0.76-10.29-0.73-15.43
		c0.07-13.74-4.98-25.44-13.51-35.97c7.07,4.38,11.34,10.89,14.47,18.42c2.77,6.68,2.56,13.63,2.51,20.62
		C707.2,431.97,707.24,438.56,707.24,445.15z"/>
</g>
</svg>
