<?xml version="1.0" encoding="utf-8"?>
<!-- Generator: Adobe Illustrator 24.1.1, SVG Export Plug-In . SVG Version: 6.00 Build 0)  -->
<svg version="1.1" id="Layer_1" xmlns="http://www.w3.org/2000/svg" xmlns:xlink="http://www.w3.org/1999/xlink" x="0px" y="0px"
	 viewBox="0 0 500 500" style="enable-background:new 0 0 500 500;" xml:space="preserve">
<style type="text/css">
	.st0{fill:#4E98D2;}
	.st1{fill:#FEFEFE;}
	.st2{fill:#345B2C;}
	.st3{fill:#FFFFFF;}
	.st4{fill:#B85132;}
	.st5{fill:#FEFEFF;}
	.st6{fill:#FBFCFD;}
	.st7{fill:#C73E27;}
	.st8{fill:#EFBB1C;}
	.st9{fill:#B74427;}
	.st10{fill:#C53E28;}
	.st11{fill:#BA4227;}
	.st12{fill:#BD4328;}
	.st13{fill:#AD4D2B;}
	.st14{fill:#BA4427;}
	.st15{fill:#B14C2E;}
	.st16{fill:#C44028;}
	.st17{fill:#BB4328;}
	.st18{fill:#AD502F;}
	.st19{fill:#B04A29;}
	.st20{fill:#B35C39;}
	.st21{fill:#A5522F;}
	.st22{fill:#AA5231;}
	.st23{fill:#AD4F2C;}
	.st24{fill:#AA5831;}
	.st25{fill:#EBBBA3;}
	.st26{fill:#AC5F3A;}
	.st27{fill:#B9715A;}
	.st28{fill:#AF5B36;}
	.st29{fill:#F3DCD0;}
	.st30{fill:#AC6445;}
	.st31{fill:#B55E3B;}
	.st32{fill:#AE5540;}
	.st33{fill:#E18563;}
	.st34{fill:#BF856B;}
	.st35{fill:#B37F67;}
	.st36{fill:#DCD067;}
	.st37{fill:#BD7C64;}
	.st38{fill:#BC8A78;}
	.st39{fill:#B98973;}
	.st40{fill:#A7542E;}
	.st41{fill:#AC5A36;}
	.st42{fill:#BB9881;}
	.st43{fill:#A8856A;}
	.st44{fill:#CADDAD;}
	.st45{fill:#E7BC96;}
	.st46{fill:#F0C3A6;}
	.st47{fill:#A95C40;}
	.st48{fill:#A75C42;}
	.st49{fill:#AC735E;}
	.st50{fill:#C74029;}
	.st51{fill:#C73F28;}
	.st52{fill:#AC5935;}
	.st53{fill:#AB6752;}
	.st54{fill:#EBA582;}
	.st55{fill:#E79E81;}
	.st56{fill:#E3B495;}
	.st57{fill:#E49369;}
	.st58{fill:#EEB39B;}
	.st59{fill:#AD4F2B;}
	.st60{fill:#AD542F;}
	.st61{fill:#AB5A39;}
	.st62{fill:#F2E1D5;}
	.st63{fill:#A95932;}
</style>
<g>
	<path class="st0" d="M256.32,13.81c127.35-0.29,232.99,103.13,232.95,233.44C489.23,377.51,383.55,480.8,255.93,480.6
		C128.69,480.4,23.23,377.23,23.34,246.98C23.44,116.81,129.03,13.51,256.32,13.81z"/>
	<path class="st1" d="M367.83,70.45c1.99,0.31,3.38,1.74,4.93,2.78c13.19,8.85,25.22,19.1,36.05,30.71
		c12.77,13.68,23.56,28.77,32.3,45.34c8.47,16.05,14.75,32.9,18.85,50.56c1.91,8.23,3.29,16.57,4.13,24.99
		c0.83,8.27,1.41,16.55,1.23,24.86c-0.26,12.14-1.38,24.18-3.59,36.15c-3.54,19.13-9.71,37.34-18.31,54.75
		c-2.33,4.72-4.78,9.39-7.61,13.85c-0.3,0.16-0.64,0.19-0.88-0.02c-3.45-3.08-7.32-5.84-8.07-10.92c-0.2-3.84-0.17-7.68-0.08-11.51
		c0.29-11.99-0.37-23.96-0.6-35.94c-0.21-10.85-0.53-21.71-0.98-32.56c-0.33-8.07,0.02-16.14-0.42-24.19
		c-0.66-12.04-0.45-24.11-1.31-36.14c-0.34-4.78,0.2-9.59-0.39-14.37c-0.09-0.72,0.1-1.43,0.56-2.03c1.27-1.13,2.61-0.92,3.95-0.14
		c0.81,0.48,1.54,1.12,2.81,1.35c-1.62-1.12-2.82-2.33-4.17-3.36c-9.31-7.14-17.99-15.04-27.02-22.53
		c-7.5-6.22-15.04-12.37-23.22-17.71c-0.92-0.6-1.98-1.08-2.52-2.14c-0.35-2.06,0.49-3.92,0.94-5.85c1.5-6.48-0.3-11.81-5.55-15.95
		c-0.63-0.5-1.28-0.96-1.9-1.46c-1.98-1.65-4.38-2.56-6.61-3.77c-1.85-1-3.43-2.2-3.71-4.31c1.05,3.03,2.06,4.23,5.03,5.86
		c1.53,0.84,3.2,1.42,4.56,2.57c1.86,1.74,4.04,3.18,5.08,5.66c0.4,0.96,0.99,1.99,0.2,2.92c-0.84,0.99-1.92,0.39-2.88,0.05
		c-0.99-0.34-1.84-0.95-2.75-1.46c-1.77-1-3.67-1.64-5.7-1.62c-5.03,0.05-10.06-0.31-15.07,0.43c-3.84,0.57-7.48,1.61-10.77,3.74
		c-0.96,0.62-1.89,1.61-3.24,0.91c-1.09-2.04-0.51-3.86,0.82-5.51c1.93-2.4,4.22-4.41,6.96-5.98c-3.91,1.59-6.8,4.22-8.8,7.83
		c-1.62,3.64-1.58,7.23,0.21,11.06c0.95-0.98,1.24-2.08,1.79-3c1.56-2.6,3.48-4.92,6.51-5.67c8.53-2.13,17.16-2.78,25.8-0.64
		c4.87,1.2,7.67,4.62,8.08,9.25c0.24,2.79-0.5,3.41-3.27,2.74c-1.89-0.88-3.9-1.52-5.69-2.61c-2.07-1.82-4.38-2.35-7.11-1.66
		c-12.84,3.24-24.99,8.18-36.51,14.7c-0.15,0.08-0.25,0.19-0.38,0.53c0.87-0.12,1.49-0.58,2.14-0.93
		c9.98-5.28,20.44-9.37,31.35-12.28c3.32-0.89,6.7-1.57,9.97,0.29c0.67,2.71,0.26,3.47-2.3,4.21c-11.59,3.39-23.03,7.22-34.3,11.54
		c-4.23,0.64-8.15,2.2-11.93,4.13c-2.23,1.14-4.5,2.05-7.07,1.91c-0.97-0.05-1.9,0.2-2.75,0.7c-6.49,3.82-13.57,6.36-20.47,9.28
		c-1.46,0.62-2.9,1.29-4.16,1.96c7.6-1.49,15.29-3.24,22.96-5.09c12.02-2.9,23.92-6.24,35.69-10.04c4.89-1.49,9.89-2.57,14.7-4.36
		c2.89-1.08,4.55,0.07,5.11,3.16c0.41,2.32-0.28,4.6-0.27,6.92c0.06,18.05,0.03,36.1,0.03,54.14c0,0.88-0.04,1.76,0,2.64
		c0.24,4.95-1.98,8.22-6.63,9.91c-1.73,0.63-3.46,1.23-5.21,1.78c-17.73,5.42-35.13,11.83-52.65,17.86
		c-1.06,0.36-2.11,0.75-3.19,1.05c-2.52,0.72-3.47,0.18-3.65-2.46c-0.24-3.58-0.29-7.18,0.09-10.77c0.08-0.79,0.27-1.58,0.25-2.38
		c-0.26-7.67,0.46-15.32,0.59-22.98c0.15-9.17,0.66-18.34,0.88-27.51c0.01-0.56,0.02-1.12-0.01-1.68c-0.07-1.33,0.17-2.87-1.84-3.03
		c-1.76-0.14-3.4,1-3.81,2.64c-0.1,0.39-0.14,0.79-0.12,1.19c0.19,5.91-0.61,11.79-0.54,17.71c0.17,13.74-0.48,27.47-0.58,41.2
		c-0.04,6.29-0.25,12.61-0.32,18.91c-0.02,1.68,0.26,3.22,2.22,3.77c1.96,0.55,2.99-0.06,3.02-2.08c0.05-2.72,0.28-5.42,0.51-8.12
		c0.26-3.04,0.43-3.35,3.39-3.99c14.69-3.18,29.19-7.11,43.67-11.11c5.47-1.51,10.86-3.27,16.2-5.19c5.68-1.85,7.37-0.7,7.26,5.33
		c-0.38,20.1-0.55,40.21-0.46,60.31c0.02,5.21,0.02,5.22,5.16,5.2c7.18-0.03,8.68-1.54,8.68-8.73c0-19.07,0-38.15,0.01-57.22
		c0-1.35-0.18-2.72,0.43-4.01c1.12-1.03,2.12-0.08,3.05,0.3c12.27,4.99,24.46,10.21,36.7,15.28c2.29,0.95,4.58,1.88,6.85,2.86
		c2.15,0.92,3.26,2.45,3.31,4.79c0.12,5.42,0.46,10.83,0.56,16.26c0.28,14.83,0.68,29.66,1.04,44.48
		c0.15,6.22,0.19,12.44,0.33,18.65c0.02,1.03,0.08,2.08-0.26,3.08c-0.75,1.28-1.68,0.49-2.45,0.12c-3.63-1.76-6.14-4.65-8.04-8.13
		c-0.33-7.34-0.47-14.69,0.08-22.02c0.32-4.23,0.35-8.48,0.12-12.69c-0.31-5.56-0.37-11.17-2.08-16.59
		c-1.68-5.32-4.12-10.23-7.34-14.74c-4.5-6.31-12.08-6.3-16.9-0.08c-1.72,2.21-2.61,4.76-2.88,7.52c-0.68,7.09-0.61,14.2-0.52,21.31
		c0.01,0.78-0.24,2.13,0.99,2c1.1-0.11,0.68-1.37,0.72-2.22c0.35-7.7-0.57-15.47,0.99-23.11c0.85-4.13,3.45-6.71,7.38-8.08
		c2.73-0.95,5.02-0.41,6.96,1.72c3.32,3.65,5.95,7.75,7.55,12.41c3.28,9.59,4.2,19.47,3.3,29.53c-0.1,1.12-0.16,2.24-0.09,3.35
		c0.34,5.36-0.68,10.68-0.42,16.03c0.04,0.83-0.22,1.58-0.84,2.16c-1.02,0.71-2,0.22-2.94-0.17c-1.69-0.7-3.39-1.46-4.83-2.59
		c-3.18-2.5-6.72-4.23-10.59-5.37c-2.08-0.61-3.7-1.81-4.56-3.88c-0.25-3.43-0.28-6.84,0.2-10.26c0.2-1.37,0.72-3.18-0.49-4.09
		c-1.28-0.97-2.46,0.6-3.59,1.2c-6.73,3.57-13.85,5.62-21.45,6.23c-14.55,1.16-26.88-3.59-36.96-13.96
		c-6.97-7.16-11.02-15.97-13.08-25.71c-1.06-5.02-1.11-5.08-5.9-3.14c-12.76,5.15-25.1,4.57-36.96-2.63
		c-6.81-4.13-11.35-10.15-14.46-17.38c-1.81-4.22-3.02-4.7-7.45-3.29c-1.83,0.58-3.64,1.2-5.58,1.29c-0.89-0.02-1.77,0.02-2.63,0.3
		c-0.81,0.14-1.61,0.18-2.33-0.33c-0.28-0.32-0.39-0.7-0.43-1.11c0.28-1.78-0.45-2.54-2.29-2.79c-3.29-0.44-4.06-1.45-4.09-4.74
		c-0.03-3.83-0.05-7.66,0.01-11.49c0.05-3.27,0.91-4.09,4.19-3.99c1.17,0.03,2.13-0.1,2.28-1.46c0.17-1.5-0.93-1.59-2.02-1.7
		c-3.78-0.39-4.4-1.1-4.47-4.99c-0.02-0.88,0.04-1.76-0.09-2.63c-0.12-0.87-0.52-1.54-1.45-1.65c-1.01-0.13-1.68,0.4-2.06,1.29
		c-0.48,1.14-0.31,2.36-0.35,3.55c-0.11,3.35-1.04,4.52-4.29,5.36c-0.67,0.17-1.57,0.14-1.59,1.11c-0.02,1.03,0.85,1.2,1.65,1.39
		c3.75,0.89,4.22,1.48,4.24,5.36c0.01,2.47-0.05,4.94,0.39,7.4c0.2,1.1,0.16,2.23-0.02,3.34c-0.38,2.34-1.86,3.44-4.21,3.19
		c-0.63-0.07-1.26-0.22-1.89-0.33c-1.11-0.18-2.38-0.48-3.17,0.44c-0.81,0.94,0.45,1.68,0.72,2.53c0.47,1.53,0.7,3.11,1.23,4.62
		c0.14,0.66,0.15,1.31-0.17,1.94c-0.51,0.69-1.28,0.9-2.06,1.09c-7.84,1.84-15.6,4.04-23.54,5.34c-4.14,0.68-6.47,2.8-7.62,6.8
		c-1.52,5.28-3.24,10.53-6.54,15.06c-0.98,1.35-1.91,2.78-3.64,3.3c-1.04,0.06-1.83-0.32-2.32-1.27c-0.45-3.33-0.36-6.67,0.01-10.01
		c0.91-8.21-1.45-15.5-6.52-21.88c-3.04-3.83-8.94-2.28-10.8,2.7c-0.48,1.27-0.77,2.62-0.78,3.98c-0.02,5.43-0.47,10.82-0.99,16.21
		c-0.05,0.55,0,1.12-0.02,1.67c-0.15,4.44,1.82,7.46,5.97,9.09c2.53,0.99,4.99,2.13,6.99,4.06c0.64,0.99,1.09,2.05,1.11,3.26
		c-0.42,1.75-1.66,2.83-3.06,3.81c-8.47,5.95-17.89,9.4-28.13,10.58c-2.23,0.26-3.23,1.29-3.64,3.36
		c-1.95,9.86-6.27,18.7-11.76,27.02c-0.56,0.86-1.04,1.83-2.23,2.01c-1.33-0.07-2.38-0.87-3.55-1.37
		c-4.29-1.81-8.72-3.12-13.34-3.75c-0.94-0.13-1.91-0.24-2.77-0.71c-1.2-1.13-0.65-2.58-0.56-3.85c0.43-5.96,0.82-11.98,4.9-16.88
		c2.89-3.47,6.27-6.1,11.11-6.05c1.47,0.02,2.83,0.35,4.11,1.06c2.17,1,3.92,2.54,5.43,4.37c1.12,3,0.69,6,0.41,8.24
		c3.8-7.36-0.28-16.96-8.56-18.42c-4.09-0.72-7.78,0.42-11.06,2.79c-7.6,5.47-11.21,13.02-11.34,22.33c-0.03,2.13,0.37,4.31-0.4,6.4
		c-2.43,2.76-5.88,3.59-9.05,2.18c-0.6-0.96-0.37-1.98-0.27-3.01c0.92-9.32,1.99-18.63,2.61-27.98c0.34-5.01,1.69-6.71,6.66-7.77
		c12.13-1.03,23.92-3.99,35.8-6.45c6.44-1.33,7.57-0.23,6.52,6.17c-0.13,0.79-0.26,1.58-0.37,2.37c-0.36,2.54,0.4,3.42,2.91,3.38
		c3.45-0.04,6.07-2.37,6.53-5.79c0.1-0.71,0.04-1.44,0.18-2.15c0.39-1.87,1.48-2.55,3.31-2.03c1.55,0.44,2.9,1.33,4.37,1.96
		c1.26,0.54,2.56,0.92,3.95,0.77c0.48-0.05,1.04-0.11,1.21-0.62c0.18-0.53-0.31-0.86-0.69-1.14c-2.13-1.57-4.37-2.98-6.82-3.97
		c-3.65-1.49-5.32-3.98-4.99-8c0.63-7.7,0.77-15.44,1.35-23.15c0.25-3.33,0.49-6.69,0.53-10.03c0.04-3.12,0.5-6.2,0.62-9.31
		c0.12-3.35,2.18-4.38,5.01-2.52c5.87,3.86,11.8,7.63,17.65,11.54c1.17,0.78,2.34,1.66,4.12,1.54c-0.78-1.86-2.31-2.74-3.61-3.81
		c-6.14-5.1-12.46-9.99-18.13-15.63c-0.79-0.78-1.67-1.51-1.98-2.66c-0.13-1.93,0.74-3.72,0.73-5.66c-0.01-1.98-0.28-3.8-1.54-5.38
		c-1.07-2.19-2.5-3.98-5.09-4.81c1.01,0.99,2.06,1.71,2.81,2.73c0.52,0.7,1.1,1.45,0.72,2.37c-0.44,1.08-1.4,1.14-2.41,1
		c-6.79-2.48-13.6-2.1-20.42-0.11c-0.69,0.2-1.38,0.4-2.1,0.45c-1.17,0.08-1.6-0.49-1.48-1.63c-0.86,1.62-1.56,3.28-0.97,5.21
		c0.23,0.76,0.71,1.2,1.33,0.42c4.25-5.33,10.31-4.16,15.89-4.26c2.98-0.05,6.01,0.73,8.61,2.51c2.55,1.75,3.31,3.67,2.44,6.23
		c-1.6,0.76-2.87-0.17-3.94-1.03c-2.75-2.22-5.64-2.34-9-1.62c-8.2,1.75-15.94,4.61-22.82,8.4c7.48-2.17,15.12-5.57,23.31-7.17
		c0.31-0.06,0.63-0.14,0.94-0.16c1.07-0.07,2.39-0.09,2.66,1.05c0.28,1.17-1.1,1.39-1.94,1.67c-10.6,3.56-21.08,7.49-31.75,10.86
		c-3.72,1.18-6.75,3.62-10.3,4.92c3.95-0.54,7.89-1.44,11.83-2.36c3.97-0.93,7.9-2.01,11.81-3.17c3.98-1.18,7.98-2.33,11.9-3.69
		c1.36-0.47,2.72-0.93,4.09-1.36c3.17-1.01,3.4-0.74,3.31,2.48c-0.18,7.1-0.72,14.18-1.12,21.27c-0.45,7.96-0.77,15.93-1.42,23.88
		c-0.2,2.5-1.28,3.67-4.22,4.52c-4.22,1.23-8.54,2.05-12.8,3.16c-9.58,2.5-19.23,4.76-28.54,8.25c-2.76-0.07-3.63-0.82-3.7-3.52
		c-0.1-3.93,0.63-7.8,1.08-11.68c1.09-9.36,1.88-18.76,3-28.12c0.13-1.07,0.48-2.44-0.98-2.84c-1.46-0.4-2.17,0.78-2.65,1.9
		c-1.3,3.01-1.15,6.27-1.41,9.43c-0.63,7.72-1.29,15.43-1.79,23.16c-0.51,7.89-1.17,15.76-1.72,23.64
		c-0.65,9.39-1.18,18.8-1.91,28.18c-0.19,1.31-0.74,2.52-1.86,3.16c-3.12,1.77-6.16,3.73-9.7,4.63
		c-7.26-14.73-12.91-30.04-16.59-46.05c-1.91-8.32-3.35-16.71-4.21-25.21c-0.81-7.95-1.37-15.91-1.26-23.89
		c0.17-12.54,1.32-24.98,3.6-37.34c3.51-18.96,9.58-37.05,18.1-54.31c8.72-17.65,19.76-33.72,33.05-48.27
		c17.49-19.14,37.79-34.55,60.95-46.19c17.21-8.65,35.32-14.76,54.24-18.35c8.22-1.56,16.53-2.57,24.9-3.13
		c8.47-0.57,16.94-0.67,25.38-0.22c23.86,1.28,46.88,6.44,68.95,15.68c4.35,1.82,8.6,3.84,12.86,5.86c0.79,0.37,1.5,0.89,2.25,1.34
		c-0.51,3.26-0.12,6.53-0.06,9.79c0.07,4.21-1.58,7.01-5.57,8.5c-1.73,0.65-3.51,1.08-5.24,1.7c-1.27,0.46-2.61,0.79-3.8,2.19
		c1.73-0.19,2.94-0.94,4.24-1.36c1.29-0.42,2.57-0.88,3.84-1.37c5.14-1.96,6.48-1.03,6.48,4.45c0,5.19-0.01,10.39,0.01,15.58
		c0,0.85-0.22,1.76,0.5,2.65c1.03-0.37,1.02-1.3,1-2.1c-0.11-5.51,0.35-11.02-0.34-16.52c-0.62-4.97,0.98-7.53,5.76-9.05
		C361.84,74.25,365.07,72.83,367.83,70.45z"/>
	<path class="st2" d="M387.14,316.91c1.03,1.85,2.63,2.97,4.66,3.44c3.56,0.84,6.65,2.57,9.58,4.69c2.39,1.73,4.9,3.26,7.86,3.84
		c1.16,1.42,2.44,2.72,3.91,3.82c1,1.21,1.98,2.45,3.02,3.62c1.8,2.03,3.92,3.64,6.55,4.47c0.54-0.1,1.01,0.17,1.2,0.58
		c0.73,1.56,2.17,2.21,3.57,2.91c1.36,4.54,4.86,7.33,8.33,10.14c0.62,1.1,1.87,1.68,2.47,2.97c-1.95,0.77-4.08,0.64-5.87,1.64
		c-1.51,1.82-3.92,2.27-5.69,3.79c-3.76,3.23-6.21,7.13-7.19,11.98c-0.14,0.66,0.01,1.47-0.82,1.83c-0.43,0.83-0.06,1.77-0.38,2.61
		c-1.49,0.17-1.98-1.11-2.77-1.94c-8.52-8.87-17.22-17.57-27.5-24.45c-9.56-6.39-19.6-6.02-29.65-1.35
		c-8.34,3.88-14.77,10.27-20.89,16.94c-9.07,9.89-16.92,20.82-25.88,30.8c-12.76,14.22-27.77,25.48-45.61,32.57
		c-10.52,4.18-21.48,6.65-32.92,6.63c-3.99-0.01-7.97,0.06-11.95-0.24c-3.64-0.95-7.4-1.22-10.58-1.36c2.12,0.68,4.7,1.94,7.45,2.78
		c22.67,5.99,44.85,5.36,66.45-4.59c7.41-3.41,14.05-7.87,20.15-13.22c1.03-0.9,2.14-1.67,3.44-2.13c0.45-0.16,0.99-0.36,1.38-0.02
		c0.5,0.42,0.3,1.03,0.1,1.56c-0.49,1.27-1.13,2.47-1.79,3.66c-6.29,11.42-15.67,19.65-26.99,25.78c-3.56,1.93-7.09,4.04-11.14,4.92
		c-0.47,0.1-0.93,0.27-1.41,0.13c-7.03,2.43-14.25,4.09-21.63,4.92c-7.71,0.87-15.44,1-23.19,0.28
		c-24.33-2.26-45.35-12.18-64.04-27.52c-1.42-1.16-2.76-2.4-4.14-3.61c-3.74-1.67-5.81-5.16-8.39-8.01
		c-7.55-8.34-13.01-18.08-18.28-27.95c-4.09-7.67-8.16-15.37-14.6-21.46c-5.86-5.55-12.85-6.95-20.59-5.65
		c-2.44,0.41-4.13,2.37-6.46,2.98c-0.42-0.07-0.33-0.46-0.45-0.72c-0.17-1.29,0.17-2.54,0.39-3.78
		c1.96-10.95-5.95-20.71-14.94-22.64c-0.8-0.17-1.55-0.38-2.09-1.04c-0.17-0.19-0.35-0.37-0.52-0.56c2.35-1.48,4.71-2.93,7.36-3.83
		c1.66-0.57,2.81-1.75,3.63-3.27c1.01-1.18,2.26-1.77,3.83-1.52c3.16,0.22,6.18-0.02,8.6-2.42c0.48-0.46,1.06-0.53,1.68-0.43
		c0.91,0.28,1.81,0.16,2.71-0.05c0.62-0.1,1.18,0.08,1.71,0.4c6.98,0.71,13.64,2.52,19.84,5.88c1.1,0.66,1.87,1.75,3.06,2.3
		c2.18,3.77,5.57,6.54,8.2,9.94c6.16,7.96,11.35,16.55,16.67,25.07c4.18,6.69,8.06,13.57,12.48,20.11c1.43,2.12,3,4.12,4.82,5.92
		c0.8,0.8,1.51,1.67,2.12,2.62c3.4,5.81,7.96,10.63,12.83,15.21c2.26,2.12,4.86,3.83,7.24,5.81c0.59,0.6,1.25,1.11,1.9,1.64
		c2.16,2.29,4.86,3.24,7.96,3.22c2.55-0.01,5.11-0.1,7.65,0.02c4.45,0.22,8.76-0.17,12.79-2.25c2.61-0.41,5.25-0.02,7.88-0.35
		c4.01-0.5,7.72-1.94,11.43-3.38c3.2-0.51,6.14-1.72,8.89-3.41c1.43-0.88,2.93-1.64,4.45-2.34c3.14-1.45,6.17-3,7.99-6.15
		c0.63-0.3,1.34-0.3,1.98-0.57c3.43-1.31,6-3.65,7.99-6.68c0.54-0.46,1.12-0.87,1.82-1.06c2.1-0.09,3.53-1.48,4.89-2.78
		c5.75-5.53,11.85-10.7,17.43-16.41c8.59-8.8,16.34-18.35,24.22-27.78c6.5-7.78,12.79-15.74,20.13-22.77
		c9.21-8.82,20.02-14.61,32.69-16.2c5-0.63,10.18-0.24,15.26,0.21C384.6,316.32,386.04,316.12,387.14,316.91z"/>
	<path class="st3" d="M268.26,455.73c11.19-4.03,21.17-10.03,29.57-18.52c4.59-4.64,8.21-9.97,11.08-15.82
		c0.21-0.42,0.36-0.88,0.52-1.32c0.02-0.05-0.07-0.13-0.16-0.27c-1.88,0.66-3.48,1.8-4.95,3.12c-11.98,10.77-26.2,16.81-41.84,19.78
		c-14.79,2.81-29.39,1.47-43.87-2.23c-0.23-0.06-0.44-0.18-0.66-0.28c-0.65-0.44-1.46-0.85-1.09-1.83c0.39-1.02,1.26-1.04,2.18-0.84
		c0.77,0.17,1.58-0.1,2.33,0.22c29.23,2.23,54.43-7.4,76.59-26.01c8.37-7.03,15.51-15.19,22.34-23.68
		c5.36-6.66,10.67-13.37,16.47-19.66c4.29-4.65,8.8-9.07,13.85-12.88c6.67-5.03,14.05-8.1,22.58-8.01
		c4.92,0.05,9.44,1.35,13.64,3.85c5.88,3.49,10.96,7.99,15.98,12.57c5.37,4.91,10.46,10.1,15.52,15.32
		c-1.54,2.45-3.56,4.51-5.45,6.66c-19.6,22.14-42.81,39.45-69.67,51.82c-16.17,7.44-33.05,12.7-50.58,15.77
		c-7.3,1.28-14.66,2.28-22.09,2.58C269.77,456.11,268.94,456.37,268.26,455.73z"/>
	<path class="st3" d="M86.94,369.7c3.47-3.54,7.87-4.26,12.54-4.07c7.8,0.32,13.75,4.1,18.51,10.03
		c4.21,5.25,7.46,11.11,10.68,16.98c2.14,3.91,4.22,7.87,6.45,11.73c5.46,9.45,12.22,17.9,20.13,25.42
		c-0.76,0.79-1.35,0.01-1.89-0.3c-2.77-1.6-5.52-3.21-8.23-4.91c-15.1-9.49-28.72-20.78-40.95-33.75
		c-5.76-6.11-11.14-12.54-16.1-19.32C87.67,370.94,87.32,370.31,86.94,369.7z"/>
	<path class="st4" d="M367.83,70.45c-0.98,1.98-2.72,3.09-4.68,3.86c-1.63,0.64-3.31,1.13-4.96,1.72c-4,1.44-5.12,2.92-4.87,7.11
		c0.38,6.22,0.11,12.44,0.13,18.66c0,0.55-0.07,1.11-0.2,1.65c-0.15,0.65-0.72,0.87-1.29,0.81c-0.57-0.06-1.08-0.36-1.13-1.03
		c-0.04-0.56-0.03-1.12-0.03-1.67c0.01-6.06,0.03-12.12,0.04-18.19c0.01-3.54-0.81-4.12-4.18-2.93c-3.37,1.19-6.74,2.41-10.11,3.63
		c-0.29,0.1-0.57,0.32-0.99-0.06c0.01-1.04,0.56-1.84,1.5-2.38c0.96-0.55,1.93-1.07,3.04-1.33c2.17-0.51,4.26-1.28,6.35-2.07
		c2.8-1.07,4.15-3.1,4.26-6.02c0.11-2.79,0.3-5.58-0.17-8.36c-0.2-1.19-0.01-2.22,1-2.99c0.94-0.15,1.6,0.27,2.09,1.03
		c1.26,2.07,0.62,4.35,0.66,6.53c0.09,5.69,0.01,5.6,5.4,3.92c2.63-0.82,5.03-2.45,7.94-2.29
		C367.83,70.14,367.89,70.27,367.83,70.45z"/>
	<path class="st5" d="M69.86,341.52c0.92,0.16,1.86,0.25,2.75,0.5c13.07,3.72,17.8,17.52,13.88,26.96c-0.74-0.51-1.16-1.3-1.66-2.01
		c-5.37-7.71-10.23-15.74-14.49-24.12C70.13,342.43,70.02,341.96,69.86,341.52z"/>
	<path class="st1" d="M367.66,70.06c-3.62,1.63-7.43,2.76-11.18,4.07c-1.91,0.67-2.64,0.12-2.76-1.97
		c-0.2-3.42-0.25-6.84-0.07-10.26C358.53,64.26,363.23,66.92,367.66,70.06z"/>
	<path class="st6" d="M418.72,376.65c1.04-8.61,5.56-14.51,13.7-17.6c0.34,0.38,0.14,0.73-0.08,1.07
		c-3.88,6.11-8.08,11.98-12.62,17.61c-0.14,0.17-0.36,0.28-0.54,0.42C418.53,377.77,418.96,377.11,418.72,376.65z"/>
	<path class="st7" d="M326.25,153.28c4.57-2.04,9.32-3.56,14.05-5.17c6.84-2.32,13.68-4.65,20.65-6.53c1.95-0.53,2.06-0.78,1.7-3.4
		c0.12-0.67,0.56-1.03,1.16-1.23c1.77,0.79,3.57,1.52,5.24,2.53c0.79,0.94,1.69,1.79,2.51,2.7c0.75,3.89,1.33,7.78,0.64,11.75
		c-0.04,22.62,0.01,45.23-0.04,67.84c-0.01,2.29,0.38,4.44,1.3,6.51c-1.15,1.96-0.42,4.38-1.51,6.36
		c-0.05,4.71-0.11,9.42-0.14,14.12c-0.12,16.29-0.17,32.58,0.02,48.86c0.01,1.19-0.01,2.38-0.25,3.57
		c-0.41,2.08-1.71,3.23-3.64,3.66c-2.89,0.64-5.86,0.77-8.81,0.77c-1.95,0-2.48-0.65-2.54-2.67c-0.04-1.44,0.02-2.87,0.02-4.31
		c-0.07-19.72,0.11-39.44,0.38-59.16c0.02-1.27,0.14-2.56-0.2-3.81c-0.48-1.76-1.42-2.33-3.21-1.99c-1.09,0.21-2.08,0.83-3.22,0.87
		c-1.7-0.03-3-0.85-4.05-2.12c-0.51-0.63-0.96-1.29-0.32-2.11c2.16-0.82,4.31-1.64,6.48-2.44c3.32-1.23,4.87-3.7,4.99-7.15
		c0.06-1.75,0.11-3.51,0.11-5.27c0.05-19.4-0.09-38.8,0.19-58.2c0.01-1.03-0.04-2.08-0.23-3.1c-0.26-1.39-1.01-1.89-2.42-1.64
		c-0.85,0.15-1.68,0.5-2.5,0.79c-4.66,1.64-9.42,2.93-14.24,3.97c-3.18-0.52-6.53,0.16-9.55-1.35
		C327.68,155.37,326.14,155.09,326.25,153.28z"/>
	<path class="st8" d="M298.51,127.09c-6.19-2.97-12.51-5.58-19.21-7.22c-15.62-3.83-30.86-2.51-45.85,3.09
		c-16.87,6.3-29,17.9-37.82,33.33c-6.96,12.17-10.16,25.27-9.71,39.23c0.27,8.41,1.51,16.69,4.59,24.6c0.43,1.11,0.94,2.2,1.47,3.27
		c0.38,0.78,0.54,1.5-0.24,2.24c-1.47-1.72-2.46-3.72-3.54-5.65c-4.39-7.88-7.48-16.23-8.89-25.16c-1.12-7.07-1.05-14.18-0.08-21.25
		c2.07-15.21,8.25-28.59,18.29-40.18c9.43-10.88,21.3-17.9,34.98-22.04c9.27-2.8,18.73-3.97,28.4-2.95
		c8.67,0.91,16.82,3.58,24.61,7.42c5.39,2.66,10.54,5.66,15.05,9.68C300.83,127.27,299.96,127.56,298.51,127.09z"/>
	<path class="st9" d="M121.44,338.08c-1.66,0.08-2.3-1.02-2.74-2.36c6.42-8.71,11.05-18.25,13.3-28.88c0.67-3.16,1-3.42,4.19-3.82
		c10.23-1.27,19.63-4.73,28.08-10.7c1.21-0.85,2.14-1.89,2.83-3.18c2.64-2.65,5.12-5.47,7.8-8.09c3.19-2.62,5.08-6.12,6.55-9.86
		c1.22-3.12,2.32-6.29,3.29-9.49c1.01-3.32,3.06-5.18,6.53-5.82c8.23-1.53,16.34-3.62,24.48-5.59c0.7-0.17,1.38-0.38,2.07-0.58
		c0.92-0.82,2.05-1.18,3.23-1.44c4.43-0.99,8.92-1.74,13.17-3.43c0.7-0.28,1.39-0.34,2.07,0.06c0.73,0.01,1.47,0.02,2.2,0.04
		c0.8-0.36,1.7,0.07,2.5-0.32c2.23-0.26,4.36-0.94,6.47-1.65c3.67-1.23,5.21-0.54,6.81,3.02c0.29,0.65,0.55,1.33,0.85,1.98
		c5.77,12.57,15.73,19.49,29.23,21.61c6.98,1.1,13.64-0.25,20.15-2.71c1.27-0.48,2.51-1.04,3.79-1.45c1.84-0.59,2.51-0.26,3.03,1.56
		c0.44,1.53,0.7,3.11,1.07,4.66c2.58,10.68,7.54,19.98,15.97,27.18c9.36,8,20.28,11.41,32.55,10.64c6.2-0.39,12.08-2.01,17.81-4.3
		c2.15-0.86,4.14-2.03,6.08-3.29c2.04-1.32,2.79-0.85,2.86,1.64c0.01,0.4,0.01,0.8-0.01,1.2c-0.17,4.07-0.33,8.13-0.5,12.2
		c-1.42,0.12-2.84,0.21-3.93-1c-0.65-1.49-0.84-3.08-0.89-4.67c-0.06-1.74-0.84-2.11-2.31-1.42c-3.5,1.64-7.21,2.63-10.95,3.47
		c-16.14,3.61-30.74,0.25-43.64-10.04c-8.39-6.69-13.41-15.72-16.94-25.66c-1.95-5.5-1.85-5.41-7.36-3.95
		c-17.67,4.68-32.64-0.01-44.96-13.34c-2.11-2.29-3.61-5.06-5.02-7.85c-1.65-3.26-3.38-4.15-7-3.52c-6.54,1.14-12.9,3.05-19.36,4.56
		c-9.65,2.25-19.3,4.51-28.99,6.56c-3.52,0.74-5.57,2.61-6.81,5.92c-3.6,9.61-8.75,18.26-16.25,25.43
		c-8.87,8.48-19.52,13.17-31.49,15.06c-3,0.47-4.72,1.79-5.56,4.7c-2.63,9.05-6.5,17.51-12.18,25.09
		C122.94,336.98,122.54,337.93,121.44,338.08z"/>
	<path class="st10" d="M150.74,223.94c2.03,2.49,4.42,4.61,6.83,6.7c4.7,4.09,9.47,8.1,14.38,11.94c1.43,1.12,2.85,2.25,3.65,4.04
		c-1.72,0.88-3.04,0.39-4.37-0.49c-6.14-4.03-12.29-8.03-18.45-12.04c-0.73-0.48-1.47-0.98-2.27-1.32c-1.15-0.49-1.79-0.18-2.23,1
		c-0.19,0.51-0.29,1.08-0.32,1.63c-0.52,8.69-1.03,17.38-1.52,26.08c-0.32,5.74-0.5,11.5-0.96,17.23c-0.26,3.22,1.08,5.13,3.89,6.36
		c3.44,1.51,6.59,3.53,9.62,5.76c-1.58,1.87-3.19,2.29-5.53,1.37c-1.41-0.55-2.75-1.26-4.14-1.87c-0.65-0.29-1.32-0.56-2.01-0.75
		c-1.53-0.44-2.02-0.12-2.24,1.48c-0.1,0.71-0.11,1.43-0.1,2.15c0.02,4.41-5.07,7.34-8.89,6.48c-1.65-0.37-2.3-1.23-2.08-2.92
		c0.21-1.66,0.62-3.29,0.87-4.95c0.68-4.36-0.27-5.28-4.58-4.38c-5.23,1.09-10.45,2.25-15.67,3.35c-6.64,1.39-13.3,2.67-20.08,3.21
		c-0.39,0.03-0.79,0-1.19-0.01c-1.33,0.39-1.91-0.26-2.06-1.5c6.95-3.1,14.32-4.82,21.65-6.67c6.49-1.64,12.94-3.41,19.48-4.85
		c2.49-0.55,3.39-1.69,3.53-4.14c0.81-14.19,1.61-28.37,2.39-42.56c0.09-1.57,0.01-3.16,0.01-4.9c-14.5,4.76-29.05,9.4-44.33,11.68
		c0.22-0.31,0.32-0.58,0.51-0.67c3.43-1.66,6.49-4.01,10.14-5.26c11.46-3.91,22.9-7.86,34.35-11.8c0.37-0.13,0.72-0.31,1.28-0.55
		c-1.29-0.9-2.46-0.75-3.68-0.46c-5.2,1.22-10.33,2.66-15.33,4.55c-3.2,1.21-6.44,2.3-10.15,2.87c0.86-1.01,1.8-1.38,2.64-1.84
		c7.89-4.37,16.33-7.13,25.21-8.64c1.99-0.34,3.58,0.43,5.14,1.47c1.45,0.97,2.79,2.16,4.68,2.2
		C149.8,222.53,150.18,223.41,150.74,223.94z"/>
	<path class="st11" d="M371.95,234.65c-0.02-1.41-0.03-2.82-0.05-4.23c-0.01-1.03,0.45-1.63,1.5-1.71c0.92-0.58,1.7,0,2.46,0.37
		c12.15,5.87,24.15,12.03,35.94,18.58c1.82,1.01,3.66,1.97,5.56,2.81c2.02,0.88,2.84,0.47,2.76-1.62c-0.3-7.97-0.26-15.94-0.77-23.9
		c-0.04-0.56-0.15-1.11-0.13-1.67c0.31-9.5-0.78-18.97-0.48-28.47c0.11-3.36-0.65-6.67-0.56-10.03c0.05-1.57-0.88-2.71-2.2-3.48
		c-13-7.66-25.51-16.1-38.18-24.28c-2.02-1.3-4.33-2.04-6.31-3.41c0.51-1.7,0.6-3.4,0.1-5.13c-0.36-1.24-0.14-2.52-0.18-3.78
		c-0.02-0.95,0.05-1.9-0.49-2.76c1.14-0.88,2.1-0.64,2.92,0.45c3.14,1.73,6.01,3.87,8.91,5.97c7.82,5.65,15.21,11.83,22.54,18.09
		c7.03,6,14.03,12.02,21.24,17.8c1.34,2.44-0.86,1.82-1.9,2.2c-0.98,0.49-0.98,1.38-0.88,2.27c0.69,6.28,0.52,12.59,0.76,18.89
		c0.58,15.87,0.91,31.76,1.22,47.64c0.37,18.99,1.09,37.98,1.59,56.97c0.28,10.69,0.4,21.39,0.17,32.08
		c-1.63,0.31-2.78-0.29-3.48-1.81c-0.3-0.66-0.71-1.24-1.3-1.69c0.27-0.86,0.14-1.74,0.12-2.62c-0.38-17.32-0.74-34.63-1.15-51.95
		c-0.22-9.42-0.58-18.83-0.79-28.24c-0.05-2.13-0.92-3.35-2.87-4.15C402.65,247.47,387.3,241.05,371.95,234.65z"/>
	<path class="st12" d="M345.99,230.33c0.11,1.8,1.48,2.56,2.79,3.38c0.51,0.32,1.25,0.2,1.58,0.85c-4.61,1.99-9.45,3.32-14.27,4.68
		c-15.19,4.29-30.41,8.45-45.87,11.67c-0.39,0.08-0.77,0.27-1.16,0.29c-0.95,0.04-1.15,0.58-1.17,1.42
		c-0.1,3.43-0.27,6.86-0.39,10.3c-0.08,2.23-0.49,2.61-2.76,2.41c-3.21-0.28-4.03-1.11-3.98-4.38c0.21-14.86,0.45-29.72,0.71-44.58
		c0.19-10.78,0.42-21.57,0.63-32.35c0.01-0.32,0-0.64,0-0.96c0.06-3.53,1.48-4.95,4.97-4.95c1.87,0,2.45,0.5,2.44,2.41
		c-0.02,3.28-0.12,6.55-0.23,9.82c-0.28,8.7-0.59,17.41-0.87,26.11c-0.28,8.3-0.57,16.61-0.8,24.91c-0.08,2.77-0.12,5.56,0.28,8.35
		c0.98,0.08,1.67-0.35,2.4-0.6c15.75-5.41,31.48-10.86,47.24-16.25C340.31,231.91,343.17,231.17,345.99,230.33z"/>
	<path class="st13" d="M300.63,231.17c0.22-3.9,0.29-7.88,0.07-11.85c-0.23-4.15-0.24-8.3-0.23-12.46
		c0.04-16.62,7.81-28.73,21.73-37.23c4.15-2.54,8.57-2.41,12.87-0.53c7.72,3.37,12.03,9.22,12.29,17.8
		c0.28,9.27,0.06,18.53,0.05,27.8c0,2.29-0.32,2.78-2.26,3.37c-14.41,4.36-28.83,8.71-43.25,13.04
		C301.55,231.22,301.18,231.45,300.63,231.17z"/>
	<path class="st14" d="M91.27,292.49c0.68,0.51,0.95,1.58,2.06,1.5c-0.07,0.04-0.13,0.11-0.21,0.12c-5.12,0.6-5.95,3.57-6.19,7.3
		c-0.49,7.87-1.3,15.72-2.14,23.56c-0.26,2.45-0.44,4.92-0.65,7.38c-1.24,0.61-2.5,1.15-3.83,1.52c-0.12-4.08,0.41-8.13,0.62-12.19
		c0.33-6.46,0.83-12.9,1.31-19.35c0.7-9.47,1.45-18.94,2.17-28.41c0.54-7.08,1.1-14.16,1.59-21.25c0.13-1.88,0.64-3.61,1.46-5.26
		c0.68-1.36,1.62-1.82,2.89-1.62c1.35,0.21,2.01,0.86,1.96,2.24c-0.04,1.11-0.36,2.2-0.48,3.31c-0.84,8.09-1.64,16.19-2.49,24.29
		c-0.36,3.41-0.8,6.81-1.18,10.22c-0.12,1.03-0.24,2.06-0.26,3.1C87.82,291.93,88.26,292.37,91.27,292.49z"/>
	<path class="st15" d="M413.16,332.71c-2.16-0.4-3.49-1.64-3.91-3.82c0.68-0.67,0.78-1.49,0.77-2.42c-0.1-6.87,0.29-13.73,0.5-20.59
		c0.27-8.57-0.13-17.06-2.57-25.37c-1.56-5.32-4.34-9.92-7.75-14.19c-1.94-2.43-3.85-2.94-6.8-1.95c-3.49,1.17-5.86,3.42-6.8,7.09
		c-0.96,3.76-1.04,7.58-1.04,11.41c0,3.11,0.12,6.23-0.12,9.34c-0.08,1.04,0.02,2.07,0.22,3.1c0.13,0.7,0.15,1.43-0.16,2.12
		c-0.38,0.86-1.11,1.14-1.95,1.03c-0.73-0.09-1.07-0.65-1.14-1.35c-0.05-0.48-0.07-0.96-0.06-1.43c0.17-6.94-0.02-13.89,0.53-20.83
		c0.09-1.2,0.24-2.38,0.51-3.55c1.35-5.63,6.06-9.79,11.8-10.38c3.36-0.34,5.86,1.17,7.82,3.74c2.91,3.83,5.32,7.96,7.09,12.44
		c1.96,4.93,3.11,10.05,3.19,15.38c0.07,4.55,0.15,9.1,0.12,13.65C413.37,314.99,413.25,323.85,413.16,332.71z"/>
	<path class="st16" d="M217.94,247.91c-0.68-0.75-0.85-1.68-1-2.64c-0.22-1.35-0.63-2.6-1.61-3.66c-0.78-0.84-0.62-1.41,0.41-1.74
		c1.06-0.34,2.15-0.65,3.29-0.4c0.7,0.15,1.43,0.2,2.11,0.42c2.42,0.8,4.06-0.79,3.95-3.27c-0.16-3.83-0.36-7.65-0.32-11.48
		c0.03-2.38-1-3.05-3.82-3.11c-1.88-0.04-2.62-0.71-2.57-2.3c0.03-0.95,0.44-1.51,1.42-1.56c0.08,0,0.16,0,0.24-0.01
		c3.98-0.48,4.75-1.33,4.77-5.3c0-0.88-0.1-1.76-0.06-2.63c0.04-0.91,0.32-1.74,1.27-2.13c1.09-0.45,2.2-0.48,3.22,0.17
		c0.69,0.44,0.69,1.2,0.67,1.94c-0.04,1.28-0.15,2.56-0.07,3.83c0.15,2.49,1.16,3.36,3.68,3.32c0.24,0,0.48-0.03,0.72-0.06
		c0.9-0.11,1.88-0.18,2.27,0.82c0.39,1,0.22,2.06-0.38,2.98c-0.56,0.87-1.37,1-2.31,0.71c-0.38-0.12-0.77-0.22-1.17-0.25
		c-1.7-0.14-2.55,0.55-2.77,2.23c-0.04,0.32-0.03,0.64-0.03,0.96c-0.03,3.99-0.07,7.99-0.07,11.98c0,2.88,1,3.85,3.9,3.91
		c3.03,0.06,3.32,0.48,2.34,3.4c-0.59,1.21-1.91,1.05-2.87,1.3c-4.27,1.13-8.61,2.03-12.96,2.84
		C219.42,248.32,218.64,248.5,217.94,247.91z"/>
	<path class="st17" d="M326.25,153.28c1.59,2.17,4,2.64,6.43,3.01c0.78,0.12,1.59,0.07,2.38,0.01c1.24-0.09,2.36,0.14,3.3,0.99
		c-4.97,1.96-10.14,3.28-15.26,4.76c-14.18,4.09-28.53,7.44-42.99,10.39c-0.69,0.14-1.38,0.34-2.23,0.11
		c0.58-0.79,1.43-1.05,2.17-1.44c4.32-2.24,8.89-3.92,13.38-5.77c3.76-1.55,7.47-3.22,10.92-5.39c0.62-0.39,1.21-0.69,1.99-0.59
		c3.01,0.38,5.6-0.84,8.19-2.16C318.25,155.32,322.03,153.63,326.25,153.28z"/>
	<path class="st18" d="M130.63,255.26c-0.29,5.74-0.57,11.48-0.88,17.22c-0.12,2.28-0.82,3.16-3.03,3.67
		c-8.31,1.92-16.52,4.24-24.87,5.98c-4.15,0.86-4.9,0.37-4.75-3.88c0.2-5.5,0.55-10.99,1.01-16.47c0.24-2.89,1.32-5.56,2.99-7.98
		c2.88-4.17,6.34-7.8,10.27-10.99c2.35-1.91,5.04-2.61,8.06-2.19c6.79,0.94,11.47,6.39,11.29,13.21c-0.01,0.48-0.04,0.96-0.07,1.44
		C130.64,255.26,130.64,255.26,130.63,255.26z"/>
	<path class="st19" d="M373.85,142.39c-0.92-0.53-1.92-0.48-2.92-0.45c-1.46-0.18-1.68-1.31-1.88-2.45
		c0.85,0.18,1.69,0.36,2.54,0.55c0.98-4.35-1.06-8.65-5-10.55c-2.48-1.2-5.17-1.66-7.86-1.91c-6.01-0.56-11.96,0.03-17.88,1.08
		c-3.73,0.66-6.4,2.74-8.19,6.01c-0.76,1.39-1.39,2.85-2.22,4.56c-2.47-4.61-3.31-8.97-0.64-13.51c1.94,0.76,0.61,2.59,1.24,3.77
		c0.64,0.65,1.23,0.16,1.7-0.19c5.54-4.06,11.92-5.03,18.55-5.05c3.19-0.01,6.37,0.08,9.56,0.07c2.17-0.01,4.01,0.87,5.82,1.89
		c1.43,0.81,2.81,1.76,4.74,1.85c0.11-2.06-0.81-3.57-2.04-4.96c-1.15-1.31-2.67-2.27-3.7-3.71c-0.05-1.05,0.41-1.37,1.37-0.95
		c0.91,0.63,1.87,1.21,2.72,1.91c5.22,4.29,6.67,9.79,5.22,16.25C374.55,138.5,373.72,140.35,373.85,142.39z"/>
	<path class="st20" d="M315.72,256.01c12.5-8.77,28.81-1.24,30.33,13.94c0.91,9.09,0.35,18.19,0.33,27.28
		c0,1.36-0.01,2.72-0.07,4.07c-0.04,0.92-0.22,1.79-1.45,1.78c-1.19,0-1.46-0.81-1.51-1.75c-0.04-0.79,0.02-1.59,0.03-2.39
		c0.03-7.67,0.08-15.33,0.07-23c0-2.31-0.26-4.61-0.79-6.88c-1.76-7.53-7-12.29-14.68-13.5c-3.6-0.57-6.98-0.23-10.18,1.56
		C316.81,257.31,315.77,257.59,315.72,256.01z"/>
	<path class="st21" d="M166.12,286.18c-2.7-1.53-5.36-3.11-8.26-4.28c-3.47-1.4-4.98-4.27-5.13-7.95c-0.14-3.52,0.54-7,0.6-10.51
		c0.04-2.47,0.23-4.94,0.39-7.41c0.09-1.35,0.15-2.72,0.39-4.05c0.66-3.58,3.91-6.47,7.48-6.71c1.6-0.11,2.94,0.54,4.1,1.63
		c1.3,1.22,2.22,2.71,3.12,4.22c3.44,5.8,4.92,12.04,4.34,18.8c-0.28,3.34-0.25,6.7-0.36,10.05c-0.42,1.03-1.24,1.92-2.25,1.43
		c-1.24-0.61-1.16-2.05-1.01-3.31c0.96-7.48,1.63-14.93-1.46-22.14c-0.8-1.86-1.84-3.54-3.12-5.08c-2.42-2.91-3.94-2.92-6.63-0.13
		c-2.12,2.19-1.86,5.11-1.93,7.7c-0.13,4.85-0.62,9.68-0.68,14.54c-0.04,3.43,1.45,5.58,4.45,6.9c1.46,0.64,2.96,1.19,4.34,2
		c0.84,0.56,1.72,1.09,2.42,1.82C168.12,284.95,167.93,285.49,166.12,286.18z"/>
	<path class="st22" d="M94.74,329.9c-0.66,0.01-1.32,0.01-1.99,0.02c0-4.62-0.12-9.26,0.94-13.81c1.76-7.55,6.43-13,13.01-16.63
		c7.16-3.95,15.13-1.24,18.41,5.82c2.15,4.63,1.22,9.05-1.05,13.36c-0.67-3.27,0.02-6.6-0.59-9.86c-1.13-1.54-1.79-3.38-3.11-4.81
		c-3.07-3.31-6.74-4.22-10.83-2.32c-8.7,4.04-13.21,10.98-13.75,20.51C95.64,324.79,96.12,327.46,94.74,329.9z"/>
	<path class="st23" d="M150.74,223.94c-0.85,0.03-1.28-0.77-1.98-1.02c0.45-3.09-1.06-5.01-3.74-6.23
		c-3.58-1.64-7.37-2.02-11.23-1.77c-2.07,0.14-4.12,0.52-6.19,0.68c-1.82,0.14-3.11,1.08-4.22,2.42c-0.75,0.89-1.32,1.98-2.4,2.6
		c-2.09-3.76-1.48-6.94,1.78-9.53c0.13,1.12-0.78,1.93-0.78,3.08c0.89,0.28,1.67-0.25,2.45-0.47c3.94-1.1,7.9-1.87,12.02-1.8
		c3.32,0.06,6.49,0.68,9.53,2.01c1.17,0.45,2.13,0.38,2.69-0.96c0.18-0.42,0.58-0.76,1.15-0.53c1.62,1.5,2.13,3.42,2.1,5.54
		C151.9,220.02,151.41,222,150.74,223.94z"/>
	<path class="st24" d="M363.81,136.95c-0.19,0.59-0.61,0.98-1.16,1.23c-2.89-1.01-5.76-0.85-8.69-0.06
		c-11.57,3.14-22.7,7.39-33.22,13.18c-0.55,0.3-1.04,0.79-1.72,0.79c-0.41,0-0.79-0.14-0.97-0.57c-0.2-0.46,0.05-0.74,0.42-0.96
		c0.28-0.16,0.54-0.33,0.82-0.49c11.77-6.64,24.14-11.8,37.3-15C359.4,134.4,361.79,134.86,363.81,136.95z"/>
	<path class="st25" d="M94.74,329.9c0.57-4.5,0.07-9.1,1.29-13.56c1.92-7.01,6.31-11.98,12.71-15.08c7.33-3.55,13.36,1,14.74,7.54
		c-1.63-1.23-3.03-2.76-4.84-3.75c-2.63-2.5-5.65-2.74-8.84-1.36c-7.75,3.35-11.69,9.34-12.08,17.71c-0.09,1.99,0,3.99-0.03,5.99
		c-0.01,0.86,0.1,1.78-0.67,2.45C96.28,330.46,95.52,330.71,94.74,329.9z"/>
	<path class="st26" d="M97.02,329.84c0.02-4.06-0.18-8.12,0.5-12.18c1.49-8.96,8.45-13.82,14.39-15.3c2.64-0.66,4.85,0.29,6.77,2.08
		c0.2,0.19,0.17,0.42-0.05,0.6c-4.02-1.93-7.78-1.26-11.23,1.32c-4.13,3.09-6.73,7.17-7.51,12.33c-0.56,3.7-1.03,7.41-1.03,11.16
		C98.24,329.84,97.63,329.84,97.02,329.84z"/>
	<path class="st27" d="M126.57,183.38c1.61-0.51,3.24-0.93,4.79-1.52c5.49-2.08,7.62-5.85,6.65-11.67c-0.05-0.31-0.07-0.62-0.11-1
		c1.47,1.08,1.92,1.88,1.66,3.48c-0.19,1.2-0.28,2.39-0.18,3.58c0.14,1.72,0.81,2.28,2.5,2.09c1.51-0.17,2.94-0.69,4.37-1.2
		c0.88-0.31,1.82-0.99,3.06-0.22c-0.73,0.74-1.58,0.68-2.29,0.83c-5.58,1.22-8.32,4.4-8.77,10.13c-0.25,3.19,0.14,6.4-0.33,9.57
		c-0.07,0.47,0.02,0.97-0.37,1.34c-0.77-0.01-0.62-0.61-0.61-1.03c0.02-3.83-0.22-7.67,0.14-11.5c0.02-0.24,0.06-0.48,0.06-0.72
		c0.02-2.8-1.06-3.65-3.71-2.88c-1.07,0.31-2.1,0.75-3.18,1.05C128.66,184.17,128.56,184.13,126.57,183.38z"/>
	<path class="st28" d="M338.38,300.75c-6.58-4.1-10.73-10.12-13.61-17.14c-1.55-3.78-2.65-7.69-3.61-11.64
		c-0.15-0.6-0.69-1.52,0.27-1.85c0.86-0.3,1.51,0.35,1.9,1.11c0.22,0.42,0.37,0.89,0.47,1.35c2.1,10.18,7.04,18.92,13.57,26.86
		C337.72,299.87,338.05,300.32,338.38,300.75z"/>
	<path class="st29" d="M166.12,286.18c1.51-1.15,1.51-1.21,0.17-2.31c-0.54-0.44-1.25-0.69-1.63-1.33
		c1.31-4.56,0.54-9.24,0.75-13.87c0.06-1.25-0.16-2.54,0.44-3.73c1.25,0.19,1.31,0.19,1.39,1.59c0.14,2.22,0.03,4.45,0.06,6.68
		c0.02,1.66-0.08,3.33,0.23,4.79c0.31-1.71-0.16-3.79,1.57-5.26c1.48,0.45,1.06,1.7,1.08,2.71c0.02,0.91,0.2,1.85-0.17,2.75
		c-0.03,1.02,0.08,2.01,0.55,2.95c0.96-0.04,1.45-0.88,2.24-1.17c0.52,0.71,1.27,0.96,2.09,1.09c-1.99,3.28-4.45,6.12-7.8,8.09
		C166.67,288.2,166.28,287.23,166.12,286.18z"/>
	<path class="st30" d="M260.36,245.54c3.53-0.1,5.94,1.06,7.03,4.05c1.42,3.88,3.67,7.23,6.09,10.5c0.85,1.15,1.64,2.34,2.61,3.72
		c-0.85,0.05-1.17-0.42-1.53-0.71c-3.75-2.97-6.75-6.48-8.4-11.09C264.98,248.74,263.86,247.62,260.36,245.54z"/>
	<path class="st31" d="M334.48,261.77c-1.25,0.17-2.13-0.32-3.04-0.52c-4.36-0.95-8.21,0.12-11.75,2.67
		c-0.32,0.23-0.62,0.51-0.94,0.74c-0.53,0.37-1.1,0.77-1.69,0.11c-0.59-0.67-0.73-1.4-0.17-2.17c0.09-0.13,0.23-0.22,0.35-0.32
		C322.52,257.74,329.63,257.71,334.48,261.77z"/>
	<path class="st32" d="M179.48,268.4c-0.72-0.65-1.05-1.18-0.98-1.73c0.5-3.93,0.08-7.91,0.36-11.92c3.05,1.31,4.12,2.93,3.62,5.73
		C181.99,263.22,180.84,265.75,179.48,268.4z"/>
	<path class="st33" d="M217.94,247.91c5.82-1.18,11.64-2.36,17.45-3.55c0.22-0.05,0.42-0.21,0.63-0.32
		c0.09,0.29,0.17,0.59,0.26,0.88c-3.03,0.83-5.93,2.08-9.04,2.69c-3.16,0.62-6.28,1.41-9.42,2.13
		C217.86,249.12,217.9,248.52,217.94,247.91z"/>
	<path class="st34" d="M331.03,129.48c-0.67-0.42-0.47-1.11-0.44-1.69c0.05-0.84-0.18-1.52-0.8-2.08c2.25-4.3,5.7-7.02,10.59-7.81
		c-1.34,0.98-2.67,1.97-4.01,2.94c-1.23,0.89-2.32,1.92-3.34,3.04C331.59,125.45,330.66,127.24,331.03,129.48z"/>
	<path class="st35" d="M367.05,118.43c-0.63,0.06-1.1,0.36-1.37,0.95c-2.1-0.97-4.23-1.89-6.11-3.25c-2.03-1.47-3.26-3.38-3.27-5.98
		c1.04,2.68,3.21,4.09,5.68,5.2C363.78,116.17,365.63,116.95,367.05,118.43z"/>
	<path class="st36" d="M298.51,127.09c1.13,0.06,1.89-0.37,2.03-1.59c2.54,1.86,5.21,3.6,7.29,6.41c-1.84,0.22-3.06-0.51-4.23-1.28
		C301.87,129.5,300.2,128.28,298.51,127.09z"/>
	<path class="st37" d="M149.83,212.42c-0.24,0.2-0.57,0.35-0.7,0.61c-1,1.97-0.99,1.98-3.14,0.88c0.61,0.01,1.29,0.28,1.69-0.46
		c0.37-0.7-0.03-1.23-0.44-1.72c-0.72-0.84-1.35-1.76-2.32-2.38c-0.73-0.47-1.43-1.03-1.61-2.31
		C146.21,208.15,148.85,209.23,149.83,212.42z"/>
	<path class="st38" d="M315.72,256.01c0.39,0.94,1.24,1.02,2.08,1.11c-1.91,1.21-3.71,2.67-6.33,2.65
		C312.29,257.63,314.02,256.84,315.72,256.01z"/>
	<path class="st39" d="M424.63,186.44c0.19-0.13,0.38-0.39,0.55-0.38c1.43,0.1,1.49-0.78,1.35-1.82c1.74,1.39,3.6,2.66,5.39,4.57
		c-1.72-0.03-2.95-0.36-3.88-1.24C427.04,186.62,425.95,186.28,424.63,186.44z"/>
	<path class="st33" d="M240.99,244.63c-0.77,0.62-1.63,0.49-2.5,0.32C239.28,244.51,240.13,244.52,240.99,244.63z"/>
	<path class="st3" d="M121.44,338.08c6.34-8.27,10.95-17.4,13.7-27.45c0.8-2.92,2.56-4.3,5.55-4.73c10.97-1.58,20.9-5.66,29.4-12.89
		c7.83-6.66,13.24-15.06,17.22-24.44c0.62-1.47,1.22-2.95,1.79-4.44c0.9-2.36,2.56-3.76,5.02-4.31c7.54-1.69,15.09-3.38,22.61-5.14
		c8.38-1.96,16.75-3.98,25.12-5.98c0.15-0.04,0.3-0.11,0.45-0.15c5.41-1.29,7.56-0.31,10.04,4.66
		c5.05,10.12,13.47,16.19,23.96,19.59c8.59,2.78,17.24,2.84,25.86-0.12c4.44-1.52,4.96-1.25,6.39,3.14
		c2.48,7.58,5.91,14.64,11.07,20.78c7.7,9.18,17.44,14.74,29.29,16.63c5.08,0.81,10.18,0.69,15.29,0.63
		c0.63-0.01,1.29-0.09,1.89-0.3c2.94-1.03,5.99-1.65,8.97-2.52c1.68-0.49,3.32-1.11,4.91-1.88c2.54-1.23,2.99-0.94,3.12,1.95
		c0.08,1.59,0.08,3.19,0.12,4.79c-4.23,0.07-8.46,0-12.69-0.1c-3.54-0.09-6.94,0.93-10.3,1.91c-11.18,3.29-20.36,9.71-28.2,18.19
		c-9.32,10.09-17.79,20.9-26.63,31.4c-8.35,9.91-17.44,19.09-27.05,27.77c-2.01,1.82-4.05,3.62-5.98,5.52
		c-1.06,1.04-2.18,1.55-3.64,1.27c-1.2-2.59-0.79-5.37-0.47-7.98c0.52-4.29,0.49-8.6,0.68-12.88c0.38-8.52,0.87-17.04,1.19-25.56
		c0.41-10.99,1.79-21.99,1.21-32.96c-0.81-15.4-6.92-28.43-20.55-36.65c-12.37-7.46-25.45-7.4-38.63-1.88
		c-1.1,0.46-2.16,1.04-3.23,1.57c-8.06,3.45-14.31,9.15-19.69,15.9c-5.43,6.81-10.08,14.15-14.25,21.79
		c-2.35,4.3-3.71,8.97-4.66,13.76c-1.98,5.83-3.37,11.79-3.73,17.95c-0.49,3.24-0.36,6.49-0.08,9.74c0.06,0.28,0.08,0.57,0.07,0.86
		c-0.7,2.56-0.77,5.17-0.75,7.8c0.06,6.57-0.42,13.15,0.01,19.73c0.11,1.61-0.22,3.17-0.58,4.71c-0.2,0.84-0.41,1.76-1.58,1.77
		c-3.32-3.06-5.74-6.82-8.06-10.63c-6.5-10.69-12.9-21.44-19.81-31.87c-3.75-5.65-7.86-11.04-12.65-15.86
		C122.28,340.28,121.79,339.24,121.44,338.08z"/>
	<path class="st3" d="M267.24,402.87c-0.86,2.45-2.81,3.9-4.87,5.21c-0.98,0.63-2.01,1.21-3.17,1.5c-1.44-0.33-1.15-1.56-1.2-2.51
		c-0.1-1.99,0.04-3.98,0.02-5.97c0.82-11.13,0.44-22.33,1.15-33.44c0.81-12.65,1.98-25.27,1.67-37.96
		c-0.15-5.94-1.11-11.73-3.89-17.13c-2.25-4.37-5.59-7.73-9.27-10.83c-9.96-9.77-23.56-10.85-34.46-5.42
		c6.32-2.95,12.91-4,19.71-2.33c5.52,1.35,10.13,4.59,14.69,7.84c7.21,6.33,11.21,14.37,12.45,23.8c0.56,4.27,0.4,8.6,0.11,12.88
		c-0.26,3.98-2.62,5.88-6.64,5.94c-1.27,0.02-2.55-0.12-3.8,0.25c-3.21,0.04-6.11,1.04-8.77,2.8c-0.66,0.23-1.32,0.27-1.98,0.04
		c-0.41-0.18-0.69-0.48-0.84-0.9c-0.18-0.56-0.16-1.12-0.02-1.68c1.05-3.16,0.81-6.47,1.1-9.72c0.24-2.77,0.28-5.57,0.42-8.36
		c0.35-7.01,0.56-14.03,1.06-21.04c0.05-0.64,0.03-1.28-0.01-1.92c-0.13-2.22-0.64-2.61-2.68-1.69c-3.64,1.65-7.27,3.29-11.1,4.48
		c-2.35,0.73-3.42,2.74-3.39,5.03c0.08,6.47-1.31,12.82-1.19,19.33c0.1,5.32-0.44,10.68-0.36,16.03c-0.1,0.79,0.28,1.58,0.05,2.38
		c-0.25,0.65-0.72,1.1-1.29,1.47c-1.63,1.05-3.58,0.39-5.29,0.99c-6.99,0.92-13.77,2.74-20.49,4.82c-0.85,0.08-1.61-0.11-2.16-0.81
		c-1.08-2.54-0.14-5.07,0.18-7.55c1.45-11.08,5.32-21.21,12.49-29.9c3.41-4.13,7.2-7.91,11.74-10.84
		c-12.77,8.7-22.01,21.25-24.96,39.27c-1.22,7.49-1.49,15.08-1.98,22.64c-0.39,5.97-0.89,11.93-1,17.92
		c-0.02,0.89-0.24,1.74-0.84,2.45c-1.5,0.88-1.82,1.99-0.74,3.46c0.79,1.09,0.71,2.34,0.51,3.59c-0.06,0.23-0.16,0.45-0.28,0.65
		c-2.18,2.38-2.13,4.53,0.17,7.29c0.36,1.02,0.39,2.03-0.07,3.03c-2.09,1.7-1.66,3.95-1.11,6.07c0.31,1.18,0.52,2.33,0.46,3.53
		c-0.13,2.63-1.76,3.61-4.04,2.27c-1.57-0.92-2.98-2.1-4.77-2.62c-5.27-4.32-9.54-9.48-12.94-15.37c-0.5-1.28-0.63-2.56-0.48-3.96
		c0.46-4.2-0.01-8.44,0.16-12.63c0.28-6.66-0.2-13.37,1.08-19.97c-0.7-5.66,0.31-11.2,1.17-16.75c0.54-3.52,1.33-6.99,2.43-10.39
		c4.96-15.89,12.81-30.1,24.84-41.75c4.47-4.33,9.22-8.39,14.86-11.23c8.77-3.34,17.69-5.45,27.18-3.86
		c12.34,2.07,21.49,8.57,27.47,19.53c4.37,8,6.62,16.53,6.62,25.71c0,11.42-0.95,22.8-1.42,34.2c-0.18,4.23-0.26,8.46-0.4,12.68
		c-0.18,5.42-0.61,10.83-0.69,16.26c-0.06,3.57-0.46,7.15-0.42,10.75C268.02,401.31,267.87,402.17,267.24,402.87z"/>
	<path class="st7" d="M238.52,346.73c0.16,0.16,0.33,0.31,0.49,0.47c0.72,0.76,0.74,1.72,0.77,2.67c0.17,6.89-0.27,13.77-0.62,20.64
		c-0.87,2.48-0.97,5-0.36,7.54c0.81,3.35,0.16,6.71-0.11,10.01c-0.85,10.57-1.87,21.13-2.04,31.74c-0.01,0.77,0.13,1.63-0.64,2.19
		c-6.15,3.2-12.71,4.29-19.58,3.74c-1.11-1.68-0.79-3.59-0.56-5.35c0.74-5.8,0.45-11.64,0.73-17.46c0.37-7.82,0.79-15.62,1.59-23.4
		c0.09-0.88,0.23-1.74,0.75-2.49c0.34-0.47,0.8-0.81,1.34-0.95c4.44-1.17,8.9-2.28,13.49-2.71c-3.6,0.26-7.14,0.99-10.7,1.54
		c-1.34,0.2-2.69,0.48-4.01-0.09c-0.25-0.15-0.44-0.37-0.56-0.63c-0.07-3.71,0.05-7.44,0.34-11.13c0.24-3.07,0.25-6.18,0.8-9.23
		c0.21-1.18,0.35-2.36,1.12-3.34c0.31-0.33,0.62-0.67,0.93-1c5.1-1.87,10.43-2.62,15.78-3.23
		C237.86,346.21,238.22,346.45,238.52,346.73z"/>
	<path class="st3" d="M219.37,376.91c-0.81,3.91-1.06,7.89-1.34,11.85c-0.63,8.97-0.88,17.97-1.16,26.96
		c-0.1,3.34-0.3,6.68-0.45,10.02c-2.74,1.83-5.79,2.59-9.05,2.62c-4.31,0.04-8.61-0.31-12.93-0.24c-2.94,0.04-5.36-1.37-7.15-3.76
		c-0.9-2.35-0.11-4.71,0.07-7.04c0.81-10.56,1.63-21.12,2.54-31.67c0.35-4.13,0.72-8.26,1.07-12.39c0.09-1.02,0.24-2.07,0.89-2.94
		c1.4-0.4,1.54,0.66,1.71,1.56c0.18,0.93,0.08,1.88,0.1,2.82c0.02,0.24,0.02,0.47,0.02,0.71c-0.01,3.58,0.38,3.93,3.88,3.24
		c6.79-1.33,13.67-2.3,20.26-4.54c0.41,0,0.78,0.14,1.11,0.38l-0.02,0.02C219.88,375.14,220.1,375.94,219.37,376.91z"/>
	<path class="st3" d="M236.01,422c-0.22-6.86,0.3-13.69,0.81-20.52c0.49-6.59,1.1-13.16,1.59-19.75c0.13-1.75-0.33-3.48-0.6-5.2
		c-0.31-2.02-0.21-3.97,0.84-5.79c0.51-0.58,1.19-0.69,1.9-0.71c4.74-0.35,9.46-0.81,14.05-2.16c0.97-0.29,1.96-0.71,3-0.16
		c0.94,0.65,1.3,1.61,1.3,2.68c-0.02,5.16,0.23,10.33-0.12,15.49c-0.74,4.67-0.27,9.39-0.51,14.08c-0.17,3.35-0.43,6.66-1.09,9.95
		c-0.73,2.23-2.22,3.81-4.33,4.73c-3.42,1.49-6.6,3.42-9.9,5.12C240.77,420.9,238.54,421.95,236.01,422z"/>
	<path class="st40" d="M267.24,402.87c-0.11-5.28,0.35-10.53,0.58-15.79c0.54-12.77,1.06-25.54,1.56-38.31
		c0.3-7.74,1.11-15.45,0.9-23.21c-0.28-10.4-3.16-19.99-9.17-28.53c-6.23-8.84-14.82-13.74-25.54-15.19
		c-7.66-1.03-14.93,0.29-22.12,2.73c-1.35,0.46-2.74,0.83-4.11,1.24c-0.67,0.32-1.12,0.27-1.07-0.63c6.98-4.13,14.59-5.98,22.64-5.7
		c17.44,0.62,29.62,9.22,36.84,24.94c3.28,7.14,4.83,14.66,4.43,22.57c-0.68,13.31-1.26,26.63-1.9,39.95
		c-0.53,11.16-1.07,22.33-1.6,33.49c-0.02,0.47,0.03,0.95,0.04,1.43C268.19,402.15,267.88,402.75,267.24,402.87z"/>
	<path class="st41" d="M192.1,370.25c-0.67,7.47-1.36,14.93-2.02,22.4c-0.94,10.57-1.86,21.14-2.78,31.7
		c-0.75-0.15-1.12-0.71-1.46-1.32c0.39-3.06,1.78-5.94,1-9.23c-0.43-1.82-0.15-3.92,0.88-5.72c0.21-1.12,0.21-2.24,0-3.36
		c-1.13-2.4-1.16-4.8,0.02-7.19c0.11-0.12,0.11-0.25,0.01-0.38c0.35-1.32,0.3-2.62-0.05-3.93c-0.32-1.17-0.33-2.34,0.52-3.36
		c0.65-4.75,0.64-9.55,0.99-14.32c0.68-9.31,0.95-18.66,2.31-27.9c2.48-16.83,10.69-30.19,24.61-40c0.88-0.62,1.76-1.35,3.08-1.04
		c-2.41,2.12-5.11,3.86-7.42,6.09c-2.31,2.22-4.51,4.51-6.47,7.04c-2.01,2.59-3.8,5.32-5.32,8.23c-1.48,2.84-2.72,5.77-3.72,8.81
		c-1.02,3.12-1.82,6.28-2.33,9.52c-0.5,3.15-0.99,6.31-0.92,9.51c0.15,0.28,0.42,0.58,0.39,0.86
		C193,361.19,193.92,365.86,192.1,370.25z"/>
	<path class="st3" d="M187.72,408.09c0.14,1.12,0.17,2.26-0.1,3.34c-0.56,2.21-0.47,4.43-0.51,6.67c-0.03,1.73,0.04,3.53-1.27,4.95
		c-2.55-1.79-5.12-3.55-7.28-5.82c1.5-0.04,2.99-0.24,3.99,1.4c0.36,0.59,1.27,0.89,1.98,1.2c0.72,0.3,2.15-0.31,2.14-0.94
		c-0.04-1.6,0.41-3.15-0.53-4.8c-0.89-1.57-0.26-3.56-0.05-5.35C186.16,408.06,187.07,408.09,187.72,408.09z"/>
	<path class="st42" d="M166.52,364.89c-0.21,4.36-0.41,8.72-0.62,13.08c-0.04,0.79-0.11,1.59-0.12,2.38
		c-0.06,7.16-0.12,14.33-0.17,21.49c-0.64-0.77-1.28-1.55-1.93-2.32c1.39-1.37,1.24-3.25,1.34-4.9c0.16-2.93,0.3-5.89-0.24-8.82
		c-0.31-1.67,0.28-3.32,0.28-4.99c0.01-2.95,0.03-5.9,0.02-8.85c-0.01-2.41,0.29-4.76,1.07-7.05l0.18-0.15L166.52,364.89z"/>
	<path class="st43" d="M257.17,409.92c-0.38-1.4-0.48-2.81-0.11-4.24c1.06-4.14,0.54-8.38,0.75-12.58c0.12-2.37-0.19-4.76,0.35-7.12
		c0.81,0.65,0.55,1.53,0.59,2.39c0.19,4.17-0.51,8.33-0.11,12.5c0.05,2.39,0.1,4.78,0.17,7.17c0.01,0.54-0.12,1.13,0.4,1.55
		C258.59,410.12,257.86,409.86,257.17,409.92z"/>
	<path class="st44" d="M221.37,437.75c-0.95,0.04-1.9,0.06-2.84,0.14c-1.53,0.13-1.66,0.46-0.8,1.89c0.08,0.14,0.15,0.28,0.22,0.42
		c-3.02-0.86-5.87-2.12-8.69-3.51C213.4,436.12,217.43,436.5,221.37,437.75z"/>
	<path class="st3" d="M371.5,153.59c0.88-0.44,1.54,0.17,2.23,0.49c4.15,1.92,7.84,4.6,11.65,7.08
		c10.11,6.56,20.1,13.31,30.57,19.29c2.11,1.2,2.97,2.89,3.03,5.28c0.3,12.7,0.67,25.4,1.04,38.09c0.24,8.23,0.51,16.45,0.74,24.67
		c0.1,3.76-0.63,4.23-3.95,2.48c-10.79-5.71-21.46-11.65-32.4-17.07c-3.64-1.8-7.19-3.78-11.01-5.21c-1.39-0.82-1.8-2.14-1.86-3.64
		c-0.03-0.8-0.02-1.59-0.02-2.39c0.02-22.07,0.05-44.15,0.07-66.22C371.59,155.5,371.53,154.55,371.5,153.59z"/>
	<path class="st3" d="M344.69,199.33c0,4.31-0.01,8.62,0,12.93c0.01,2.97-0.21,3.25-3.16,4.15c-10.96,3.36-21.92,6.72-32.88,10.07
		c-0.91,0.28-1.83,0.6-2.77,0.72c-1.46,0.19-2.26-0.45-2.53-1.9c-0.1-0.54-0.1-1.11-0.09-1.67c0.19-6.55,0.12-13.09-0.04-19.63
		c-0.15-5.77,1.43-11.03,4.3-15.95c4.04-6.91,9.56-12.28,16.56-16.19c3.19-1.78,6.38-1.88,9.65-0.53
		c6.07,2.49,11.27,9.21,10.92,16.04c-0.2,3.98-0.04,7.98-0.04,11.97C344.64,199.33,344.67,199.33,344.69,199.33z"/>
	<path class="st3" d="M111.95,245.55c1.59-1.24,3.32-2.16,5.32-2.6c1.65-0.37,3.23-0.23,4.63,0.6c3.21,1.9,5.51,4.51,6,8.41
		c0.66,5.28-0.02,10.52-0.35,15.77c-0.05,0.88-0.16,1.75-0.21,2.62c-0.14,2.7-0.46,3.15-3.01,3.83c-4.39,1.16-8.79,2.3-13.18,3.46
		c-2.23,0.59-4.46,1.22-6.69,1.82c-0.77,0.21-1.54,0.45-2.32,0.54c-2.5,0.31-3.65-0.69-3.13-3.09c0.73-3.33,0.48-6.67,0.59-10.02
		c0.11-3.13,0.36-6.23,2.37-8.86c0.87-0.22,1.26,0.36,1.61,0.99c0.1,0.34,0.1,0.68,0.05,1.03c-0.2,0.77-0.19,1.56-0.18,2.36
		c-0.05,1.86,0.11,3.73-0.07,5.59c0.7-13.91,8.73-20.42,17.04-20.67c-2.42-1.5-4.8,0.25-7.21,0.11
		C112.29,247.15,111.41,246.82,111.95,245.55z"/>
	<path class="st45" d="M103.24,258.97c-0.42-0.31-0.85-0.61-1.27-0.92c1.82-5.37,5-9.65,9.98-12.49c-0.08,1.07,0.63,1.35,1.49,1.49
		c-0.57,1.52-2.15,2-3.18,3.06c-2.35,2.4-4.63,4.82-6.01,7.93C104.04,258.47,103.77,258.87,103.24,258.97z"/>
	<path class="st3" d="M166.22,264.57c-0.03,4.84-0.11,9.67-0.05,14.51c0.02,1.47-0.3,2.62-1.52,3.46c-1.67-0.73-3.34-1.48-5.02-2.19
		c-3.24-1.38-4.79-3.77-4.58-7.32c0.21-3.42,0.34-6.84,0.52-10.26c0.14-2.7,0.29-5.41,0.42-8.11c0.08-1.73,0.52-3.29,1.93-4.43
		c1.89-0.86,3.44-0.33,4.74,1.18c1.49,2.51,2.99,5.03,3.72,7.88C166.82,261.04,167.21,262.84,166.22,264.57z"/>
	<path class="st46" d="M162.21,251.77c-1.05-1.55-2.7-1.46-4.28-1.54c0.36-0.65,0.95-1.07,1.52-1.49c1.79-1.33,3.3-1.27,4.91,0.35
		c2.83,2.84,4.5,6.36,5.58,10.17c1.34,4.69,1.26,9.48,0.76,14.26c-0.16,1.55,0.12,3.21-0.68,4.68c-0.02-0.93-0.05-1.87-0.04-2.8
		c0.01-0.97-0.15-1.86-0.93-2.53c-0.94-0.9-0.65-2.08-0.67-3.16c-0.03-2.87,0.07-5.74-0.54-8.58
		C167.04,257.34,165.54,254.01,162.21,251.77z"/>
	<path class="st47" d="M162.21,251.77c0.97-0.43,1.45,0.42,2.01,0.87c1.65,1.34,2.7,3.12,3.4,5.1c0.98,2.8,1.45,5.7,1.46,8.66
		c0,2.15-0.01,4.3-0.02,6.45c-0.77,2.48-0.63,5.16-1.64,7.62c-0.44-1.82-0.72-3.63-0.73-5.48c-0.01-2.54,0.01-5.09-0.04-7.63
		c-0.02-0.94,0.12-1.92-0.42-2.79C166.57,259.78,164.59,255.71,162.21,251.77z"/>
	<path class="st48" d="M208.26,285.18c0.21,0.47,0.63,0.57,1.07,0.63c-17.42,10.98-29.03,26.6-36.44,45.58
		c-0.81,2.07-1.37,4.24-2.41,6.22c-0.92,0.05-0.79-0.44-0.53-1.01c0.3-3.3,1.25-6.44,2.63-9.4c5.62-12.09,12.78-23.19,22.17-32.72
		C198.62,290.53,203.1,287.32,208.26,285.18z"/>
	<path class="st49" d="M169.95,336.6c0.1,0.38,0.14,0.79,0.53,1.01c-0.64,3.03-1.28,6.05-1.91,9.08
		c-1.24,6.01-1.85,12.08-2.05,18.21c0,0-0.18-0.01-0.18-0.01s-0.18,0.03-0.18,0.03c0,0,0,0,0,0c-0.46-3.38-0.28-6.76-0.1-10.15
		C166.24,348.47,167.58,342.42,169.95,336.6z"/>
	<path class="st42" d="M166.05,354.76c0.03,3.38,0.07,6.77,0.1,10.15c-0.81-1.46-0.37-3.06-0.42-4.59
		C165.66,358.47,165.46,356.58,166.05,354.76z"/>
	<path class="st50" d="M221.28,347.68c0.05-3.9-0.02-7.82,0.17-11.71c0.21-4.3,0.27-8.61,0.39-12.91c0.01-0.56-0.1-1.17,0.1-1.66
		c1.14-2.84,0.8-5.81,0.83-8.75c0.04-4.36,1.15-5.94,5.26-7.05c3.34-0.9,6.35-2.54,9.47-3.94c3.69-1.65,4.12-1.38,3.93,2.59
		c-0.51,10.75-1.03,21.5-1.55,32.25c-0.1,2.15-0.3,4.3-0.34,6.45c-0.02,0.95-0.29,1.7-1,2.3c-3.62,1.75-7.65,1.84-11.47,2.81
		C225.2,348.52,223.13,348.89,221.28,347.68z"/>
	<path class="st7" d="M217.88,374.45c-2.9,1.58-6.13,2.14-9.3,2.81c-4.19,0.9-8.42,1.63-12.64,2.41c-2.17,0.4-2.85-0.2-2.89-2.49
		c-0.01-0.72,0-1.43,0-2.15c0.87-4.23-0.19-8.5,0.21-12.74c0.2-2.09-0.02-4.31,1.68-5.98c6.64-2.54,13.51-4.11,20.56-4.89
		c0.53-0.25,1.1-0.1,1.65-0.18c1.81-0.24,2.57,0.64,2.33,2.34c-0.55,3.88-0.24,7.8-0.73,11.68c-0.3,2.37-0.03,4.78-0.33,7.16
		C218.33,373.14,218.47,373.89,217.88,374.45z"/>
	<path class="st51" d="M257.21,367.87c-5.44,1.64-10.99,2.61-16.67,2.74c-1.38-1.88-1.37-4.07-1.2-6.2
		c0.4-4.93,0.77-9.85,0.89-14.79c0.02-0.89,0.09-1.76,0.6-2.52c2.48-2.26,5.5-2.89,8.73-2.88c1.66-0.3,3.33-0.17,4.99-0.11
		c2.87,0.11,4.69,1.67,5.45,4.45c0.19,0.69,0.39,1.41,0.32,2.12c-0.45,4.9-0.31,9.84-0.94,14.72
		C259.21,366.68,258.62,367.65,257.21,367.87z"/>
	<path class="st52" d="M257.21,367.87c1.86-1.43,1.74-3.59,1.93-5.58c0.16-1.74,0.03-3.51,0.05-5.27c0.01-1.19,0.17-2.37,0.32-3.55
		c0.32-2.59,0.5-5.24-1.61-7.39c-1.2-1.23-2.6-1.76-4.27-1.78c-1.36-0.02-2.71-0.05-4.06-0.08c1.39-0.43,2.83-0.32,4.25-0.35
		c3.64-0.09,5.44-1.62,5.79-5.27c0.29-3.01,0.26-6.04,0.16-9.07c-0.16-4.66-1.09-9.15-2.82-13.47c-1.83-4.57-4.51-8.57-7.92-12.1
		c-0.61-0.63-1.2-1.27-1.79-1.91c-0.35-0.6-0.32-0.99,0.52-0.93c5.58,3.61,9.17,8.75,11.5,14.87c1.49,3.92,2.08,8.03,2.26,12.19
		c0.48,11.27-0.08,22.51-1.17,33.73c-0.33,3.41-0.65,6.82-0.58,10.27c0.19,9.59-0.44,19.16-1.12,28.72
		c-0.67-0.84-0.37-1.83-0.39-2.76c-0.08-4.04,0.24-8.09-0.09-12.14c0.04-4.9,0.07-9.79,0.14-14.69
		C258.32,370,258.41,368.74,257.21,367.87z"/>
	<path class="st53" d="M247.74,301.09c-0.38,0.2-0.5,0.54-0.52,0.93c-2.12-1.27-4.26-2.5-6.35-3.82c-8.97-5.7-18.18-5.53-27.57-1.16
		c-0.5,0.23-0.99,0.47-1.58,0.76c0.8-1.84,1.62-2.58,3.9-3.4c2.56-0.92,5.23-1.45,7.92-1.72
		C232.9,291.73,241.03,294.42,247.74,301.09z"/>
	<path class="st54" d="M240.83,347.09c0.41,4.54-0.1,9.06-0.52,13.55c-0.32,3.36-0.12,6.65,0.23,9.96
		c-0.63,0.04-1.26,0.09-1.89,0.13c0.12-7.85,0.24-15.69,0.36-23.54C239.62,347.17,240.22,347.13,240.83,347.09z"/>
	<path class="st55" d="M217.88,374.45c-0.02-6.93,0.49-13.83,0.87-20.74c0.02-0.32,0.02-0.64,0.05-0.95c0.1-1.04-0.36-1.44-1.4-1.32
		c-0.62,0.07-1.27,0-1.9,0c0.75-0.61,1.67-0.5,2.5-0.44c0.99,0.06,1.86-0.23,2.75-0.5c-0.27,3.56-0.88,7.08-1.02,10.66
		c-0.17,4.44-0.53,8.88-0.8,13.32C218.58,374.47,218.23,374.46,217.88,374.45z"/>
	<path class="st56" d="M194.94,356.32c-0.7,2.45-1.02,4.94-0.99,7.49c0.03,2.53-0.04,5.07-0.01,7.6c0.01,1.3-0.18,2.52-0.88,3.63
		c-0.03-1.01-0.07-2.03-0.07-3.04c0-0.75-0.1-1.41-0.88-1.75c0.24-3.63,0.48-7.26,0.71-10.89c0.08-1.18,0.14-2.37,0.21-3.55
		C193.58,356.26,194.25,356.32,194.94,356.32z"/>
	<path class="st57" d="M221.28,347.68c3.59,0.32,7.07-0.25,10.53-1.17c2.2-0.58,4.38-1.36,6.71-1.27c0.15,0.5,0.16,0.99-0.01,1.49
		c-5.06,0.47-10.01,1.56-14.96,2.64c-0.63,0.14-1.24,0.26-1.88,0.12C221.55,348.88,221.42,348.28,221.28,347.68z"/>
	<path class="st3" d="M187.74,397.54c-0.01,2.4-0.01,4.8-0.02,7.19c-1.32-0.19-1.92-0.99-1.92-2.29c0-0.87,0-1.75,0-2.62
		C185.8,398.51,186.41,397.72,187.74,397.54z"/>
	<path class="st3" d="M188.21,389.86c-0.01,2.44,0.14,4.89-0.46,7.29c-0.15-1.4,0.35-2.91-1.13-4.05c-0.67-0.51-0.45-1.61-0.17-2.43
		C186.73,389.85,187.5,389.87,188.21,389.86z"/>
	<path class="st58" d="M219.37,376.91c0.01-0.84-0.04-1.66-0.46-2.42c2.27,0.29,4.43-0.39,6.63-0.71c2.84-0.41,5.67-0.93,8.59-0.47
		C229.3,374.85,224.29,375.69,219.37,376.91z"/>
	<path class="st59" d="M411.54,235.21c-2.02-1.02-3.65-1.83-5.26-2.66c-7.02-3.62-14.01-7.32-21.09-10.83
		c-2.41-1.19-3.37-2.83-3.35-5.47c0.1-10.71,0.1-21.42,0.08-32.13c-0.01-4.98,2.22-8.73,6.15-11.56c3.67-2.64,7.37-2.42,10.61,0.78
		c6.24,6.16,10.41,13.5,12.08,22.16c0.81,4.18,0.87,8.39,0.81,12.64c-0.12,8.07-0.03,16.14-0.03,24.21
		C411.54,233.15,411.54,233.94,411.54,235.21z"/>
	<path class="st60" d="M334.23,177.79c-3.97,0.37-7.67,1.29-11,3.27c-8.62,5.13-13.13,12.75-13.56,22.76
		c-0.15,3.42-0.04,6.86-0.63,10.26c-0.06,0.35,0.07,0.8-0.69,1.09c-0.18-1.84-0.37-3.6-0.51-5.36c-0.28-3.58-0.41-7.17-0.01-10.75
		c0.68-6.24,3.96-11.17,7.89-15.79c1.71-2.01,3.52-3.91,5.8-5.31c3.91-2.39,7.95-2.56,12.11-0.7
		C333.82,177.35,333.96,177.55,334.23,177.79z"/>
	<path class="st61" d="M103.24,258.97c1.55-3.95,4.09-7.16,7.28-9.91c0.91-0.78,1.87-1.45,2.92-2.02c2.15-0.56,4.27-1.32,6.54-0.62
		c0.83,0.26,1.7,0.4,2.3,1.1c-0.07,0.51-0.43,0.7-0.83,0.67c-6.81-0.53-11.27,2.98-14.55,8.47c-1.67,2.79-2.22,5.93-2.65,9.09
		c-0.21,1.52-0.46,3.02-0.96,4.52c-0.55-2.64-0.42-5.29-0.39-7.93c0.41-0.78-0.03-1.66,0.32-2.45
		C103.22,259.58,103.23,259.27,103.24,258.97z"/>
	<path class="st45" d="M103.21,259.88c0.12,0.84,0.18,1.68-0.32,2.45C102.76,261.48,102.63,260.64,103.21,259.88z"/>
	<path class="st3" d="M407.35,195.64c1.01,3.32,1.2,6.77,1.27,10.18c0.16,7.89,0.05,15.8,0.05,23.66c-0.71,0.52-1.26,0.07-1.82-0.16
		c-6.96-2.82-13.53-6.42-20.13-9.97c-1.66-0.9-1.96-2.34-1.95-4.04c0.06-8.14,0.07-16.29,0.11-24.43c0.01-2.95-0.01-5.91,0.09-8.86
		c0.1-3.13,0.87-4.1,3.7-5.08c1.46-0.85,2.68-0.33,3.83,0.64c7.44,8.21,10.8,17.96,10.75,28.94c-0.02,4.92,0.89,9.77,0.92,13.87
		c0.67-7.24,0.64-15.29,0.61-23.35C405.34,194.56,405.64,194.4,407.35,195.64z"/>
	<path class="st62" d="M392.11,178.01c-0.95-0.98-2.19-1.05-3.44-1.08c0.59-0.53,1.15-1.1,1.78-1.58c2.66-2.03,4.16-1.98,6.48,0.37
		c3.44,3.49,6.35,7.38,8.36,11.88c1.14,2.55,2.04,5.19,2.06,8.04c-1.73-0.61-1.73-0.61-1.95,1.55c-1.18-0.29-1.2-1.39-1.49-2.24
		c-1.9-5.64-4.57-10.8-8.82-15.09C394.21,178.97,393.2,178.47,392.11,178.01z"/>
	<path class="st63" d="M392.11,178.01c1.23-0.49,2.05,0.09,2.94,0.93c4.63,4.4,7.43,9.87,9.43,15.83c0.27,0.82,0.38,1.71,0.92,2.43
		c0.1,8.33,0.32,16.66-1.04,25.41c-0.86-2.61-1.09-4.82-1.25-7.03c-0.33-4.53-0.68-9.06-0.87-13.59
		c-0.35-8.47-3.63-15.74-8.82-22.27C392.97,179.15,392.55,178.57,392.11,178.01z"/>
</g>
</svg>
