<?xml version="1.0" encoding="utf-8"?>
<!-- Generator: Adobe Illustrator 24.1.1, SVG Export Plug-In . SVG Version: 6.00 Build 0)  -->
<svg version="1.1" id="Layer_1" xmlns="http://www.w3.org/2000/svg" xmlns:xlink="http://www.w3.org/1999/xlink" x="0px" y="0px"
	 viewBox="0 0 612 792" style="enable-background:new 0 0 612 792;" xml:space="preserve">
<style type="text/css">
	.st0{fill:#FDFDFD;}
	.st1{fill:#31BEDA;}
	.st2{fill:#010101;}
	.st3{fill:#32BEDA;}
	.st4{fill:#020202;}
	.st5{fill:#33BEDA;}
	.st6{fill:#030303;}
	.st7{fill:#33BED9;}
	.st8{fill:#33BEDB;}
	.st9{fill:#31BFDB;}
	.st10{fill:#31C0D9;}
	.st11{fill:#33BFDA;}
	.st12{fill:#33BFD9;}
	.st13{fill:#34C0D9;}
	.st14{fill:#35C0DB;}
	.st15{fill:#35BEDD;}
	.st16{fill:#FBFBFB;}
	.st17{fill:#F2F2F2;}
	.st18{fill:#F9F9F9;}
	.st19{fill:#F4F4F4;}
</style>
<g>
	<path class="st0" d="M189.64,573.17c0.04,0.24,0.07,0.47,0.11,0.71c0.04,0.26,0.08,0.53,0.12,0.79c1.38,0.46,2.71,1,3.99,1.6
		c4.14,0.28,8.32,0.26,12.47,0.1c0.13-0.17,0.27-0.34,0.4-0.52C200.95,575.29,195.24,574.43,189.64,573.17z"/>
	<path class="st0" d="M174.3,570.38c0.67,0.23,1.24,0.56,1.73,0.96c0.34,0.07,0.68,0.14,1.03,0.21c0.13-0.63,0.27-1.25,0.41-1.87
		c-0.85-0.3-1.69-0.62-2.53-0.94c-0.61,0.42-1.2,0.85-1.81,1.27C173.51,570.13,173.91,570.25,174.3,570.38z"/>
	<path class="st0" d="M171.77,537.92c1.91-0.25,3.82-0.69,5.71-1.38c0.26-0.1,0.52-0.19,0.78-0.29c-0.1-0.41-0.16-0.83-0.16-1.24
		c-2.05-0.01-4.08-0.04-6.1-0.08C171.96,535.92,171.89,536.92,171.77,537.92z"/>
	<path class="st0" d="M305.13,558.7c-13.04-1.25-26.1-2.09-39.18-2.67c0.32,0.23,0.65,0.45,0.97,0.68c0.05,0.04,0.11,0.09,0.16,0.13
		c1.52,0.36,3.05,0.73,4.57,1.09c6.62,1.55,13.27,3.07,19.92,4.53c6.23-1.17,12.46-2.25,18.72-3.25
		C308.57,559.04,306.85,558.86,305.13,558.7z"/>
	<path class="st0" d="M551.78,560.14c3.39,0.03,6.8,0.01,10.19-0.23c0-2.42,0-4.85,0-7.27c-2.96,0.01-5.91,0.04-8.85,0.04
		c0.26,0.65,0.5,1.31,0.7,1.99C554.44,556.72,553.48,558.96,551.78,560.14z"/>
	<path class="st0" d="M283.36,538.58c14.85-0.3,29.67,0.7,44.49,1.52c-3.8-0.46-7.61-0.94-11.4-1.47
		c-18.05,0.2-36.05-0.73-54.07-1.45c3.86,0.84,7.72,1.68,11.58,2.51C277.01,539.07,280.11,538.65,283.36,538.58z"/>
	<path class="st0" d="M172.8,587.74c1.97-0.32,3.94-0.72,5.89-1.17c-2.75-0.47-5.51-0.95-8.25-1.46c0.67,0.69,1.32,1.38,1.95,2.09
		C172.55,587.38,172.68,587.56,172.8,587.74z"/>
	<path class="st0" d="M109.18,594.78c0.07-2.96,0.11-5.92,0.15-8.89c-0.49,0.06-0.99,0.12-1.48,0.17
		c-0.29,3.77-0.83,7.54-1.42,11.19C107.39,596.56,108.31,595.73,109.18,594.78z"/>
	<path class="st0" d="M50.07,560.76c5.53-0.39,11.06-0.65,16.61-0.48c6.16,0.19,12.23,1.25,18.31,2.17
		c2.26-0.65,4.52-1.26,6.79-1.81c0.07-4.99,0.48-9.99,1.23-14.9c-0.93-0.92-1.52-2.14-1.39-3.45c0.32-3.37,1.13-6.07,2.97-8.92
		c0.46-0.71,1.04-1.25,1.68-1.64c0.18-0.58,0.36-1.16,0.56-1.73c0.31-0.9,0.8-1.62,1.4-2.18c-2.95-0.79-5.9-1.53-8.87-2.19
		c-6.29-1.39-3.61-11.03,2.66-9.64c5.45,1.2,10.88,2.62,16.29,4.18c4.81-11.07,11.9-20.61,23.52-21.73c2.94-0.28,4.71,2.52,5,5
		c0.69,5.87,0.44,11.8-0.28,17.73c3.03,0.32,6.05,0.78,9.07,1.27c4.81,0.78,9.51,1.4,14.21,1.86c0.75-0.83,1.51-1.65,2.29-2.45
		c2.42-2.48,6.02-1.57,7.73,0.96c7.63-1.94,15.17-4.27,22.72-6.51c15.5-4.61,30.9-7.93,47.04-9.34c30.38-2.65,60.79,1.26,91.17-0.43
		c15.23-0.85,30.48-2.06,45.75-1.31c15.31,0.75,30.43,3.85,45.46,6.72c5.06,0.96,10.11,1.95,15.17,2.94
		c-0.23-5.18,1.96-9.79,8.99-10.4c5.83-0.5,12.18,2.41,17.31,4.81c5.9,2.76,11.44,6.21,17.35,8.94c4.34,2.01,8.93,3.91,13.25,6.22
		c2.77,0.39,5.53,0.79,8.29,1.22c5.93-2.25,11.86-4.51,18.19-5.07c14.17-1.25,25.63,9.47,29.49,22.37c2.78-0.01,5.55-0.06,8.32-0.17
		c1.18-0.05,2.4-0.09,3.64-0.12c-0.05-132.86-0.05-265.72,0.03-398.58c0-3.42-0.67-4.1-4.09-4.09c-167.94,0.11-335.87,0.11-503.81,0
		c-3.42,0-4.1,0.67-4.09,4.09c0.12,83.97,0.1,167.94,0.1,251.91C50.1,450.92,50.09,505.84,50.07,560.76z"/>
	<path class="st0" d="M451.14,515.23c-0.82-0.24-4.12-1.27-4.51-0.74c0.03-0.04,0.43,1.59,0.56,1.98c0.04,0.13,0.09,0.25,0.14,0.38
		c4.81,0.93,9.63,1.84,14.45,2.73C458.35,517.85,454.84,516.31,451.14,515.23z"/>
	<path class="st0" d="M119.03,521.59c2.46-0.49,4.92-0.76,7.39-0.85c0.46-3.48,0.75-6.97,0.76-10.47
		C123.61,512.82,120.96,517.53,119.03,521.59z"/>
	<path class="st0" d="M553.26,570.14c-2.96,0-5.91-0.02-8.87-0.06c-1.28,1.23-2.72,2.28-4.33,3.06c-6.9,3.37-14.71,1.7-22.06,1.86
		c-22.84,0.5-45.68,5.52-68.26,8.55c-23.85,3.2-47.5,4.23-71.52,2.54c-4.41-0.31-8.8-0.7-13.19-1.14c7.06,2.24,14.17,4.32,21.39,6
		c6.27,1.46,3.6,11.1-2.66,9.64c-19.42-4.53-37.98-11.88-57.03-17.67c-9.5-2.89-19.08-5.45-28.97-6.46
		c0.54,0.27,1.08,0.53,1.62,0.82c4.17,2.28,2.5,9.78-2.52,9.32c-15.39-1.41-30.64-4.37-46.02-5.71c-2.92,0.55-5.84,1.07-8.77,1.56
		c-10.16,1.67-20.74,3.3-31.33,3.92c-2.91,3.21-6.24,6.17-9.93,8.99c-1.89,1.44-3.83,2.95-5.83,3.85
		c33.66,0.5,67.36-0.18,101.02-0.19c6.45,0,6.43,10,0,10c-56.34,0.02-112.79,1.94-169-3c-6.37-0.56-6.41-10.56,0-10
		c7.31,0.64,14.63,1.16,21.94,1.59c-8.1-1.48-15.86-4.36-23.22-8.19c-0.59,0.49-1.21,0.93-1.86,1.32c-1.11,4.69-3.04,8.9-6.33,13.15
		c-1.25,1.61-3.2,1.82-4.93,1.2c-3.57,2.85-7.68,4.52-12.32,3.92c-3.47-0.45-5.37-2.82-4.82-6.33c0.54-3.47,1.25-7.28,1.8-11.19
		c-3.38,1.91-8.23-1.26-7.28-5.73c0.21-0.97,0.43-1.94,0.65-2.91c-2.14-1.78-3.62-4.39-4.03-8.11c-0.07-0.63,0.09-1.33,0.38-1.98
		c-0.38-0.05-0.76-0.11-1.14-0.16c-5.94,1.77-11.84,3.69-17.89,5.04c-5.91,1.32-11.9,2.21-17.9,3.05
		c-0.01,22.41-0.02,44.81-0.05,67.22c0,3.42,0.67,4.1,4.09,4.09c167.94-0.11,335.87-0.11,503.81,0c3.42,0,4.1-0.67,4.09-4.09
		c-0.02-25.99-0.01-51.97-0.03-77.96C558.97,570.11,556.02,570.14,553.26,570.14z"/>
	<path class="st0" d="M186.69,597.76c-0.74-0.71-1.35-1.54-1.89-2.42c-5.76,1.55-11.63,2.67-17.56,3.14
		c7.05,0.27,14.11,0.47,21.16,0.61C187.83,598.74,187.26,598.31,186.69,597.76z"/>
	<path class="st0" d="M541.26,552.68c0-0.06,0-0.11,0-0.17c-16.66-0.57-33.33-0.29-49.97,0.63
		C507.86,555.49,524.49,556.13,541.26,552.68z"/>
	<path class="st0" d="M429.76,567.45c-0.53,0-1.07-0.01-1.6-0.01c-10.59,3.19-21.53,5.89-32.59,5.71
		c-10.75-0.17-21.53-2.64-32.14-5.15c-0.81,0.03-1.63,0.06-2.44,0.1c-8.81,1.1-17.6,2.01-26.39,2.72
		c23.33,3.8,46.85,6.25,70.57,6.23c22.07-0.02,43.88-3.34,65.66-6.59c7.58-1.13,15.17-2.23,22.78-3.18
		c-11.77-1.14-23.51-2.49-35.27-3.71C449.08,566.09,439.54,567.51,429.76,567.45z"/>
	<path class="st0" d="M523.48,541.19c-1.91,0.44-3.83,0.84-5.75,1.21c3.09,0.03,6.19,0.09,9.28,0.16
		C525.81,542.06,524.63,541.61,523.48,541.19z"/>
	<path class="st0" d="M211.17,537.91c-2.21,0.28-4.42,0.62-6.62,1c-0.55,0.87-1.12,1.72-1.7,2.57c2.87-0.86,5.74-1.71,8.61-2.56
		C211.36,538.58,211.26,538.25,211.17,537.91z"/>
	<path class="st0" d="M475.58,532.06c-3-0.49-6-1-9-1.52c-1.61-0.23-3.22-0.46-4.83-0.66c-2.43-0.3-4.87-0.56-7.3-0.81
		c1.11,1.59,2.25,3.16,3.38,4.73C463.76,533.33,469.69,532.8,475.58,532.06z"/>
	<path class="st0" d="M445.69,533.91c-1.34-1.92-2.64-3.86-3.84-5.87c-8.2-0.53-16.43-0.79-24.65-0.87
		c-6.89-0.06-13.54,0.69-20.14,1.78c3.92,0.31,7.84,0.65,11.75,1.05C420.84,531.22,433.21,532.73,445.69,533.91z"/>
	<path class="st0" d="M220.94,522.17c0.13,1.13,0.26,2.25,0.39,3.38c14.82-0.85,29.71-0.97,44.35-1.15
		c25.22-0.3,50.43,0.52,75.63,1.6c3.99,0.17,7.97,0.34,11.96,0.5c5.31-0.61,10.6-1.36,15.86-2.3c10.42-1.84,20.69-4.65,31.16-6.11
		c-14.88-2.57-29.59-3.45-44.68-2.91c-14.43,0.52-28.8,1.97-43.25,1.74c-29.33-0.47-58.94-2.84-88.07,1.84
		c-1.48,0.24-2.95,0.5-4.41,0.79C220.43,520.29,220.83,521.17,220.94,522.17z"/>
	<path class="st0" d="M236.67,559.82c-1.34-0.32-2.27-1.03-2.84-1.91c-3.76,0.33-7.52,0.61-11.29,0.84
		c-0.05,0.51-0.11,1.03-0.17,1.54c8.18,0.98,16.39,1.62,24.62,2.02C243.55,561.48,240.11,560.65,236.67,559.82z"/>
	<path class="st0" d="M237.06,542.05c-1.49,0.38-2.97,0.76-4.45,1.16c5.52,0.39,11.04,0.87,16.55,1.34
		C245.13,543.69,241.1,542.86,237.06,542.05z"/>
	<path class="st1" d="M235.3,253.85c17.41,0.08,31.07,14.02,30.93,31.58c-0.13,17.53-13.94,31.33-31.26,31.3
		c-17.48-0.03-31.92-14.21-31.41-33.16C203.94,269.57,217.51,252.74,235.3,253.85z"/>
	<path class="st1" d="M342.33,349.76c0.59,12.32-10.1,22.85-22.58,23.14c-13.54,0.32-23.9-10.39-23.75-24.03
		c0.14-12.99,10.54-22.93,23.86-22.81C332.55,326.18,342.47,336.65,342.33,349.76z"/>
	<path class="st1" d="M126.31,238.07c-12.59,0-21.47-9.01-21.42-21.74c0.04-11.88,9.29-21.09,21.22-21.15
		c11.69-0.06,21.73,9.72,21.65,21.54C147.68,227.66,139.1,238.17,126.31,238.07z"/>
	<path class="st1" d="M330.16,409.22c0.02,11.45-9.06,20.68-20.33,20.67c-11.31-0.01-20.64-9.3-20.6-20.52
		c0.04-11.51,8.98-20.53,20.44-20.61C321.08,388.67,330.14,397.72,330.16,409.22z"/>
	<path class="st1" d="M374.76,435.21c-0.07-10.98,8.83-20.68,19.23-20.93c11.57-0.28,20.94,9.03,20.84,20.7
		c-0.09,10.83-9.26,19.85-20.11,19.79C384.13,454.72,374.83,445.6,374.76,435.21z"/>
	<path class="st1" d="M297.68,253.74c10.86-0.9,19.24,8.69,19.35,19.37c0.11,10.66-8.42,19.13-19.21,19.14
		c-10.94,0-19.74-8.78-19.63-19.54C278.29,263.77,286.32,252.71,297.68,253.74z"/>
	<path class="st2" d="M408.81,530c1.18,0.12,2.36,0.25,3.54,0.37c-0.89-1.23-2.06-2.18-3.47-2.9c-3.98,0.31-7.9,0.84-11.81,1.48
		C400.99,529.26,404.9,529.61,408.81,530z"/>
	<path class="st2" d="M395.57,573.15c-2.92-0.05-5.83-0.27-8.75-0.6c-0.14,1.34-0.31,2.72-0.41,4.02
		c6.24,0.32,12.49,0.49,18.76,0.49c2.65,0,5.3-0.05,7.94-0.15c0.83-1.59,1.29-3.53,1.38-5.85
		C408.26,572.4,401.93,573.25,395.57,573.15z"/>
	<path class="st2" d="M306.58,558.84v0.96c1.24-0.21,2.49-0.4,3.73-0.6C309.07,559.09,307.82,558.96,306.58,558.84z"/>
	<path class="st2" d="M306.8,577.8c0.64,5.92,3.23,5.81,13.8,5.07c1.41-0.1,2.81-0.25,4.15-0.54
		C318.82,580.56,312.86,578.96,306.8,577.8z"/>
	<path class="st2" d="M327.8,540.1c-3.8-0.46-7.61-0.93-11.4-1.47c-3.27,0.04-6.53,0.04-9.8,0.01c0,0.11,0,0.22,0,0.33
		C313.67,539.29,320.74,539.71,327.8,540.1z"/>
	<path class="st3" d="M496.88,357.93c10.39,0.04,18.37,8.3,18.22,18.85c-0.15,10.14-8.38,18.1-18.65,18.02
		c-10.03-0.08-18.38-8.72-18.29-18.9C478.26,365.96,486.66,357.89,496.88,357.93z"/>
	<path class="st4" d="M287.81,561.62c0.02-1.45,0.03-2.89,0.03-4.34c-7.29-0.52-14.58-0.92-21.88-1.25
		c0.32,0.23,0.64,0.45,0.96,0.68c0.05,0.04,0.11,0.09,0.16,0.13c1.52,0.36,3.05,0.73,4.57,1.09
		C277.03,559.19,282.42,560.41,287.81,561.62z"/>
	<path class="st4" d="M283.36,538.58c1.43-0.03,2.86-0.03,4.29-0.03c0-0.12,0-0.24-0.01-0.36c-8.42-0.29-16.84-0.67-25.26-1.01
		c3.86,0.84,7.72,1.68,11.58,2.51C277.01,539.07,280.11,538.65,283.36,538.58z"/>
	<path class="st4" d="M269.72,583.14c1.31,0.37,2.73,0.58,4.28,0.6C272.57,583.54,271.14,583.34,269.72,583.14z"/>
	<path class="st4" d="M363.38,571.18c-0.01-1.06-0.02-2.12-0.03-3.17c-0.8,0.03-1.6,0.06-2.4,0.1c-2.14,0.27-4.28,0.53-6.42,0.77
		c0.03,0.86,0.07,1.73,0.14,2.59c0.06,0.8,0.17,1.56,0.32,2.3c3.53,0.44,7.05,0.84,10.59,1.2
		C364.24,574.22,363.4,572.9,363.38,571.18z"/>
	<path class="st4" d="M372.8,570.14c-0.03,0.43-0.04,0.86-0.09,1.29c-0.19,1.95-1.29,3.4-3,3.94c3.42,0.32,6.85,0.59,10.28,0.82
		c0.52-1.33,0.86-2.82,1.01-4.47C378.27,571.26,375.53,570.72,372.8,570.14z"/>
	<path class="st4" d="M483.48,566.26c-0.14,0.81-0.29,1.62-0.43,2.43c3.52-0.49,7.04-0.97,10.57-1.41
		C490.23,566.96,486.85,566.61,483.48,566.26z"/>
	<path class="st4" d="M507.3,552.47c-5.34,0.16-10.68,0.38-16.02,0.67c5.46,0.77,10.92,1.36,16.4,1.67
		C507.55,554.03,507.43,553.25,507.3,552.47z"/>
	<path class="st4" d="M511.01,575.3c-3.09,0.18-6.17,0.43-9.26,0.74c0.39,0.92,0.68,2.01,0.89,3.28c0.05,0.33,0.06,0.66,0.11,0.99
		c0.77,5.17,4.72,2.05,7.1,2.46c3.25,0.56,2-2.25,1.76-3.77C511.42,577.76,511.21,576.53,511.01,575.3z"/>
	<path class="st4" d="M481.27,578.7c-0.59,4.27,1.23,4.42,4.93,4.3c4.17-0.13,2.71-3.36,3.48-5.37c0.02-0.05,0.03-0.11,0.05-0.16
		C486.91,577.86,484.09,578.27,481.27,578.7z"/>
	<path class="st4" d="M426.3,531.89c5.12,0.57,10.28,1.13,15.47,1.64c-0.4-2.57-0.73-4.35-1.26-5.58
		c-4.46-0.27-8.92-0.46-13.38-0.59c-0.12,0.3-0.22,0.65-0.28,1.08C426.66,529.59,426.47,530.74,426.3,531.89z"/>
	<path class="st4" d="M429.76,567.45c-0.54,0-1.07-0.01-1.61-0.01c-2.57,0.78-5.17,1.52-7.78,2.21c-0.37,2.32-0.74,4.65-1.11,6.97
		c2.71-0.16,5.41-0.35,8.11-0.58c0.14-1.35-0.1-2.95,2.19-3.39c4.82-0.94,7.47-0.46,9.08,2.27c3.15-0.36,6.3-0.76,9.45-1.17
		c-0.4-2.55-0.81-5.1-1.21-7.66C441.26,567,435.55,567.48,429.76,567.45z"/>
	<path class="st1" d="M270.29,344.8c-0.08,10.09-7.67,17.44-17.86,17.29c-9.37-0.14-17.07-8.18-17.13-17.88
		c-0.06-9.22,8.21-17.24,17.72-17.18C263.36,327.09,270.37,334.29,270.29,344.8z"/>
	<path class="st4" d="M197.88,575.08c0.15,0.49,0.29,0.95,0.43,1.38c2.68,0.06,5.36,0,8.03-0.11c0.13-0.17,0.27-0.33,0.39-0.51
		c-3.01-0.29-6-0.66-8.97-1.12C197.81,574.84,197.85,574.96,197.88,575.08z"/>
	<path class="st4" d="M237.06,542.05c-1.49,0.38-2.97,0.76-4.45,1.16c1.81,0.13,3.62,0.28,5.43,0.42c0-0.46,0.01-0.92,0.01-1.37
		C237.72,542.19,237.39,542.12,237.06,542.05z"/>
	<path class="st4" d="M238.02,560.15c-0.45-0.11-0.9-0.22-1.35-0.33c-1.34-0.32-2.27-1.03-2.84-1.91c-1.62,0.14-3.24,0.28-4.86,0.4
		c-0.01,0.9-0.01,1.79-0.01,2.69c3.02,0.29,6.04,0.55,9.06,0.77C238.02,561.23,238.02,560.69,238.02,560.15z"/>
	<path class="st4" d="M250.8,580.88c-2.9,0.55-5.81,1.08-8.73,1.56c-1.19,0.2-2.38,0.39-3.58,0.58c0.49,0.12,0.99,0.23,1.51,0.32
		c4.2,0.71,8.08,0.13,11.17-2.43C251.04,580.91,250.92,580.89,250.8,580.88z"/>
	<path class="st1" d="M123.8,280.13c0.07-8.42,6.96-15.79,14.71-15.76c9.25,0.04,16.59,7.36,16.46,16.41
		c-0.12,8.58-7.39,15.37-16.32,15.25C130.12,295.91,123.73,289.07,123.8,280.13z"/>
	<path class="st5" d="M451.72,415.04c0.04-8.31,6.8-15.1,14.78-14.86c7.38,0.22,14.2,7.26,14.22,14.66
		c0.02,8.04-6.94,15.18-14.88,14.88C459.6,429.49,450.94,424.66,451.72,415.04z"/>
	<path class="st6" d="M469.51,570.66c-0.01-1.97-0.03-3.94-0.03-5.91c-2.9-0.31-5.8-0.63-8.71-0.93c0.02,2.71,0.03,5.42,0.02,8.13
		C463.69,571.53,466.6,571.1,469.51,570.66z"/>
	<path class="st6" d="M461.75,529.88c-2.43-0.3-4.86-0.56-7.3-0.8c1.05,1.5,2.12,2.98,3.19,4.47c0.5,0,0.93,0.05,1.29,0.17
		c5.57-0.45,11.13-0.96,16.65-1.65c-3.02-0.49-6.05-1-9.06-1.53C464.93,530.3,463.34,530.08,461.75,529.88z"/>
	<path class="st6" d="M461.22,581.87c0.55,0.82,1.6,1.23,3.58,1.19c2.78-0.06,4.19-0.42,4.64-2.49
		C466.7,581.01,463.96,581.44,461.22,581.87z"/>
	<path class="st7" d="M194.02,239.26c-0.03,7.54-5.99,13.75-13.29,13.85c-7.94,0.11-14.49-6.18-14.51-13.94
		c-0.02-7.53,6.9-14.14,14.59-13.93C188.02,225.43,194.05,231.84,194.02,239.26z"/>
	<path class="st8" d="M229.27,242.21c-7.64-0.1-13.34-6.08-13.17-13.81c0.16-6.98,6.14-12.49,13.5-12.45
		c7.56,0.04,13.27,5.83,13.14,13.3C242.6,236.76,236.84,242.31,229.27,242.21z"/>
	<path class="st9" d="M345.71,402.69c0.01-7.51,5.92-13.52,13.13-13.35c7.3,0.17,13.19,6.24,13.12,13.53
		c-0.06,7.08-6.26,13.02-13.57,13.01C351.35,415.86,345.7,409.99,345.71,402.69z"/>
	<path class="st2" d="M339.6,570.38c0,0.41-0.01,0.82-0.01,1.22c2.88,0.45,5.77,0.87,8.66,1.27c-0.01-1.1-0.01-2.21-0.01-3.32
		C345.36,569.85,342.48,570.13,339.6,570.38z"/>
	<path class="st2" d="M343.94,525.8c-1.15,0-2.31-0.19-3.16,0.18c0.18,0.01,0.35,0.01,0.53,0.02c2.12,0.09,4.23,0.18,6.35,0.27
		C346.8,525.5,345.33,525.81,343.94,525.8z"/>
	<path class="st10" d="M164.03,317.84c5.81-0.09,10.12,4.1,10.17,9.89c0.05,5.68-4.28,10.13-9.96,10.23
		c-5.28,0.09-10.15-4.72-10.18-10.05C154.03,322.07,158.13,317.93,164.03,317.84z"/>
	<path class="st11" d="M263.81,383.25c5.08,0.07,9.99,4.93,9.98,9.87c-0.02,5.44-4.84,10.6-9.94,10.64
		c-5.12,0.04-10.07-5.06-10.06-10.35C253.8,387.69,258.26,383.17,263.81,383.25z"/>
	<path class="st12" d="M336.74,428.98c5.09-0.03,9.25,4.3,9.25,9.65c0,5.01-4.03,9.13-9.06,9.27c-5.32,0.15-9.87-4.32-9.81-9.63
		C327.18,433.08,331.39,429.01,336.74,428.98z"/>
	<path class="st13" d="M446.05,449.92c-0.04,4.98-4.16,9.21-9.04,9.28c-5.54,0.08-10.09-4.31-9.9-9.57
		c0.18-5.08,4.79-9.52,9.74-9.39C442.07,440.39,446.09,444.62,446.05,449.92z"/>
	<path class="st14" d="M290.26,330.29c-5.75-0.02-9.78-3.92-9.91-9.59c-0.1-4.47,4.57-8.82,9.53-8.87c5.35-0.06,9.79,4.03,9.88,9.08
		C299.85,326.03,295.52,330.31,290.26,330.29z"/>
	<path class="st15" d="M351,310.33c-0.02,4.78-4.09,8.74-8.96,8.69c-4.86-0.05-8.84-3.91-8.95-8.69c-0.11-4.73,4.51-9.32,9.22-9.15
		C346.99,301.35,351.02,305.59,351,310.33z"/>
	<path class="st16" d="M396.1,573.15c0.61,1.6,2.15,1.91,4.6,1.68c2.11-0.2,3.49-0.94,4.3-2.17
		C402.04,572.99,399.08,573.17,396.1,573.15z"/>
	<path class="st17" d="M324.94,539.95c-0.01-0.06-0.01-0.12-0.01-0.18c-2.8-0.35-5.61-0.73-8.41-1.13c-0.42,0-0.85,0.01-1.27,0.01
		c-0.02,0.25-0.01,0.5-0.01,0.76C318.48,539.58,321.71,539.76,324.94,539.95z"/>
	<path class="st18" d="M279.06,538.89c0-0.13,0-0.26,0-0.39c0-0.22-0.03-0.42-0.05-0.63c-3.17-0.13-6.34-0.26-9.5-0.39
		c-0.04,0.37-0.06,0.76-0.06,1.16c0,0.03,0,0.05,0,0.08c1.51,0.33,3.03,0.65,4.54,0.97C275.65,539.35,277.34,539.08,279.06,538.89z"
		/>
	<path class="st18" d="M269.44,556.16c0,0.41,0,0.83,0,1.24c0.74,0.18,1.48,0.35,2.22,0.53c2.47,0.58,4.94,1.15,7.41,1.71
		c0-0.98,0-1.96,0-2.95C275.86,556.5,272.65,556.31,269.44,556.16z"/>
	<path class="st19" d="M493.38,553.03c-0.02,0.13-0.04,0.25-0.06,0.38c1.83,0.24,3.66,0.46,5.49,0.66c-0.07-0.43-0.13-0.86-0.2-1.29
		C496.88,552.86,495.13,552.94,493.38,553.03z"/>
</g>
</svg>
